<svg width="181" height="52" viewBox="0 0 181 52" fill="none" xmlns="http://www.w3.org/2000/svg">
<path d="M179.5 46.0031C179.5 48.7743 177.209 51.0189 174.374 51.0189H6.63243C3.7995 51.0189 1.5 48.7743 1.5 46.0031V6.00357C1.5 3.23374 3.7995 0.981201 6.63243 0.981201H174.373C177.209 0.981201 179.499 3.23374 179.499 6.00357L179.5 46.0031Z" fill="#111111"/>
<path d="M173.833 1.04162C176.92 1.04162 179.432 3.4905 179.432 6.5V45.5C179.432 48.5095 176.92 50.9584 173.833 50.9584H7.16667C4.08 50.9584 1.56833 48.5095 1.56833 45.5V6.5C1.56833 3.4905 4.08 1.04162 7.16667 1.04162H173.833ZM173.833 2.74817e-06H7.16667C3.50167 2.74817e-06 0.5 2.92663 0.5 6.5V45.5C0.5 49.0734 3.50167 52 7.16667 52H173.833C177.498 52 180.5 49.0734 180.5 45.5V6.5C180.5 2.92663 177.498 2.74817e-06 173.833 2.74817e-06Z" fill="#A6A6A6"/>
<path d="M40.6707 25.7191C40.632 21.5292 44.1894 19.4908 44.352 19.3959C42.3374 16.532 39.2147 16.1407 38.1174 16.1095C35.4947 15.8404 32.9507 17.6396 31.6147 17.6396C30.252 17.6396 28.1947 16.1355 25.9774 16.1797C23.124 16.2226 20.4547 17.8333 18.9907 20.3345C15.9694 25.4344 18.2227 32.9289 21.1174 37.0512C22.5654 39.0701 24.2574 41.3243 26.472 41.245C28.6387 41.1579 29.448 39.8982 32.0627 39.8982C34.6534 39.8982 35.4134 41.245 37.672 41.1943C39.9974 41.1579 41.4614 39.1663 42.8587 37.1292C44.532 34.8152 45.204 32.5363 45.2307 32.4193C45.176 32.4011 40.7147 30.741 40.6707 25.7191Z" fill="white"/>
<path d="M36.404 13.3977C37.5694 11.9768 38.3667 10.0437 38.1454 8.08203C36.4587 8.15483 34.3494 9.21953 33.1347 10.6092C32.06 11.8338 31.1 13.841 31.348 15.7286C33.2427 15.8664 35.188 14.7965 36.404 13.3977Z" fill="white"/>
<path d="M72.0266 40.9552H68.9986L67.34 35.8735H61.5746L59.9946 40.9552H57.0466L62.7586 23.6548H66.2866L72.0266 40.9552ZM66.84 33.7415L65.34 29.224C65.1813 28.7625 64.884 27.6757 64.4453 25.9649H64.392C64.2173 26.7007 63.936 27.7875 63.5493 29.224L62.076 33.7415H66.84Z" fill="white"/>
<path d="M86.716 34.5645C86.716 36.6861 86.128 38.3631 84.952 39.5942C83.8987 40.6901 82.5907 41.2374 81.0293 41.2374C79.344 41.2374 78.1333 40.6472 77.396 39.4668H77.3427V46.0383H74.5V32.5872C74.5 31.2534 74.464 29.8845 74.3947 28.4805H76.8947L77.0533 30.4578H77.1067C78.0547 28.968 79.4933 28.2244 81.424 28.2244C82.9333 28.2244 84.1933 28.8055 85.2013 29.969C86.212 31.1338 86.716 32.6652 86.716 34.5645ZM83.82 34.6659C83.82 33.4517 83.54 32.4507 82.9773 31.6629C82.3627 30.8413 81.5373 30.4305 80.5027 30.4305C79.8013 30.4305 79.164 30.6593 78.5947 31.1104C78.024 31.5654 77.6506 32.1595 77.476 32.8953C77.388 33.2385 77.344 33.5193 77.344 33.7403V35.8203C77.344 36.7277 77.6293 37.4934 78.2 38.1187C78.7707 38.744 79.512 39.056 80.424 39.056C81.4947 39.056 82.328 38.653 82.924 37.8496C83.5213 37.0449 83.82 35.9841 83.82 34.6659Z" fill="white"/>
<path d="M101.432 34.5645C101.432 36.6861 100.844 38.3631 99.6666 39.5942C98.6146 40.6901 97.3066 41.2374 95.7453 41.2374C94.0599 41.2374 92.8493 40.6472 92.1133 39.4668H92.0599V46.0383H89.2173V32.5872C89.2173 31.2534 89.1813 29.8845 89.1119 28.4805H91.6119L91.7706 30.4578H91.8239C92.7706 28.968 94.2093 28.2244 96.1413 28.2244C97.6493 28.2244 98.9093 28.8055 99.9199 29.969C100.927 31.1338 101.432 32.6652 101.432 34.5645ZM98.5359 34.6659C98.5359 33.4517 98.2546 32.4507 97.6919 31.6629C97.0773 30.8413 96.2546 30.4305 95.2186 30.4305C94.5159 30.4305 93.8799 30.6593 93.3093 31.1104C92.7386 31.5654 92.3666 32.1595 92.1919 32.8953C92.1053 33.2385 92.0599 33.5193 92.0599 33.7403V35.8203C92.0599 36.7277 92.3453 37.4934 92.9133 38.1187C93.4839 38.7427 94.2253 39.056 95.1399 39.056C96.2106 39.056 97.0439 38.653 97.6399 37.8496C98.2373 37.0449 98.5359 35.9841 98.5359 34.6659Z" fill="white"/>
<path d="M117.885 36.1037C117.885 37.5753 117.361 38.7726 116.309 39.6969C115.153 40.707 113.544 41.2114 111.476 41.2114C109.567 41.2114 108.036 40.8526 106.877 40.1337L107.536 37.8236C108.784 38.5594 110.153 38.9286 111.645 38.9286C112.716 38.9286 113.549 38.692 114.148 38.2214C114.744 37.7508 115.041 37.119 115.041 36.3312C115.041 35.6292 114.796 35.0377 114.304 34.558C113.815 34.0783 112.997 33.6324 111.856 33.2203C108.749 32.0906 107.197 30.4357 107.197 28.2595C107.197 26.8373 107.741 25.6712 108.831 24.7638C109.916 23.8551 111.364 23.4014 113.175 23.4014C114.789 23.4014 116.131 23.6757 117.201 24.223L116.491 26.4824C115.491 25.952 114.36 25.6868 113.095 25.6868C112.095 25.6868 111.313 25.9273 110.753 26.4057C110.28 26.8334 110.043 27.3547 110.043 27.9722C110.043 28.656 110.313 29.2215 110.857 29.6661C111.331 30.0769 112.191 30.5215 113.439 31.0012C114.965 31.6005 116.087 32.3012 116.808 33.1046C117.527 33.9054 117.885 34.9077 117.885 36.1037Z" fill="white"/>
<path d="M127.284 30.5604H124.151V36.6171C124.151 38.1576 124.703 38.9272 125.809 38.9272C126.317 38.9272 126.739 38.8843 127.072 38.7985L127.151 40.9032C126.591 41.1073 125.853 41.21 124.94 41.21C123.817 41.21 122.94 40.8759 122.307 40.209C121.676 39.5408 121.359 38.4202 121.359 36.8459V30.5578H119.492V28.4778H121.359V26.1937L124.151 25.3721V28.4778H127.284V30.5604Z" fill="white"/>
<path d="M141.421 34.6151C141.421 36.5326 140.859 38.1069 139.736 39.338C138.559 40.6055 136.996 41.2373 135.048 41.2373C133.171 41.2373 131.676 40.6302 130.561 39.416C129.447 38.2018 128.889 36.6691 128.889 34.8218C128.889 32.8887 129.463 31.3053 130.613 30.0742C131.761 28.8418 133.311 28.2256 135.259 28.2256C137.136 28.2256 138.647 28.8327 139.787 30.0482C140.877 31.2273 141.421 32.7496 141.421 34.6151ZM138.472 34.7048C138.472 33.5543 138.22 32.5676 137.709 31.7447C137.113 30.7489 136.261 30.2523 135.157 30.2523C134.015 30.2523 133.147 30.7502 132.551 31.7447C132.04 32.5689 131.788 33.5712 131.788 34.7568C131.788 35.9073 132.04 36.894 132.551 37.7156C133.165 38.7114 134.024 39.208 135.132 39.208C136.217 39.208 137.069 38.701 137.684 37.6896C138.208 36.8511 138.472 35.854 138.472 34.7048Z" fill="white"/>
<path d="M150.661 30.918C150.38 30.8673 150.08 30.8413 149.765 30.8413C148.765 30.8413 147.992 31.2092 147.448 31.9463C146.975 32.5963 146.737 33.4179 146.737 34.4098V40.9553H143.896L143.923 32.4091C143.923 30.9713 143.887 29.6622 143.816 28.4818H146.292L146.396 30.8686H146.475C146.775 30.0483 147.248 29.3879 147.896 28.8926C148.529 28.4467 149.213 28.2244 149.951 28.2244C150.213 28.2244 150.451 28.2426 150.661 28.2751V30.918Z" fill="white"/>
<path d="M163.375 34.1276C163.375 34.6242 163.341 35.0428 163.271 35.3847H154.743C154.776 36.6171 155.188 37.5596 155.98 38.2096C156.699 38.7907 157.628 39.0819 158.769 39.0819C160.032 39.0819 161.184 38.8856 162.22 38.4917L162.665 40.4157C161.455 40.9305 160.025 41.1866 158.376 41.1866C156.392 41.1866 154.835 40.6172 153.701 39.4797C152.571 38.3422 152.004 36.8147 152.004 34.8985C152.004 33.0174 152.531 31.4509 153.585 30.2016C154.689 28.8678 156.181 28.2009 158.059 28.2009C159.903 28.2009 161.299 28.8678 162.247 30.2016C162.997 31.2611 163.375 32.5715 163.375 34.1276ZM160.664 33.4087C160.683 32.5871 160.497 31.8773 160.112 31.278C159.62 30.5071 158.864 30.1223 157.847 30.1223C156.917 30.1223 156.161 30.498 155.584 31.252C155.111 31.8513 154.829 32.5702 154.743 33.4074H160.664V33.4087Z" fill="white"/>
<path d="M65.9 13.0116C65.9 14.5417 65.4294 15.6935 64.4894 16.467C63.6187 17.1807 62.3814 17.5382 60.7787 17.5382C59.984 17.5382 59.304 17.5044 58.7347 17.4368V9.07646C59.4773 8.95946 60.2773 8.89966 61.1413 8.89966C62.668 8.89966 63.8187 9.22336 64.5947 9.87076C65.464 10.6027 65.9 11.6492 65.9 13.0116ZM64.4267 13.0493C64.4267 12.0574 64.1574 11.2969 63.6187 10.7665C63.08 10.2374 62.2934 9.97216 61.2574 9.97216C60.8174 9.97216 60.4427 10.0008 60.132 10.0606V16.4163C60.304 16.4423 60.6187 16.454 61.076 16.454C62.1454 16.454 62.9707 16.1641 63.552 15.5843C64.1334 15.0045 64.4267 14.1595 64.4267 13.0493Z" fill="white"/>
<path d="M73.712 14.3479C73.712 15.2904 73.436 16.0626 72.884 16.6684C72.3054 17.2911 71.5387 17.6018 70.5814 17.6018C69.6587 17.6018 68.924 17.3041 68.376 16.7061C67.8294 16.1094 67.556 15.3567 67.556 14.4493C67.556 13.5003 67.8374 12.7216 68.4027 12.1171C68.968 11.5126 69.728 11.2097 70.6854 11.2097C71.608 11.2097 72.3494 11.5074 72.9107 12.1041C73.444 12.6839 73.712 13.4327 73.712 14.3479ZM72.2627 14.3921C72.2627 13.8266 72.1374 13.3417 71.888 12.9374C71.5947 12.4486 71.1774 12.2042 70.6347 12.2042C70.0734 12.2042 69.6467 12.4486 69.3534 12.9374C69.1027 13.3417 68.9787 13.8344 68.9787 14.4168C68.9787 14.9823 69.104 15.4672 69.3534 15.8715C69.656 16.3603 70.0774 16.6047 70.6214 16.6047C71.1547 16.6047 71.5734 16.3564 71.8747 15.8585C72.1334 15.4464 72.2627 14.9576 72.2627 14.3921Z" fill="white"/>
<path d="M84.1867 11.3347L82.22 17.4629H80.94L80.1253 14.8018C79.9187 14.1375 79.7507 13.4771 79.62 12.8219H79.5947C79.4733 13.4953 79.3053 14.1544 79.0893 14.8018L78.224 17.4629H76.9293L75.08 11.3347H76.516L77.2267 14.248C77.3987 14.937 77.54 15.5935 77.6533 16.2149H77.6787C77.7827 15.7027 77.9547 15.0501 78.1973 14.261L79.0893 11.336H80.228L81.0827 14.1986C81.2893 14.8967 81.4573 15.5688 81.5867 16.2162H81.6253C81.72 15.5857 81.8627 14.9136 82.052 14.1986L82.8147 11.336H84.1867V11.3347Z" fill="white"/>
<path d="M91.4307 17.4627H90.0334V13.9527C90.0334 12.8711 89.612 12.3303 88.7667 12.3303C88.352 12.3303 88.0174 12.4785 87.7574 12.7762C87.5 13.0739 87.3694 13.4249 87.3694 13.8266V17.4614H85.972V13.0856C85.972 12.5474 85.9547 11.9637 85.9214 11.3319H87.1494L87.2147 12.29H87.2534C87.4161 11.9923 87.6587 11.7466 87.9774 11.5503C88.356 11.3215 88.78 11.2058 89.244 11.2058C89.8307 11.2058 90.3187 11.3904 90.7067 11.7609C91.1894 12.2146 91.4307 12.8919 91.4307 13.7915V17.4627Z" fill="white"/>
<path d="M95.284 17.4628H93.888V8.52271H95.284V17.4628Z" fill="white"/>
<path d="M103.511 14.3479C103.511 15.2904 103.235 16.0626 102.683 16.6684C102.104 17.2911 101.336 17.6018 100.38 17.6018C99.456 17.6018 98.7213 17.3041 98.1747 16.7061C97.628 16.1094 97.3547 15.3567 97.3547 14.4493C97.3547 13.5003 97.636 12.7216 98.2013 12.1171C98.7667 11.5126 99.5267 11.2097 100.483 11.2097C101.407 11.2097 102.147 11.5074 102.709 12.1041C103.243 12.6839 103.511 13.4327 103.511 14.3479ZM102.06 14.3921C102.06 13.8266 101.935 13.3417 101.685 12.9374C101.393 12.4486 100.975 12.2042 100.433 12.2042C99.8707 12.2042 99.444 12.4486 99.152 12.9374C98.9013 13.3417 98.7773 13.8344 98.7773 14.4168C98.7773 14.9823 98.9027 15.4672 99.152 15.8715C99.4547 16.3603 99.876 16.6047 100.42 16.6047C100.953 16.6047 101.371 16.3564 101.672 15.8585C101.932 15.4464 102.06 14.9576 102.06 14.3921Z" fill="white"/>
<path d="M110.273 17.4627H109.019L108.915 16.7568H108.876C108.447 17.3197 107.835 17.6018 107.04 17.6018C106.447 17.6018 105.967 17.4159 105.605 17.0467C105.277 16.7113 105.113 16.294 105.113 15.7987C105.113 15.0499 105.433 14.4792 106.077 14.084C106.72 13.6888 107.624 13.4951 108.788 13.5042V13.3898C108.788 12.5825 108.353 12.1795 107.483 12.1795C106.863 12.1795 106.316 12.3316 105.844 12.6332L105.56 11.7388C106.144 11.3865 106.865 11.2097 107.716 11.2097C109.359 11.2097 110.183 12.0547 110.183 13.7447V16.0015C110.183 16.6138 110.213 17.1013 110.273 17.4627ZM108.823 15.3567V14.4116C107.281 14.3856 106.511 14.7977 106.511 15.6466C106.511 15.9664 106.599 16.2056 106.779 16.3655C106.959 16.5254 107.188 16.6047 107.461 16.6047C107.768 16.6047 108.055 16.5098 108.316 16.3213C108.579 16.1315 108.74 15.891 108.8 15.5959C108.815 15.5296 108.823 15.449 108.823 15.3567Z" fill="white"/>
<path d="M118.213 17.4628H116.973L116.908 16.4787H116.869C116.473 17.2275 115.799 17.6019 114.851 17.6019C114.093 17.6019 113.463 17.312 112.963 16.7322C112.463 16.1524 112.213 15.3997 112.213 14.4754C112.213 13.4835 112.484 12.6801 113.028 12.0665C113.555 11.4945 114.2 11.2085 114.968 11.2085C115.812 11.2085 116.403 11.4854 116.739 12.0405H116.765V8.52271H118.164V15.8118C118.164 16.4085 118.18 16.9584 118.213 17.4628ZM116.765 14.8784V13.8566C116.765 13.6798 116.752 13.5368 116.727 13.4276C116.648 13.1 116.479 12.8244 116.221 12.6021C115.961 12.3798 115.648 12.268 115.287 12.268C114.765 12.268 114.357 12.4695 114.057 12.8738C113.76 13.2781 113.609 13.7942 113.609 14.4247C113.609 15.0305 113.752 15.5219 114.039 15.9002C114.341 16.3032 114.749 16.5047 115.26 16.5047C115.719 16.5047 116.085 16.337 116.364 16.0003C116.633 15.6896 116.765 15.3152 116.765 14.8784Z" fill="white"/>
<path d="M130.164 14.3479C130.164 15.2904 129.888 16.0626 129.336 16.6684C128.757 17.2911 127.992 17.6018 127.033 17.6018C126.112 17.6018 125.377 17.3041 124.828 16.7061C124.281 16.1094 124.008 15.3567 124.008 14.4493C124.008 13.5003 124.289 12.7216 124.855 12.1171C125.42 11.5126 126.18 11.2097 127.139 11.2097C128.06 11.2097 128.803 11.5074 129.363 12.1041C129.896 12.6839 130.164 13.4327 130.164 14.3479ZM128.716 14.3921C128.716 13.8266 128.591 13.3417 128.341 12.9374C128.047 12.4486 127.631 12.2042 127.087 12.2042C126.527 12.2042 126.1 12.4486 125.805 12.9374C125.555 13.3417 125.431 13.8344 125.431 14.4168C125.431 14.9823 125.556 15.4672 125.805 15.8715C126.108 16.3603 126.529 16.6047 127.073 16.6047C127.607 16.6047 128.027 16.3564 128.328 15.8585C128.585 15.4464 128.716 14.9576 128.716 14.3921Z" fill="white"/>
<path d="M137.677 17.4627H136.281V13.9527C136.281 12.8711 135.86 12.3303 135.013 12.3303C134.599 12.3303 134.264 12.4785 134.005 12.7762C133.747 13.0739 133.617 13.4249 133.617 13.8266V17.4614H132.219V13.0856C132.219 12.5474 132.203 11.9637 132.169 11.3319H133.396L133.461 12.29H133.5C133.664 11.9923 133.907 11.7466 134.224 11.5503C134.604 11.3215 135.027 11.2058 135.492 11.2058C136.077 11.2058 136.565 11.3904 136.953 11.7609C137.437 12.2146 137.677 12.8919 137.677 13.7915V17.4627Z" fill="white"/>
<path d="M147.081 12.355H145.543V15.332C145.543 16.0886 145.816 16.4669 146.357 16.4669C146.608 16.4669 146.816 16.4461 146.98 16.4032L147.016 17.4367C146.74 17.5381 146.377 17.5888 145.931 17.5888C145.379 17.5888 144.949 17.425 144.639 17.0974C144.327 16.7698 144.172 16.2186 144.172 15.4451V12.355H143.253V11.3345H144.172V10.2113L145.541 9.80835V11.3333H147.08V12.355H147.081Z" fill="white"/>
<path d="M154.479 17.4628H153.08V13.9788C153.08 12.8803 152.659 12.3304 151.815 12.3304C151.167 12.3304 150.724 12.6489 150.481 13.2859C150.44 13.4198 150.416 13.5836 150.416 13.776V17.4615H149.02V8.52271H150.416V12.216H150.443C150.883 11.5439 151.513 11.2085 152.331 11.2085C152.909 11.2085 153.388 11.3931 153.768 11.7636C154.241 12.2251 154.479 12.9115 154.479 13.8189V17.4628Z" fill="white"/>
<path d="M162.109 14.1087C162.109 14.3531 162.091 14.5585 162.057 14.7262H157.867C157.885 15.332 158.085 15.7935 158.473 16.1133C158.828 16.3993 159.285 16.5423 159.845 16.5423C160.465 16.5423 161.031 16.4461 161.54 16.2524L161.759 17.1988C161.163 17.451 160.461 17.5771 159.649 17.5771C158.676 17.5771 157.909 17.2976 157.355 16.7386C156.797 16.1796 156.521 15.4295 156.521 14.4883C156.521 13.564 156.779 12.7944 157.297 12.1808C157.839 11.5256 158.571 11.198 159.495 11.198C160.399 11.198 161.085 11.5256 161.549 12.1808C161.924 12.7008 162.109 13.3443 162.109 14.1087ZM160.776 13.7564C160.787 13.3521 160.695 13.0037 160.505 12.7099C160.263 12.3316 159.893 12.1418 159.393 12.1418C158.937 12.1418 158.565 12.3264 158.281 12.6969C158.049 12.992 157.912 13.3443 157.867 13.7564H160.776Z" fill="white"/>
</svg>
