<svg width="18" height="18" viewBox="0 0 18 18" fill="none" xmlns="http://www.w3.org/2000/svg">
<path d="M9.92851 0.98786C5.3699 0.372146 1.17046 3.57218 0.554743 8.13078C-0.060971 12.6894 3.13906 16.8888 7.69766 17.5046C12.2563 18.1203 16.4557 14.9202 17.0714 10.3616C17.6871 5.80302 14.4871 1.60357 9.92851 0.98786ZM6.09656 12.4868L3.53225 9.12157C3.25368 8.756 3.32395 8.23572 3.68953 7.95715C4.0551 7.67857 4.57538 7.74884 4.85395 8.11442L6.91937 10.8152L13.3685 5.90085C13.7341 5.62228 14.2544 5.69255 14.533 6.05813C14.8115 6.4237 14.7413 6.94398 14.3757 7.22255L7.26099 12.644C6.90367 12.9237 6.37513 12.8523 6.09656 12.4868Z" fill="url(#paint0_linear_0_5118)"/>
<defs>
<linearGradient id="paint0_linear_0_5118" x1="9.92851" y1="0.98786" x2="7.69766" y2="17.5046" gradientUnits="userSpaceOnUse">
<stop offset="0.0885417" stop-color="#25BEA9"/>
<stop offset="0.916667" stop-color="#00A992"/>
</linearGradient>
</defs>
</svg>
