<svg width="266" height="75" viewBox="0 0 266 75" fill="none" xmlns="http://www.w3.org/2000/svg">
<g filter="url(#filter0_d_0_4991)">
<path d="M8 8C8 5.23858 10.2386 3 13 3H253.44C256.201 3 258.44 5.23858 258.44 8V57.0791C258.44 59.8406 256.201 62.0791 253.44 62.0791H13C10.2386 62.0791 8 59.8406 8 57.0791V8Z" fill="white"/>
<path d="M24.558 16.7339L21.778 23.2539H20.858L23.678 16.8239H19.818V16.0439H24.558V16.7339ZM26.007 23.3139C25.8337 23.3139 25.687 23.2539 25.567 23.1339C25.447 23.0139 25.387 22.8672 25.387 22.6939C25.387 22.5206 25.447 22.3739 25.567 22.2539C25.687 22.1339 25.8337 22.0739 26.007 22.0739C26.1737 22.0739 26.3137 22.1339 26.427 22.2539C26.547 22.3739 26.607 22.5206 26.607 22.6939C26.607 22.8672 26.547 23.0139 26.427 23.1339C26.3137 23.2539 26.1737 23.3139 26.007 23.3139ZM26.007 19.0339C25.8337 19.0339 25.687 18.9739 25.567 18.8539C25.447 18.7339 25.387 18.5872 25.387 18.4139C25.387 18.2406 25.447 18.0939 25.567 17.9739C25.687 17.8539 25.8337 17.7939 26.007 17.7939C26.1737 17.7939 26.3137 17.8539 26.427 17.9739C26.547 18.0939 26.607 18.2406 26.607 18.4139C26.607 18.5872 26.547 18.7339 26.427 18.8539C26.3137 18.9739 26.1737 19.0339 26.007 19.0339ZM27.5859 22.5239C28.4326 21.8439 29.0959 21.2872 29.5759 20.8539C30.0559 20.4139 30.4593 19.9572 30.7859 19.4839C31.1193 19.0039 31.2859 18.5339 31.2859 18.0739C31.2859 17.6406 31.1793 17.3006 30.9659 17.0539C30.7593 16.8006 30.4226 16.6739 29.9559 16.6739C29.5026 16.6739 29.1493 16.8172 28.8959 17.1039C28.6493 17.3839 28.5159 17.7606 28.4959 18.2339H27.6159C27.6426 17.4872 27.8693 16.9106 28.2959 16.5039C28.7226 16.0972 29.2726 15.8939 29.9459 15.8939C30.6326 15.8939 31.1759 16.0839 31.5759 16.4639C31.9826 16.8439 32.1859 17.3672 32.1859 18.0339C32.1859 18.5872 32.0193 19.1272 31.6859 19.6539C31.3593 20.1739 30.9859 20.6339 30.5659 21.0339C30.1459 21.4272 29.6093 21.8872 28.9559 22.4139H32.3959V23.1739H27.5859V22.5239ZM33.4479 19.5639C33.4479 18.4172 33.6345 17.5239 34.0079 16.8839C34.3812 16.2372 35.0345 15.9139 35.9679 15.9139C36.8945 15.9139 37.5445 16.2372 37.9179 16.8839C38.2912 17.5239 38.4779 18.4172 38.4779 19.5639C38.4779 20.7306 38.2912 21.6372 37.9179 22.2839C37.5445 22.9306 36.8945 23.2539 35.9679 23.2539C35.0345 23.2539 34.3812 22.9306 34.0079 22.2839C33.6345 21.6372 33.4479 20.7306 33.4479 19.5639ZM37.5779 19.5639C37.5779 18.9839 37.5379 18.4939 37.4579 18.0939C37.3845 17.6872 37.2279 17.3606 36.9879 17.1139C36.7545 16.8672 36.4145 16.7439 35.9679 16.7439C35.5145 16.7439 35.1679 16.8672 34.9279 17.1139C34.6945 17.3606 34.5379 17.6872 34.4579 18.0939C34.3845 18.4939 34.3479 18.9839 34.3479 19.5639C34.3479 20.1639 34.3845 20.6672 34.4579 21.0739C34.5379 21.4806 34.6945 21.8072 34.9279 22.0539C35.1679 22.3006 35.5145 22.4239 35.9679 22.4239C36.4145 22.4239 36.7545 22.3006 36.9879 22.0539C37.2279 21.8072 37.3845 21.4806 37.4579 21.0739C37.5379 20.6672 37.5779 20.1639 37.5779 19.5639ZM46.6632 21.7039H43.6232L43.0632 23.2539H42.1032L44.6232 16.3239H45.6732L48.1832 23.2539H47.2232L46.6632 21.7039ZM46.4032 20.9639L45.1432 17.4439L43.8832 20.9639H46.4032ZM56.3515 16.3339V23.2539H55.4415V18.0939L53.1415 23.2539H52.5015L50.1915 18.0839V23.2539H49.2815V16.3339H50.2615L52.8215 22.0539L55.3815 16.3339H56.3515Z" fill="#333333"/>
<path d="M17.5704 41.3617V40.5317H19.4504V47.7617H18.5304V41.3617H17.5704ZM21.0136 44.0717C21.0136 42.9251 21.2002 42.0317 21.5736 41.3917C21.9469 40.7451 22.6002 40.4217 23.5336 40.4217C24.4602 40.4217 25.1102 40.7451 25.4836 41.3917C25.8569 42.0317 26.0436 42.9251 26.0436 44.0717C26.0436 45.2384 25.8569 46.1451 25.4836 46.7917C25.1102 47.4384 24.4602 47.7617 23.5336 47.7617C22.6002 47.7617 21.9469 47.4384 21.5736 46.7917C21.2002 46.1451 21.0136 45.2384 21.0136 44.0717ZM25.1436 44.0717C25.1436 43.4917 25.1036 43.0017 25.0236 42.6017C24.9502 42.1951 24.7936 41.8684 24.5536 41.6217C24.3202 41.3751 23.9802 41.2517 23.5336 41.2517C23.0802 41.2517 22.7336 41.3751 22.4936 41.6217C22.2602 41.8684 22.1036 42.1951 22.0236 42.6017C21.9502 43.0017 21.9136 43.4917 21.9136 44.0717C21.9136 44.6717 21.9502 45.1751 22.0236 45.5817C22.1036 45.9884 22.2602 46.3151 22.4936 46.5617C22.7336 46.8084 23.0802 46.9317 23.5336 46.9317C23.9802 46.9317 24.3202 46.8084 24.5536 46.5617C24.7936 46.3151 24.9502 45.9884 25.0236 45.5817C25.1036 45.1751 25.1436 44.6717 25.1436 44.0717ZM27.7329 47.8217C27.5595 47.8217 27.4129 47.7617 27.2929 47.6417C27.1729 47.5217 27.1129 47.3751 27.1129 47.2017C27.1129 47.0284 27.1729 46.8817 27.2929 46.7617C27.4129 46.6417 27.5595 46.5817 27.7329 46.5817C27.8995 46.5817 28.0395 46.6417 28.1529 46.7617C28.2729 46.8817 28.3329 47.0284 28.3329 47.2017C28.3329 47.3751 28.2729 47.5217 28.1529 47.6417C28.0395 47.7617 27.8995 47.8217 27.7329 47.8217ZM27.7329 43.5417C27.5595 43.5417 27.4129 43.4817 27.2929 43.3617C27.1729 43.2417 27.1129 43.0951 27.1129 42.9217C27.1129 42.7484 27.1729 42.6017 27.2929 42.4817C27.4129 42.3617 27.5595 42.3017 27.7329 42.3017C27.8995 42.3017 28.0395 42.3617 28.1529 42.4817C28.2729 42.6017 28.3329 42.7484 28.3329 42.9217C28.3329 43.0951 28.2729 43.2417 28.1529 43.3617C28.0395 43.4817 27.8995 43.5417 27.7329 43.5417ZM29.3118 47.0317C30.1584 46.3517 30.8218 45.7951 31.3018 45.3617C31.7818 44.9217 32.1851 44.4651 32.5118 43.9917C32.8451 43.5117 33.0118 43.0417 33.0118 42.5817C33.0118 42.1484 32.9051 41.8084 32.6918 41.5617C32.4851 41.3084 32.1484 41.1817 31.6818 41.1817C31.2284 41.1817 30.8751 41.3251 30.6218 41.6117C30.3751 41.8917 30.2418 42.2684 30.2218 42.7417H29.3418C29.3684 41.9951 29.5951 41.4184 30.0218 41.0117C30.4484 40.6051 30.9984 40.4017 31.6718 40.4017C32.3584 40.4017 32.9018 40.5917 33.3018 40.9717C33.7084 41.3517 33.9118 41.8751 33.9118 42.5417C33.9118 43.0951 33.7451 43.6351 33.4118 44.1617C33.0851 44.6817 32.7118 45.1417 32.2918 45.5417C31.8718 45.9351 31.3351 46.3951 30.6818 46.9217H34.1218V47.6817H29.3118V47.0317ZM35.1737 44.0717C35.1737 42.9251 35.3604 42.0317 35.7337 41.3917C36.107 40.7451 36.7604 40.4217 37.6937 40.4217C38.6204 40.4217 39.2704 40.7451 39.6437 41.3917C40.017 42.0317 40.2037 42.9251 40.2037 44.0717C40.2037 45.2384 40.017 46.1451 39.6437 46.7917C39.2704 47.4384 38.6204 47.7617 37.6937 47.7617C36.7604 47.7617 36.107 47.4384 35.7337 46.7917C35.3604 46.1451 35.1737 45.2384 35.1737 44.0717ZM39.3037 44.0717C39.3037 43.4917 39.2637 43.0017 39.1837 42.6017C39.1104 42.1951 38.9537 41.8684 38.7137 41.6217C38.4804 41.3751 38.1404 41.2517 37.6937 41.2517C37.2404 41.2517 36.8937 41.3751 36.6537 41.6217C36.4204 41.8684 36.2637 42.1951 36.1837 42.6017C36.1104 43.0017 36.0737 43.4917 36.0737 44.0717C36.0737 44.6717 36.1104 45.1751 36.1837 45.5817C36.2637 45.9884 36.4204 46.3151 36.6537 46.5617C36.8937 46.8084 37.2404 46.9317 37.6937 46.9317C38.1404 46.9317 38.4804 46.8084 38.7137 46.5617C38.9537 46.3151 39.1104 45.9884 39.1837 45.5817C39.2637 45.1751 39.3037 44.6717 39.3037 44.0717ZM48.929 42.8317C48.929 43.4117 48.729 43.8951 48.329 44.2817C47.9357 44.6617 47.3324 44.8517 46.519 44.8517H45.179V47.7617H44.269V40.7917H46.519C47.3057 40.7917 47.9024 40.9817 48.309 41.3617C48.7224 41.7417 48.929 42.2317 48.929 42.8317ZM46.519 44.1017C47.0257 44.1017 47.399 43.9917 47.639 43.7717C47.879 43.5517 47.999 43.2384 47.999 42.8317C47.999 41.9717 47.5057 41.5417 46.519 41.5417H45.179V44.1017H46.519ZM57.13 40.8417V47.7617H56.22V42.6017L53.92 47.7617H53.28L50.97 42.5917V47.7617H50.06V40.8417H51.04L53.6 46.5617L56.16 40.8417H57.13Z" fill="#333333"/>
<rect x="68.783" y="25.7225" width="0.643165" height="13.1425" rx="0.321582" fill="#333333" stroke="#E0E0E0" stroke-width="0.643165"/>
<circle cx="69.718" cy="20.3809" r="3.06348" stroke="url(#paint0_linear_0_4991)" stroke-width="1.53174"/>
<path d="M84.3628 24.3809H82.9948L78.8788 18.1529V24.3809H77.5108V16.0289H78.8788L82.9948 22.2449V16.0289H84.3628V24.3809ZM92.2193 20.9129C92.2193 21.1609 92.2033 21.3849 92.1713 21.5849H87.1193C87.1593 22.1129 87.3553 22.5369 87.7073 22.8569C88.0593 23.1769 88.4913 23.3369 89.0033 23.3369C89.7393 23.3369 90.2593 23.0289 90.5633 22.4129H92.0393C91.8393 23.0209 91.4753 23.5209 90.9473 23.9129C90.4273 24.2969 89.7793 24.4889 89.0033 24.4889C88.3713 24.4889 87.8033 24.3489 87.2993 24.0689C86.8033 23.7809 86.4113 23.3809 86.1233 22.8689C85.8433 22.3489 85.7033 21.7489 85.7033 21.0689C85.7033 20.3889 85.8393 19.7929 86.1113 19.2809C86.3913 18.7609 86.7793 18.3609 87.2753 18.0809C87.7793 17.8009 88.3553 17.6609 89.0033 17.6609C89.6273 17.6609 90.1833 17.7969 90.6713 18.0689C91.1593 18.3409 91.5393 18.7249 91.8113 19.2209C92.0833 19.7089 92.2193 20.2729 92.2193 20.9129ZM90.7913 20.4809C90.7833 19.9769 90.6033 19.5729 90.2513 19.2689C89.8993 18.9649 89.4633 18.8129 88.9433 18.8129C88.4713 18.8129 88.0673 18.9649 87.7313 19.2689C87.3953 19.5649 87.1953 19.9689 87.1313 20.4809H90.7913ZM102.446 17.7689L100.394 24.3809H98.9535L97.6215 19.4969L96.2895 24.3809H94.8495L92.7855 17.7689H94.1775L95.5575 23.0849L96.9615 17.7689H98.3895L99.7335 23.0609L101.102 17.7689H102.446ZM112.765 16.0409L110.005 21.3569V24.3809H108.637V21.3569L105.865 16.0409H107.389L109.321 20.1329L111.253 16.0409H112.765ZM116.719 24.4889C116.095 24.4889 115.531 24.3489 115.027 24.0689C114.523 23.7809 114.127 23.3809 113.839 22.8689C113.551 22.3489 113.407 21.7489 113.407 21.0689C113.407 20.3969 113.555 19.8009 113.851 19.2809C114.147 18.7609 114.551 18.3609 115.063 18.0809C115.575 17.8009 116.147 17.6609 116.779 17.6609C117.411 17.6609 117.983 17.8009 118.495 18.0809C119.007 18.3609 119.411 18.7609 119.707 19.2809C120.003 19.8009 120.151 20.3969 120.151 21.0689C120.151 21.7409 119.999 22.3369 119.695 22.8569C119.391 23.3769 118.975 23.7809 118.447 24.0689C117.927 24.3489 117.351 24.4889 116.719 24.4889ZM116.719 23.3009C117.071 23.3009 117.399 23.2169 117.703 23.0489C118.015 22.8809 118.267 22.6289 118.459 22.2929C118.651 21.9569 118.747 21.5489 118.747 21.0689C118.747 20.5889 118.655 20.1849 118.471 19.8569C118.287 19.5209 118.043 19.2689 117.739 19.1009C117.435 18.9329 117.107 18.8489 116.755 18.8489C116.403 18.8489 116.075 18.9329 115.771 19.1009C115.475 19.2689 115.239 19.5209 115.063 19.8569C114.887 20.1849 114.799 20.5889 114.799 21.0689C114.799 21.7809 114.979 22.3329 115.339 22.7249C115.707 23.1089 116.167 23.3009 116.719 23.3009ZM122.871 18.7289C123.071 18.3929 123.335 18.1329 123.663 17.9489C123.999 17.7569 124.395 17.6609 124.851 17.6609V19.0769H124.503C123.967 19.0769 123.559 19.2129 123.279 19.4849C123.007 19.7569 122.871 20.2289 122.871 20.9009V24.3809H121.503V17.7689H122.871V18.7289ZM128.724 21.0809L131.772 24.3809H129.924L127.476 21.5369V24.3809H126.108V15.5009H127.476V20.6609L129.876 17.7689H131.772L128.724 21.0809ZM134.253 22.7369L132.801 26.0489H131.913L132.765 22.7369H134.253ZM145.418 24.3809H144.05L139.934 18.1529V24.3809H138.566V16.0289H139.934L144.05 22.2449V16.0289H145.418V24.3809ZM153.394 16.0409L150.634 21.3569V24.3809H149.266V21.3569L146.494 16.0409H148.018L149.95 20.1329L151.882 16.0409H153.394Z" fill="#606060"/>
<circle cx="69.718" cy="44.8887" r="3.06348" stroke="#EB5757" stroke-width="1.53174"/>
<path d="M78.8788 47.7847H81.6988V48.8887H77.5108V40.5487H78.8788V47.7847ZM85.7109 48.9967C85.0869 48.9967 84.5229 48.8567 84.0189 48.5767C83.5149 48.2887 83.1189 47.8887 82.8309 47.3767C82.5429 46.8567 82.3989 46.2567 82.3989 45.5767C82.3989 44.9047 82.5469 44.3087 82.8429 43.7887C83.1389 43.2687 83.5429 42.8687 84.0549 42.5887C84.5669 42.3087 85.1389 42.1687 85.7709 42.1687C86.4029 42.1687 86.9749 42.3087 87.4869 42.5887C87.9989 42.8687 88.4029 43.2687 88.6989 43.7887C88.9949 44.3087 89.1429 44.9047 89.1429 45.5767C89.1429 46.2487 88.9909 46.8447 88.6869 47.3647C88.3829 47.8847 87.9669 48.2887 87.4389 48.5767C86.9189 48.8567 86.3429 48.9967 85.7109 48.9967ZM85.7109 47.8087C86.0629 47.8087 86.3909 47.7247 86.6949 47.5567C87.0069 47.3887 87.2589 47.1367 87.4509 46.8007C87.6429 46.4647 87.7389 46.0567 87.7389 45.5767C87.7389 45.0967 87.6469 44.6927 87.4629 44.3647C87.2789 44.0287 87.0349 43.7767 86.7309 43.6087C86.4269 43.4407 86.0989 43.3567 85.7469 43.3567C85.3949 43.3567 85.0669 43.4407 84.7629 43.6087C84.4669 43.7767 84.2309 44.0287 84.0549 44.3647C83.8789 44.6927 83.7909 45.0967 83.7909 45.5767C83.7909 46.2887 83.9709 46.8407 84.3309 47.2327C84.6989 47.6167 85.1589 47.8087 85.7109 47.8087ZM92.8952 48.9967C92.3752 48.9967 91.9072 48.9047 91.4912 48.7207C91.0832 48.5287 90.7592 48.2727 90.5192 47.9527C90.2792 47.6247 90.1512 47.2607 90.1352 46.8607H91.5512C91.5752 47.1407 91.7072 47.3767 91.9472 47.5687C92.1952 47.7527 92.5032 47.8447 92.8712 47.8447C93.2552 47.8447 93.5512 47.7727 93.7592 47.6287C93.9752 47.4767 94.0832 47.2847 94.0832 47.0527C94.0832 46.8047 93.9632 46.6207 93.7232 46.5007C93.4912 46.3807 93.1192 46.2487 92.6072 46.1047C92.1112 45.9687 91.7072 45.8367 91.3952 45.7087C91.0832 45.5807 90.8112 45.3847 90.5792 45.1207C90.3552 44.8567 90.2432 44.5087 90.2432 44.0767C90.2432 43.7247 90.3472 43.4047 90.5552 43.1167C90.7632 42.8207 91.0592 42.5887 91.4432 42.4207C91.8352 42.2527 92.2832 42.1687 92.7872 42.1687C93.5392 42.1687 94.1432 42.3607 94.5992 42.7447C95.0632 43.1207 95.3112 43.6367 95.3432 44.2927H93.9752C93.9512 43.9967 93.8312 43.7607 93.6152 43.5847C93.3992 43.4087 93.1072 43.3207 92.7392 43.3207C92.3792 43.3207 92.1032 43.3887 91.9112 43.5247C91.7192 43.6607 91.6232 43.8407 91.6232 44.0647C91.6232 44.2407 91.6872 44.3887 91.8152 44.5087C91.9432 44.6287 92.0992 44.7247 92.2832 44.7967C92.4672 44.8607 92.7392 44.9447 93.0992 45.0487C93.5792 45.1767 93.9712 45.3087 94.2752 45.4447C94.5872 45.5727 94.8552 45.7647 95.0792 46.0207C95.3032 46.2767 95.4192 46.6167 95.4272 47.0407C95.4272 47.4167 95.3232 47.7527 95.1152 48.0487C94.9072 48.3447 94.6112 48.5767 94.2272 48.7447C93.8512 48.9127 93.4072 48.9967 92.8952 48.9967ZM101.981 43.9687V45.1207H97.0494V43.9687H101.981ZM108.953 47.1847H105.461L104.861 48.8887H103.433L106.421 40.5367H108.005L110.993 48.8887H109.553L108.953 47.1847ZM108.569 46.0687L107.213 42.1927L105.845 46.0687H108.569ZM115.628 42.1687C116.148 42.1687 116.612 42.2767 117.02 42.4927C117.436 42.7087 117.76 43.0287 117.992 43.4527C118.224 43.8767 118.34 44.3887 118.34 44.9887V48.8887H116.984V45.1927C116.984 44.6007 116.836 44.1487 116.54 43.8367C116.244 43.5167 115.84 43.3567 115.328 43.3567C114.816 43.3567 114.408 43.5167 114.104 43.8367C113.808 44.1487 113.66 44.6007 113.66 45.1927V48.8887H112.292V42.2767H113.66V43.0327C113.884 42.7607 114.168 42.5487 114.512 42.3967C114.864 42.2447 115.236 42.1687 115.628 42.1687ZM122.749 42.1687C123.261 42.1687 123.713 42.2727 124.105 42.4807C124.505 42.6807 124.817 42.9327 125.041 43.2367V42.2767H126.421V48.9967C126.421 49.6047 126.293 50.1447 126.037 50.6167C125.781 51.0967 125.409 51.4727 124.921 51.7447C124.441 52.0167 123.865 52.1527 123.193 52.1527C122.297 52.1527 121.553 51.9407 120.961 51.5167C120.369 51.1007 120.033 50.5327 119.953 49.8127H121.309C121.413 50.1567 121.633 50.4327 121.969 50.6407C122.313 50.8567 122.721 50.9647 123.193 50.9647C123.745 50.9647 124.189 50.7967 124.525 50.4607C124.869 50.1247 125.041 49.6367 125.041 48.9967V47.8927C124.809 48.2047 124.493 48.4687 124.093 48.6847C123.701 48.8927 123.253 48.9967 122.749 48.9967C122.173 48.9967 121.645 48.8527 121.165 48.5647C120.693 48.2687 120.317 47.8607 120.037 47.3407C119.765 46.8127 119.629 46.2167 119.629 45.5527C119.629 44.8887 119.765 44.3007 120.037 43.7887C120.317 43.2767 120.693 42.8807 121.165 42.6007C121.645 42.3127 122.173 42.1687 122.749 42.1687ZM125.041 45.5767C125.041 45.1207 124.945 44.7247 124.753 44.3887C124.569 44.0527 124.325 43.7967 124.021 43.6207C123.717 43.4447 123.389 43.3567 123.037 43.3567C122.685 43.3567 122.357 43.4447 122.053 43.6207C121.749 43.7887 121.501 44.0407 121.309 44.3767C121.125 44.7047 121.033 45.0967 121.033 45.5527C121.033 46.0087 121.125 46.4087 121.309 46.7527C121.501 47.0967 121.749 47.3607 122.053 47.5447C122.365 47.7207 122.693 47.8087 123.037 47.8087C123.389 47.8087 123.717 47.7207 124.021 47.5447C124.325 47.3687 124.569 47.1127 124.753 46.7767C124.945 46.4327 125.041 46.0327 125.041 45.5767ZM134.278 45.4207C134.278 45.6687 134.262 45.8927 134.23 46.0927H129.178C129.218 46.6207 129.414 47.0447 129.766 47.3647C130.118 47.6847 130.55 47.8447 131.062 47.8447C131.798 47.8447 132.318 47.5367 132.622 46.9207H134.098C133.898 47.5287 133.534 48.0287 133.006 48.4207C132.486 48.8047 131.838 48.9967 131.062 48.9967C130.43 48.9967 129.862 48.8567 129.358 48.5767C128.862 48.2887 128.47 47.8887 128.182 47.3767C127.902 46.8567 127.762 46.2567 127.762 45.5767C127.762 44.8967 127.898 44.3007 128.17 43.7887C128.45 43.2687 128.838 42.8687 129.334 42.5887C129.838 42.3087 130.414 42.1687 131.062 42.1687C131.686 42.1687 132.242 42.3047 132.73 42.5767C133.218 42.8487 133.598 43.2327 133.87 43.7287C134.142 44.2167 134.278 44.7807 134.278 45.4207ZM132.85 44.9887C132.842 44.4847 132.662 44.0807 132.31 43.7767C131.958 43.4727 131.522 43.3207 131.002 43.3207C130.53 43.3207 130.126 43.4727 129.79 43.7767C129.454 44.0727 129.254 44.4767 129.19 44.9887H132.85ZM136.992 40.0087V48.8887H135.624V40.0087H136.992ZM144.848 45.4207C144.848 45.6687 144.832 45.8927 144.8 46.0927H139.748C139.788 46.6207 139.984 47.0447 140.336 47.3647C140.688 47.6847 141.12 47.8447 141.632 47.8447C142.368 47.8447 142.888 47.5367 143.192 46.9207H144.668C144.468 47.5287 144.104 48.0287 143.576 48.4207C143.056 48.8047 142.408 48.9967 141.632 48.9967C141 48.9967 140.432 48.8567 139.928 48.5767C139.432 48.2887 139.04 47.8887 138.752 47.3767C138.472 46.8567 138.332 46.2567 138.332 45.5767C138.332 44.8967 138.468 44.3007 138.74 43.7887C139.02 43.2687 139.408 42.8687 139.904 42.5887C140.408 42.3087 140.984 42.1687 141.632 42.1687C142.256 42.1687 142.812 42.3047 143.3 42.5767C143.788 42.8487 144.168 43.2327 144.44 43.7287C144.712 44.2167 144.848 44.7807 144.848 45.4207ZM143.42 44.9887C143.412 44.4847 143.232 44.0807 142.88 43.7767C142.528 43.4727 142.092 43.3207 141.572 43.3207C141.1 43.3207 140.696 43.4727 140.36 43.7767C140.024 44.0727 139.824 44.4767 139.76 44.9887H143.42ZM148.594 48.9967C148.074 48.9967 147.606 48.9047 147.19 48.7207C146.782 48.5287 146.458 48.2727 146.218 47.9527C145.978 47.6247 145.85 47.2607 145.834 46.8607H147.25C147.274 47.1407 147.406 47.3767 147.646 47.5687C147.894 47.7527 148.202 47.8447 148.57 47.8447C148.954 47.8447 149.25 47.7727 149.458 47.6287C149.674 47.4767 149.782 47.2847 149.782 47.0527C149.782 46.8047 149.662 46.6207 149.422 46.5007C149.19 46.3807 148.818 46.2487 148.306 46.1047C147.81 45.9687 147.406 45.8367 147.094 45.7087C146.782 45.5807 146.51 45.3847 146.278 45.1207C146.054 44.8567 145.942 44.5087 145.942 44.0767C145.942 43.7247 146.046 43.4047 146.254 43.1167C146.462 42.8207 146.758 42.5887 147.142 42.4207C147.534 42.2527 147.982 42.1687 148.486 42.1687C149.238 42.1687 149.842 42.3607 150.298 42.7447C150.762 43.1207 151.01 43.6367 151.042 44.2927H149.674C149.65 43.9967 149.53 43.7607 149.314 43.5847C149.098 43.4087 148.806 43.3207 148.438 43.3207C148.078 43.3207 147.802 43.3887 147.61 43.5247C147.418 43.6607 147.322 43.8407 147.322 44.0647C147.322 44.2407 147.386 44.3887 147.514 44.5087C147.642 44.6287 147.798 44.7247 147.982 44.7967C148.166 44.8607 148.438 44.9447 148.798 45.0487C149.278 45.1767 149.67 45.3087 149.974 45.4447C150.286 45.5727 150.554 45.7647 150.778 46.0207C151.002 46.2767 151.118 46.6167 151.126 47.0407C151.126 47.4167 151.022 47.7527 150.814 48.0487C150.606 48.3447 150.31 48.5767 149.926 48.7447C149.55 48.9127 149.106 48.9967 148.594 48.9967ZM154.105 47.2447L152.653 50.5567H151.765L152.617 47.2447H154.105ZM157.961 44.7007C157.961 43.8847 158.149 43.1527 158.525 42.5047C158.909 41.8567 159.425 41.3527 160.073 40.9927C160.729 40.6247 161.445 40.4407 162.221 40.4407C163.109 40.4407 163.897 40.6607 164.585 41.1007C165.281 41.5327 165.785 42.1487 166.097 42.9487H164.453C164.237 42.5087 163.937 42.1807 163.553 41.9647C163.169 41.7487 162.725 41.6407 162.221 41.6407C161.669 41.6407 161.177 41.7647 160.745 42.0127C160.313 42.2607 159.973 42.6167 159.725 43.0807C159.485 43.5447 159.365 44.0847 159.365 44.7007C159.365 45.3167 159.485 45.8567 159.725 46.3207C159.973 46.7847 160.313 47.1447 160.745 47.4007C161.177 47.6487 161.669 47.7727 162.221 47.7727C162.725 47.7727 163.169 47.6647 163.553 47.4487C163.937 47.2327 164.237 46.9047 164.453 46.4647H166.097C165.785 47.2647 165.281 47.8807 164.585 48.3127C163.897 48.7447 163.109 48.9607 162.221 48.9607C161.437 48.9607 160.721 48.7807 160.073 48.4207C159.425 48.0527 158.909 47.5447 158.525 46.8967C158.149 46.2487 157.961 45.5167 157.961 44.7007ZM172.726 47.1847H169.234L168.634 48.8887H167.206L170.194 40.5367H171.778L174.766 48.8887H173.326L172.726 47.1847ZM172.342 46.0687L170.986 42.1927L169.618 46.0687H172.342Z" fill="#606060"/>
<path d="M202.528 47.3857C202.528 47.7857 202.428 48.1617 202.228 48.5137C202.036 48.8657 201.748 49.1617 201.364 49.4017C200.988 49.6417 200.54 49.7857 200.02 49.8337V50.8057H199.24V49.8337C198.488 49.7617 197.88 49.5257 197.416 49.1257C196.952 48.7257 196.72 48.1977 196.72 47.5417H198.184C198.208 47.8537 198.308 48.1137 198.484 48.3217C198.66 48.5217 198.912 48.6497 199.24 48.7057V46.0657C198.704 45.9297 198.268 45.7937 197.932 45.6577C197.596 45.5137 197.308 45.2897 197.068 44.9857C196.836 44.6817 196.72 44.2657 196.72 43.7377C196.72 43.0737 196.952 42.5257 197.416 42.0937C197.88 41.6537 198.488 41.3977 199.24 41.3257V40.3537H200.02V41.3257C200.724 41.3897 201.288 41.6137 201.712 41.9977C202.144 42.3737 202.388 42.8937 202.444 43.5577H200.98C200.956 43.3097 200.86 43.0897 200.692 42.8977C200.524 42.6977 200.3 42.5617 200.02 42.4897V45.0817C200.556 45.2097 200.992 45.3457 201.328 45.4897C201.664 45.6257 201.948 45.8457 202.18 46.1497C202.412 46.4457 202.528 46.8577 202.528 47.3857ZM198.112 43.6657C198.112 43.9937 198.208 44.2497 198.4 44.4337C198.6 44.6177 198.88 44.7657 199.24 44.8777V42.4537C198.896 42.4937 198.62 42.6177 198.412 42.8257C198.212 43.0337 198.112 43.3137 198.112 43.6657ZM200.02 48.7057C200.372 48.6497 200.648 48.5097 200.848 48.2857C201.048 48.0537 201.148 47.7777 201.148 47.4577C201.148 47.1377 201.048 46.8897 200.848 46.7137C200.656 46.5297 200.38 46.3817 200.02 46.2697V48.7057ZM204.345 42.2617V41.0137H206.841V49.7617H205.461V42.2617H204.345ZM213.313 45.1897C212.481 44.7737 212.065 44.1177 212.065 43.2217C212.065 42.7897 212.173 42.3937 212.389 42.0337C212.605 41.6737 212.929 41.3897 213.361 41.1817C213.793 40.9657 214.321 40.8577 214.945 40.8577C215.561 40.8577 216.085 40.9657 216.517 41.1817C216.957 41.3897 217.285 41.6737 217.501 42.0337C217.717 42.3937 217.825 42.7897 217.825 43.2217C217.825 43.6697 217.709 44.0657 217.477 44.4097C217.253 44.7457 216.953 45.0057 216.577 45.1897C217.033 45.3577 217.393 45.6337 217.657 46.0177C217.921 46.3937 218.053 46.8377 218.053 47.3497C218.053 47.8697 217.921 48.3297 217.657 48.7297C217.393 49.1297 217.025 49.4377 216.553 49.6537C216.081 49.8697 215.545 49.9777 214.945 49.9777C214.345 49.9777 213.809 49.8697 213.337 49.6537C212.873 49.4377 212.509 49.1297 212.245 48.7297C211.981 48.3297 211.849 47.8697 211.849 47.3497C211.849 46.8297 211.981 46.3817 212.245 46.0057C212.509 45.6297 212.865 45.3577 213.313 45.1897ZM216.517 43.3897C216.517 42.9417 216.377 42.5977 216.097 42.3577C215.817 42.1177 215.433 41.9977 214.945 41.9977C214.465 41.9977 214.085 42.1177 213.805 42.3577C213.525 42.5977 213.385 42.9457 213.385 43.4017C213.385 43.8017 213.529 44.1297 213.817 44.3857C214.113 44.6337 214.489 44.7577 214.945 44.7577C215.401 44.7577 215.777 44.6297 216.073 44.3737C216.369 44.1177 216.517 43.7897 216.517 43.3897ZM214.945 45.7897C214.417 45.7897 213.985 45.9217 213.649 46.1857C213.321 46.4417 213.157 46.8137 213.157 47.3017C213.157 47.7577 213.317 48.1297 213.637 48.4177C213.957 48.6977 214.393 48.8377 214.945 48.8377C215.489 48.8377 215.917 48.6937 216.229 48.4057C216.549 48.1177 216.709 47.7497 216.709 47.3017C216.709 46.8217 216.545 46.4497 216.217 46.1857C215.897 45.9217 215.473 45.7897 214.945 45.7897ZM219.31 42.2617V41.0137H221.806V49.7617H220.426V42.2617H219.31ZM229.229 42.0697L225.893 49.7617H224.513L227.885 42.2137H223.445V41.0497H229.229V42.0697ZM231.132 49.8457C230.884 49.8457 230.676 49.7617 230.508 49.5937C230.34 49.4257 230.256 49.2177 230.256 48.9697C230.256 48.7217 230.34 48.5137 230.508 48.3457C230.676 48.1777 230.884 48.0937 231.132 48.0937C231.372 48.0937 231.576 48.1777 231.744 48.3457C231.912 48.5137 231.996 48.7217 231.996 48.9697C231.996 49.2177 231.912 49.4257 231.744 49.5937C231.576 49.7617 231.372 49.8457 231.132 49.8457ZM238.838 42.0697L235.502 49.7617H234.122L237.494 42.2137H233.054V41.0497H238.838V42.0697ZM244.713 43.0417C244.625 42.6737 244.465 42.3977 244.233 42.2137C244.001 42.0297 243.677 41.9377 243.261 41.9377C242.629 41.9377 242.157 42.1817 241.845 42.6697C241.533 43.1497 241.369 43.9497 241.353 45.0697C241.561 44.7177 241.865 44.4457 242.265 44.2537C242.665 44.0617 243.097 43.9657 243.561 43.9657C244.089 43.9657 244.553 44.0817 244.953 44.3137C245.361 44.5377 245.677 44.8657 245.901 45.2977C246.133 45.7297 246.249 46.2457 246.249 46.8457C246.249 47.4057 246.137 47.9057 245.913 48.3457C245.697 48.7857 245.373 49.1337 244.941 49.3897C244.509 49.6377 243.989 49.7617 243.381 49.7617C242.557 49.7617 241.909 49.5817 241.437 49.2217C240.973 48.8537 240.645 48.3377 240.453 47.6737C240.269 47.0097 240.177 46.1817 240.177 45.1897C240.177 42.2617 241.209 40.7977 243.273 40.7977C244.073 40.7977 244.701 41.0137 245.157 41.4457C245.621 41.8777 245.893 42.4097 245.973 43.0417H244.713ZM243.261 45.1177C242.773 45.1177 242.357 45.2657 242.013 45.5617C241.677 45.8497 241.509 46.2697 241.509 46.8217C241.509 47.3737 241.665 47.8137 241.977 48.1417C242.297 48.4617 242.741 48.6217 243.309 48.6217C243.813 48.6217 244.209 48.4657 244.497 48.1537C244.793 47.8417 244.941 47.4257 244.941 46.9057C244.941 46.3617 244.797 45.9297 244.509 45.6097C244.229 45.2817 243.813 45.1177 243.261 45.1177Z" fill="#333333"/>
<path d="M188.476 20.3304C189.244 19.6664 189.848 19.1224 190.288 18.6984C190.736 18.2664 191.108 17.8184 191.404 17.3544C191.7 16.8904 191.848 16.4264 191.848 15.9624C191.848 15.4824 191.732 15.1064 191.5 14.8344C191.276 14.5624 190.92 14.4264 190.432 14.4264C189.96 14.4264 189.592 14.5784 189.328 14.8824C189.072 15.1784 188.936 15.5784 188.92 16.0824H187.6C187.624 15.1704 187.896 14.4744 188.416 13.9944C188.944 13.5064 189.612 13.2624 190.42 13.2624C191.292 13.2624 191.972 13.5024 192.46 13.9824C192.956 14.4624 193.204 15.1024 193.204 15.9024C193.204 16.4784 193.056 17.0344 192.76 17.5704C192.472 18.0984 192.124 18.5744 191.716 18.9984C191.316 19.4144 190.804 19.8984 190.18 20.4504L189.64 20.9304H193.444V22.0704H187.612V21.0744L188.476 20.3304ZM203.307 14.4984L199.971 22.1904H198.591L201.963 14.6424H197.523V13.4784H203.307V14.4984ZM206.182 19.8144C206.262 20.2144 206.434 20.5184 206.698 20.7264C206.962 20.9344 207.318 21.0384 207.766 21.0384C208.334 21.0384 208.75 20.8144 209.014 20.3664C209.278 19.9184 209.41 19.1544 209.41 18.0744C209.218 18.3464 208.946 18.5584 208.594 18.7104C208.25 18.8544 207.874 18.9264 207.466 18.9264C206.946 18.9264 206.474 18.8224 206.05 18.6144C205.626 18.3984 205.29 18.0824 205.042 17.6664C204.802 17.2424 204.682 16.7304 204.682 16.1304C204.682 15.2504 204.938 14.5504 205.45 14.0304C205.97 13.5024 206.682 13.2384 207.586 13.2384C208.674 13.2384 209.446 13.6024 209.902 14.3304C210.366 15.0504 210.598 16.1584 210.598 17.6544C210.598 18.6864 210.51 19.5304 210.334 20.1864C210.166 20.8424 209.87 21.3384 209.446 21.6744C209.022 22.0104 208.434 22.1784 207.682 22.1784C206.826 22.1784 206.166 21.9544 205.702 21.5064C205.238 21.0584 204.978 20.4944 204.922 19.8144H206.182ZM207.706 17.7744C208.186 17.7744 208.562 17.6264 208.834 17.3304C209.114 17.0264 209.254 16.6264 209.254 16.1304C209.254 15.5784 209.106 15.1504 208.81 14.8464C208.522 14.5344 208.126 14.3784 207.622 14.3784C207.118 14.3784 206.718 14.5384 206.422 14.8584C206.134 15.1704 205.99 15.5824 205.99 16.0944C205.99 16.5824 206.13 16.9864 206.41 17.3064C206.698 17.6184 207.13 17.7744 207.706 17.7744ZM212.071 15.6024C212.119 14.8584 212.403 14.2784 212.923 13.8624C213.451 13.4464 214.123 13.2384 214.939 13.2384C215.499 13.2384 215.983 13.3384 216.391 13.5384C216.799 13.7384 217.107 14.0104 217.315 14.3544C217.523 14.6984 217.627 15.0864 217.627 15.5184C217.627 16.0144 217.495 16.4384 217.231 16.7904C216.967 17.1424 216.651 17.3784 216.283 17.4984V17.5464C216.755 17.6904 217.123 17.9544 217.387 18.3384C217.651 18.7144 217.783 19.1984 217.783 19.7904C217.783 20.2624 217.675 20.6824 217.459 21.0504C217.243 21.4184 216.923 21.7104 216.499 21.9264C216.075 22.1344 215.567 22.2384 214.975 22.2384C214.111 22.2384 213.399 22.0184 212.839 21.5784C212.287 21.1304 211.991 20.4904 211.951 19.6584H213.271C213.303 20.0824 213.467 20.4304 213.763 20.7024C214.059 20.9664 214.459 21.0984 214.963 21.0984C215.451 21.0984 215.827 20.9664 216.091 20.7024C216.355 20.4304 216.487 20.0824 216.487 19.6584C216.487 19.0984 216.307 18.7024 215.947 18.4704C215.595 18.2304 215.051 18.1104 214.315 18.1104H214.003V16.9824H214.327C214.975 16.9744 215.467 16.8664 215.803 16.6584C216.147 16.4504 216.319 16.1224 216.319 15.6744C216.319 15.2904 216.195 14.9864 215.947 14.7624C215.699 14.5304 215.347 14.4144 214.891 14.4144C214.443 14.4144 214.095 14.5304 213.847 14.7624C213.599 14.9864 213.451 15.2664 213.403 15.6024H212.071ZM220.9 20.5464L219.448 23.8584H218.56L219.412 20.5464H220.9ZM227.459 14.4984L224.123 22.1904H222.743L226.115 14.6424H221.675V13.4784H227.459V14.4984ZM239.931 15.4704C240.451 15.4704 240.915 15.5784 241.323 15.7944C241.739 16.0104 242.063 16.3304 242.295 16.7544C242.535 17.1784 242.655 17.6904 242.655 18.2904V22.1904H241.299V18.4944C241.299 17.9024 241.151 17.4504 240.855 17.1384C240.559 16.8184 240.155 16.6584 239.643 16.6584C239.131 16.6584 238.723 16.8184 238.419 17.1384C238.123 17.4504 237.975 17.9024 237.975 18.4944V22.1904H236.619V18.4944C236.619 17.9024 236.471 17.4504 236.175 17.1384C235.879 16.8184 235.475 16.6584 234.963 16.6584C234.451 16.6584 234.043 16.8184 233.739 17.1384C233.443 17.4504 233.295 17.9024 233.295 18.4944V22.1904H231.927V15.5784H233.295V16.3344C233.519 16.0624 233.803 15.8504 234.147 15.6984C234.491 15.5464 234.859 15.4704 235.251 15.4704C235.779 15.4704 236.251 15.5824 236.667 15.8064C237.083 16.0304 237.403 16.3544 237.627 16.7784C237.827 16.3784 238.139 16.0624 238.563 15.8304C238.987 15.5904 239.443 15.4704 239.931 15.4704ZM245.092 14.7024C244.844 14.7024 244.636 14.6184 244.468 14.4504C244.3 14.2824 244.216 14.0744 244.216 13.8264C244.216 13.5784 244.3 13.3704 244.468 13.2024C244.636 13.0344 244.844 12.9504 245.092 12.9504C245.332 12.9504 245.536 13.0344 245.704 13.2024C245.872 13.3704 245.956 13.5784 245.956 13.8264C245.956 14.0744 245.872 14.2824 245.704 14.4504C245.536 14.6184 245.332 14.7024 245.092 14.7024ZM245.764 15.5784V22.1904H244.396V15.5784H245.764Z" fill="#333333"/>
</g>
<defs>
<filter id="filter0_d_0_4991" x="0.664949" y="0.904271" width="265.11" height="73.7492" filterUnits="userSpaceOnUse" color-interpolation-filters="sRGB">
<feFlood flood-opacity="0" result="BackgroundImageFix"/>
<feColorMatrix in="SourceAlpha" type="matrix" values="0 0 0 0 0 0 0 0 0 0 0 0 0 0 0 0 0 0 127 0" result="hardAlpha"/>
<feOffset dy="5.23932"/>
<feGaussianBlur stdDeviation="3.66753"/>
<feComposite in2="hardAlpha" operator="out"/>
<feColorMatrix type="matrix" values="0 0 0 0 0.483333 0 0 0 0 0.483333 0 0 0 0 0.483333 0 0 0 0.1 0"/>
<feBlend mode="normal" in2="BackgroundImageFix" result="effect1_dropShadow_0_4991"/>
<feBlend mode="normal" in="SourceGraphic" in2="effect1_dropShadow_0_4991" result="shape"/>
</filter>
<linearGradient id="paint0_linear_0_4991" x1="69.718" y1="16.5515" x2="69.718" y2="24.2102" gradientUnits="userSpaceOnUse">
<stop offset="0.0885417" stop-color="#25BEA9"/>
<stop offset="0.916667" stop-color="#00A992"/>
</linearGradient>
</defs>
</svg>
