<svg width="266" height="75" viewBox="0 0 266 75" fill="none" xmlns="http://www.w3.org/2000/svg">
<g filter="url(#filter0_d_0_5006)">
<path d="M8 8C8 5.23858 10.2386 3 13 3H253.44C256.201 3 258.44 5.23858 258.44 8V57.0791C258.44 59.8406 256.201 62.0791 253.44 62.0791H13C10.2386 62.0791 8 59.8406 8 57.0791V8Z" fill="white"/>
<path d="M20.088 17.8439C20.1347 17.2306 20.3714 16.7506 20.798 16.4039C21.2247 16.0572 21.778 15.8839 22.458 15.8839C22.9114 15.8839 23.3014 15.9672 23.628 16.1339C23.9614 16.2939 24.2114 16.5139 24.378 16.7939C24.5514 17.0739 24.638 17.3906 24.638 17.7439C24.638 18.1572 24.518 18.5139 24.278 18.8139C24.0447 19.1139 23.738 19.3072 23.358 19.3939V19.4439C23.7914 19.5506 24.1347 19.7606 24.388 20.0739C24.6414 20.3872 24.768 20.7972 24.768 21.3039C24.768 21.6839 24.6814 22.0272 24.508 22.3339C24.3347 22.6339 24.0747 22.8706 23.728 23.0439C23.3814 23.2172 22.9647 23.3039 22.478 23.3039C21.7714 23.3039 21.1914 23.1206 20.738 22.7539C20.2847 22.3806 20.0314 21.8539 19.978 21.1739H20.858C20.9047 21.5739 21.068 21.9006 21.348 22.1539C21.628 22.4072 22.0014 22.5339 22.468 22.5339C22.9347 22.5339 23.288 22.4139 23.528 22.1739C23.7747 21.9272 23.898 21.6106 23.898 21.2239C23.898 20.7239 23.7314 20.3639 23.398 20.1439C23.0647 19.9239 22.5614 19.8139 21.888 19.8139H21.658V19.0539H21.898C22.5114 19.0472 22.9747 18.9472 23.288 18.7539C23.6014 18.5539 23.758 18.2472 23.758 17.8339C23.758 17.4806 23.6414 17.1972 23.408 16.9839C23.1814 16.7706 22.8547 16.6639 22.428 16.6639C22.0147 16.6639 21.6814 16.7706 21.428 16.9839C21.1747 17.1972 21.0247 17.4839 20.978 17.8439H20.088ZM26.4367 23.3139C26.2634 23.3139 26.1167 23.2539 25.9967 23.1339C25.8767 23.0139 25.8167 22.8672 25.8167 22.6939C25.8167 22.5206 25.8767 22.3739 25.9967 22.2539C26.1167 22.1339 26.2634 22.0739 26.4367 22.0739C26.6034 22.0739 26.7434 22.1339 26.8567 22.2539C26.9767 22.3739 27.0367 22.5206 27.0367 22.6939C27.0367 22.8672 26.9767 23.0139 26.8567 23.1339C26.7434 23.2539 26.6034 23.3139 26.4367 23.3139ZM26.4367 19.0339C26.2634 19.0339 26.1167 18.9739 25.9967 18.8539C25.8767 18.7339 25.8167 18.5872 25.8167 18.4139C25.8167 18.2406 25.8767 18.0939 25.9967 17.9739C26.1167 17.8539 26.2634 17.7939 26.4367 17.7939C26.6034 17.7939 26.7434 17.8539 26.8567 17.9739C26.9767 18.0939 27.0367 18.2406 27.0367 18.4139C27.0367 18.5872 26.9767 18.7339 26.8567 18.8539C26.7434 18.9739 26.6034 19.0339 26.4367 19.0339ZM28.1256 19.5639C28.1256 18.4172 28.3123 17.5239 28.6856 16.8839C29.0589 16.2372 29.7123 15.9139 30.6456 15.9139C31.5723 15.9139 32.2223 16.2372 32.5956 16.8839C32.9689 17.5239 33.1556 18.4172 33.1556 19.5639C33.1556 20.7306 32.9689 21.6372 32.5956 22.2839C32.2223 22.9306 31.5723 23.2539 30.6456 23.2539C29.7123 23.2539 29.0589 22.9306 28.6856 22.2839C28.3123 21.6372 28.1256 20.7306 28.1256 19.5639ZM32.2556 19.5639C32.2556 18.9839 32.2156 18.4939 32.1356 18.0939C32.0623 17.6872 31.9056 17.3606 31.6656 17.1139C31.4323 16.8672 31.0923 16.7439 30.6456 16.7439C30.1923 16.7439 29.8456 16.8672 29.6056 17.1139C29.3723 17.3606 29.2156 17.6872 29.1356 18.0939C29.0623 18.4939 29.0256 18.9839 29.0256 19.5639C29.0256 20.1639 29.0623 20.6672 29.1356 21.0739C29.2156 21.4806 29.3723 21.8072 29.6056 22.0539C29.8456 22.3006 30.1923 22.4239 30.6456 22.4239C31.0923 22.4239 31.4323 22.3006 31.6656 22.0539C31.9056 21.8072 32.0623 21.4806 32.1356 21.0739C32.2156 20.6672 32.2556 20.1639 32.2556 19.5639ZM34.4049 19.5639C34.4049 18.4172 34.5916 17.5239 34.9649 16.8839C35.3382 16.2372 35.9916 15.9139 36.9249 15.9139C37.8516 15.9139 38.5016 16.2372 38.8749 16.8839C39.2482 17.5239 39.4349 18.4172 39.4349 19.5639C39.4349 20.7306 39.2482 21.6372 38.8749 22.2839C38.5016 22.9306 37.8516 23.2539 36.9249 23.2539C35.9916 23.2539 35.3382 22.9306 34.9649 22.2839C34.5916 21.6372 34.4049 20.7306 34.4049 19.5639ZM38.5349 19.5639C38.5349 18.9839 38.4949 18.4939 38.4149 18.0939C38.3416 17.6872 38.1849 17.3606 37.9449 17.1139C37.7116 16.8672 37.3716 16.7439 36.9249 16.7439C36.4716 16.7439 36.1249 16.8672 35.8849 17.1139C35.6516 17.3606 35.4949 17.6872 35.4149 18.0939C35.3416 18.4939 35.3049 18.9839 35.3049 19.5639C35.3049 20.1639 35.3416 20.6672 35.4149 21.0739C35.4949 21.4806 35.6516 21.8072 35.8849 22.0539C36.1249 22.3006 36.4716 22.4239 36.9249 22.4239C37.3716 22.4239 37.7116 22.3006 37.9449 22.0539C38.1849 21.8072 38.3416 21.4806 38.4149 21.0739C38.4949 20.6672 38.5349 20.1639 38.5349 19.5639ZM47.6202 21.7039H44.5802L44.0202 23.2539H43.0602L45.5802 16.3239H46.6302L49.1402 23.2539H48.1802L47.6202 21.7039ZM47.3602 20.9639L46.1002 17.4439L44.8402 20.9639H47.3602ZM57.3085 16.3339V23.2539H56.3985V18.0939L54.0985 23.2539H53.4585L51.1485 18.0839V23.2539H50.2385V16.3339H51.2185L53.7785 22.0539L56.3385 16.3339H57.3085Z" fill="#333333"/>
<path d="M17.5704 41.3617V40.5317H19.4504V47.7617H18.5304V41.3617H17.5704ZM21.0136 44.0717C21.0136 42.9251 21.2002 42.0317 21.5736 41.3917C21.9469 40.7451 22.6002 40.4217 23.5336 40.4217C24.4602 40.4217 25.1102 40.7451 25.4836 41.3917C25.8569 42.0317 26.0436 42.9251 26.0436 44.0717C26.0436 45.2384 25.8569 46.1451 25.4836 46.7917C25.1102 47.4384 24.4602 47.7617 23.5336 47.7617C22.6002 47.7617 21.9469 47.4384 21.5736 46.7917C21.2002 46.1451 21.0136 45.2384 21.0136 44.0717ZM25.1436 44.0717C25.1436 43.4917 25.1036 43.0017 25.0236 42.6017C24.9502 42.1951 24.7936 41.8684 24.5536 41.6217C24.3202 41.3751 23.9802 41.2517 23.5336 41.2517C23.0802 41.2517 22.7336 41.3751 22.4936 41.6217C22.2602 41.8684 22.1036 42.1951 22.0236 42.6017C21.9502 43.0017 21.9136 43.4917 21.9136 44.0717C21.9136 44.6717 21.9502 45.1751 22.0236 45.5817C22.1036 45.9884 22.2602 46.3151 22.4936 46.5617C22.7336 46.8084 23.0802 46.9317 23.5336 46.9317C23.9802 46.9317 24.3202 46.8084 24.5536 46.5617C24.7936 46.3151 24.9502 45.9884 25.0236 45.5817C25.1036 45.1751 25.1436 44.6717 25.1436 44.0717ZM27.7329 47.8217C27.5595 47.8217 27.4129 47.7617 27.2929 47.6417C27.1729 47.5217 27.1129 47.3751 27.1129 47.2017C27.1129 47.0284 27.1729 46.8817 27.2929 46.7617C27.4129 46.6417 27.5595 46.5817 27.7329 46.5817C27.8995 46.5817 28.0395 46.6417 28.1529 46.7617C28.2729 46.8817 28.3329 47.0284 28.3329 47.2017C28.3329 47.3751 28.2729 47.5217 28.1529 47.6417C28.0395 47.7617 27.8995 47.8217 27.7329 47.8217ZM27.7329 43.5417C27.5595 43.5417 27.4129 43.4817 27.2929 43.3617C27.1729 43.2417 27.1129 43.0951 27.1129 42.9217C27.1129 42.7484 27.1729 42.6017 27.2929 42.4817C27.4129 42.3617 27.5595 42.3017 27.7329 42.3017C27.8995 42.3017 28.0395 42.3617 28.1529 42.4817C28.2729 42.6017 28.3329 42.7484 28.3329 42.9217C28.3329 43.0951 28.2729 43.2417 28.1529 43.3617C28.0395 43.4817 27.8995 43.5417 27.7329 43.5417ZM29.3118 47.0317C30.1584 46.3517 30.8218 45.7951 31.3018 45.3617C31.7818 44.9217 32.1851 44.4651 32.5118 43.9917C32.8451 43.5117 33.0118 43.0417 33.0118 42.5817C33.0118 42.1484 32.9051 41.8084 32.6918 41.5617C32.4851 41.3084 32.1484 41.1817 31.6818 41.1817C31.2284 41.1817 30.8751 41.3251 30.6218 41.6117C30.3751 41.8917 30.2418 42.2684 30.2218 42.7417H29.3418C29.3684 41.9951 29.5951 41.4184 30.0218 41.0117C30.4484 40.6051 30.9984 40.4017 31.6718 40.4017C32.3584 40.4017 32.9018 40.5917 33.3018 40.9717C33.7084 41.3517 33.9118 41.8751 33.9118 42.5417C33.9118 43.0951 33.7451 43.6351 33.4118 44.1617C33.0851 44.6817 32.7118 45.1417 32.2918 45.5417C31.8718 45.9351 31.3351 46.3951 30.6818 46.9217H34.1218V47.6817H29.3118V47.0317ZM35.1737 44.0717C35.1737 42.9251 35.3604 42.0317 35.7337 41.3917C36.107 40.7451 36.7604 40.4217 37.6937 40.4217C38.6204 40.4217 39.2704 40.7451 39.6437 41.3917C40.017 42.0317 40.2037 42.9251 40.2037 44.0717C40.2037 45.2384 40.017 46.1451 39.6437 46.7917C39.2704 47.4384 38.6204 47.7617 37.6937 47.7617C36.7604 47.7617 36.107 47.4384 35.7337 46.7917C35.3604 46.1451 35.1737 45.2384 35.1737 44.0717ZM39.3037 44.0717C39.3037 43.4917 39.2637 43.0017 39.1837 42.6017C39.1104 42.1951 38.9537 41.8684 38.7137 41.6217C38.4804 41.3751 38.1404 41.2517 37.6937 41.2517C37.2404 41.2517 36.8937 41.3751 36.6537 41.6217C36.4204 41.8684 36.2637 42.1951 36.1837 42.6017C36.1104 43.0017 36.0737 43.4917 36.0737 44.0717C36.0737 44.6717 36.1104 45.1751 36.1837 45.5817C36.2637 45.9884 36.4204 46.3151 36.6537 46.5617C36.8937 46.8084 37.2404 46.9317 37.6937 46.9317C38.1404 46.9317 38.4804 46.8084 38.7137 46.5617C38.9537 46.3151 39.1104 45.9884 39.1837 45.5817C39.2637 45.1751 39.3037 44.6717 39.3037 44.0717ZM48.929 42.8317C48.929 43.4117 48.729 43.8951 48.329 44.2817C47.9357 44.6617 47.3324 44.8517 46.519 44.8517H45.179V47.7617H44.269V40.7917H46.519C47.3057 40.7917 47.9024 40.9817 48.309 41.3617C48.7224 41.7417 48.929 42.2317 48.929 42.8317ZM46.519 44.1017C47.0257 44.1017 47.399 43.9917 47.639 43.7717C47.879 43.5517 47.999 43.2384 47.999 42.8317C47.999 41.9717 47.5057 41.5417 46.519 41.5417H45.179V44.1017H46.519ZM57.13 40.8417V47.7617H56.22V42.6017L53.92 47.7617H53.28L50.97 42.5917V47.7617H50.06V40.8417H51.04L53.6 46.5617L56.16 40.8417H57.13Z" fill="#333333"/>
<rect x="68.783" y="25.7225" width="0.643165" height="13.1425" rx="0.321582" fill="#333333" stroke="#E0E0E0" stroke-width="0.643165"/>
<circle cx="69.718" cy="20.3809" r="3.06348" stroke="url(#paint0_linear_0_5006)" stroke-width="1.53174"/>
<path d="M80.2588 24.4649C79.6988 24.4649 79.1948 24.3689 78.7468 24.1769C78.2988 23.9769 77.9468 23.6969 77.6908 23.3369C77.4348 22.9769 77.3068 22.5569 77.3068 22.0769H78.7708C78.8028 22.4369 78.9428 22.7329 79.1908 22.9649C79.4468 23.1969 79.8028 23.3129 80.2588 23.3129C80.7308 23.3129 81.0988 23.2009 81.3628 22.9769C81.6268 22.7449 81.7588 22.4489 81.7588 22.0889C81.7588 21.8089 81.6748 21.5809 81.5068 21.4049C81.3468 21.2289 81.1428 21.0929 80.8948 20.9969C80.6548 20.9009 80.3188 20.7969 79.8868 20.6849C79.3428 20.5409 78.8988 20.3969 78.5548 20.2529C78.2188 20.1009 77.9308 19.8689 77.6908 19.5569C77.4508 19.2449 77.3308 18.8289 77.3308 18.3089C77.3308 17.8289 77.4508 17.4089 77.6908 17.0489C77.9308 16.6889 78.2668 16.4129 78.6988 16.2209C79.1308 16.0289 79.6308 15.9329 80.1988 15.9329C81.0068 15.9329 81.6668 16.1369 82.1788 16.5449C82.6988 16.9449 82.9868 17.4969 83.0428 18.2009H81.5308C81.5068 17.8969 81.3628 17.6369 81.0988 17.4209C80.8348 17.2049 80.4868 17.0969 80.0548 17.0969C79.6628 17.0969 79.3428 17.1969 79.0948 17.3969C78.8468 17.5969 78.7228 17.8849 78.7228 18.2609C78.7228 18.5169 78.7988 18.7289 78.9508 18.8969C79.1108 19.0569 79.3108 19.1849 79.5508 19.2809C79.7908 19.3769 80.1188 19.4809 80.5348 19.5929C81.0868 19.7449 81.5348 19.8969 81.8788 20.0489C82.2308 20.2009 82.5268 20.4369 82.7668 20.7569C83.0148 21.0689 83.1388 21.4889 83.1388 22.0169C83.1388 22.4409 83.0228 22.8409 82.7908 23.2169C82.5668 23.5929 82.2348 23.8969 81.7948 24.1289C81.3628 24.3529 80.8508 24.4649 80.2588 24.4649ZM84.297 21.0449C84.297 20.3809 84.433 19.7929 84.705 19.2809C84.985 18.7689 85.361 18.3729 85.833 18.0929C86.313 17.8049 86.841 17.6609 87.417 17.6609C87.937 17.6609 88.389 17.7649 88.773 17.9729C89.165 18.1729 89.477 18.4249 89.709 18.7289V17.7689H91.089V24.3809H89.709V23.3969C89.477 23.7089 89.161 23.9689 88.761 24.1769C88.361 24.3849 87.905 24.4889 87.393 24.4889C86.825 24.4889 86.305 24.3449 85.833 24.0569C85.361 23.7609 84.985 23.3529 84.705 22.8329C84.433 22.3049 84.297 21.7089 84.297 21.0449ZM89.709 21.0689C89.709 20.6129 89.613 20.2169 89.421 19.8809C89.237 19.5449 88.993 19.2889 88.689 19.1129C88.385 18.9369 88.057 18.8489 87.705 18.8489C87.353 18.8489 87.025 18.9369 86.721 19.1129C86.417 19.2809 86.169 19.5329 85.977 19.8689C85.793 20.1969 85.701 20.5889 85.701 21.0449C85.701 21.5009 85.793 21.9009 85.977 22.2449C86.169 22.5889 86.417 22.8529 86.721 23.0369C87.033 23.2129 87.361 23.3009 87.705 23.3009C88.057 23.3009 88.385 23.2129 88.689 23.0369C88.993 22.8609 89.237 22.6049 89.421 22.2689C89.613 21.9249 89.709 21.5249 89.709 21.0689ZM96.2218 17.6609C96.7418 17.6609 97.2058 17.7689 97.6138 17.9849C98.0298 18.2009 98.3538 18.5209 98.5858 18.9449C98.8178 19.3689 98.9338 19.8809 98.9338 20.4809V24.3809H97.5778V20.6849C97.5778 20.0929 97.4298 19.6409 97.1338 19.3289C96.8378 19.0089 96.4338 18.8489 95.9218 18.8489C95.4098 18.8489 95.0018 19.0089 94.6978 19.3289C94.4018 19.6409 94.2538 20.0929 94.2538 20.6849V24.3809H92.8858V17.7689H94.2538V18.5249C94.4778 18.2529 94.7618 18.0409 95.1058 17.8889C95.4578 17.7369 95.8298 17.6609 96.2218 17.6609ZM105.755 19.4609V20.6129H100.823V19.4609H105.755ZM112.606 16.0409V17.1569H109.066V19.6169H111.826V20.7329H109.066V24.3809H107.698V16.0409H112.606ZM115.242 18.7289C115.442 18.3929 115.706 18.1329 116.034 17.9489C116.37 17.7569 116.766 17.6609 117.222 17.6609V19.0769H116.874C116.338 19.0769 115.93 19.2129 115.65 19.4849C115.378 19.7569 115.242 20.2289 115.242 20.9009V24.3809H113.874V17.7689H115.242V18.7289ZM118.024 21.0449C118.024 20.3809 118.16 19.7929 118.432 19.2809C118.712 18.7689 119.088 18.3729 119.56 18.0929C120.04 17.8049 120.568 17.6609 121.144 17.6609C121.664 17.6609 122.116 17.7649 122.5 17.9729C122.892 18.1729 123.204 18.4249 123.436 18.7289V17.7689H124.816V24.3809H123.436V23.3969C123.204 23.7089 122.888 23.9689 122.488 24.1769C122.088 24.3849 121.632 24.4889 121.12 24.4889C120.552 24.4889 120.032 24.3449 119.56 24.0569C119.088 23.7609 118.712 23.3529 118.432 22.8329C118.16 22.3049 118.024 21.7089 118.024 21.0449ZM123.436 21.0689C123.436 20.6129 123.34 20.2169 123.148 19.8809C122.964 19.5449 122.72 19.2889 122.416 19.1129C122.112 18.9369 121.784 18.8489 121.432 18.8489C121.08 18.8489 120.752 18.9369 120.448 19.1129C120.144 19.2809 119.896 19.5329 119.704 19.8689C119.52 20.1969 119.428 20.5889 119.428 21.0449C119.428 21.5009 119.52 21.9009 119.704 22.2449C119.896 22.5889 120.144 22.8529 120.448 23.0369C120.76 23.2129 121.088 23.3009 121.432 23.3009C121.784 23.3009 122.112 23.2129 122.416 23.0369C122.72 22.8609 122.964 22.6049 123.148 22.2689C123.34 21.9249 123.436 21.5249 123.436 21.0689ZM129.948 17.6609C130.468 17.6609 130.932 17.7689 131.34 17.9849C131.756 18.2009 132.08 18.5209 132.312 18.9449C132.544 19.3689 132.66 19.8809 132.66 20.4809V24.3809H131.304V20.6849C131.304 20.0929 131.156 19.6409 130.86 19.3289C130.564 19.0089 130.16 18.8489 129.648 18.8489C129.136 18.8489 128.728 19.0089 128.424 19.3289C128.128 19.6409 127.98 20.0929 127.98 20.6849V24.3809H126.612V17.7689H127.98V18.5249C128.204 18.2529 128.488 18.0409 128.832 17.8889C129.184 17.7369 129.556 17.6609 129.948 17.6609ZM133.949 21.0689C133.949 20.3889 134.085 19.7929 134.357 19.2809C134.637 18.7609 135.021 18.3609 135.509 18.0809C135.997 17.8009 136.557 17.6609 137.189 17.6609C137.989 17.6609 138.649 17.8529 139.169 18.2369C139.697 18.6129 140.053 19.1529 140.237 19.8569H138.761C138.641 19.5289 138.449 19.2729 138.185 19.0889C137.921 18.9049 137.589 18.8129 137.189 18.8129C136.629 18.8129 136.181 19.0129 135.845 19.4129C135.517 19.8049 135.353 20.3569 135.353 21.0689C135.353 21.7809 135.517 22.3369 135.845 22.7369C136.181 23.1369 136.629 23.3369 137.189 23.3369C137.981 23.3369 138.505 22.9889 138.761 22.2929H140.237C140.045 22.9649 139.685 23.5009 139.157 23.9009C138.629 24.2929 137.973 24.4889 137.189 24.4889C136.557 24.4889 135.997 24.3489 135.509 24.0689C135.021 23.7809 134.637 23.3809 134.357 22.8689C134.085 22.3489 133.949 21.7489 133.949 21.0689ZM142.297 16.8929C142.049 16.8929 141.841 16.8089 141.673 16.6409C141.505 16.4729 141.421 16.2649 141.421 16.0169C141.421 15.7689 141.505 15.5609 141.673 15.3929C141.841 15.2249 142.049 15.1409 142.297 15.1409C142.537 15.1409 142.741 15.2249 142.909 15.3929C143.077 15.5609 143.161 15.7689 143.161 16.0169C143.161 16.2649 143.077 16.4729 142.909 16.6409C142.741 16.8089 142.537 16.8929 142.297 16.8929ZM142.969 17.7689V24.3809H141.601V17.7689H142.969ZM147.165 24.4889C146.645 24.4889 146.177 24.3969 145.761 24.2129C145.353 24.0209 145.029 23.7649 144.789 23.4449C144.549 23.1169 144.421 22.7529 144.405 22.3529H145.821C145.845 22.6329 145.977 22.8689 146.217 23.0609C146.465 23.2449 146.773 23.3369 147.141 23.3369C147.525 23.3369 147.821 23.2649 148.029 23.1209C148.245 22.9689 148.353 22.7769 148.353 22.5449C148.353 22.2969 148.233 22.1129 147.993 21.9929C147.761 21.8729 147.389 21.7409 146.877 21.5969C146.381 21.4609 145.977 21.3289 145.665 21.2009C145.353 21.0729 145.081 20.8769 144.849 20.6129C144.625 20.3489 144.513 20.0009 144.513 19.5689C144.513 19.2169 144.617 18.8969 144.825 18.6089C145.033 18.3129 145.329 18.0809 145.713 17.9129C146.105 17.7449 146.553 17.6609 147.057 17.6609C147.809 17.6609 148.413 17.8529 148.869 18.2369C149.333 18.6129 149.581 19.1289 149.613 19.7849H148.245C148.221 19.4889 148.101 19.2529 147.885 19.0769C147.669 18.9009 147.377 18.8129 147.009 18.8129C146.649 18.8129 146.373 18.8809 146.181 19.0169C145.989 19.1529 145.893 19.3329 145.893 19.5569C145.893 19.7329 145.957 19.8809 146.085 20.0009C146.213 20.1209 146.369 20.2169 146.553 20.2889C146.737 20.3529 147.009 20.4369 147.369 20.5409C147.849 20.6689 148.241 20.8009 148.545 20.9369C148.857 21.0649 149.125 21.2569 149.349 21.5129C149.573 21.7689 149.689 22.1089 149.697 22.5329C149.697 22.9089 149.593 23.2449 149.385 23.5409C149.177 23.8369 148.881 24.0689 148.497 24.2369C148.121 24.4049 147.677 24.4889 147.165 24.4889ZM150.719 21.0689C150.719 20.3889 150.855 19.7929 151.127 19.2809C151.407 18.7609 151.791 18.3609 152.279 18.0809C152.767 17.8009 153.327 17.6609 153.959 17.6609C154.759 17.6609 155.419 17.8529 155.939 18.2369C156.467 18.6129 156.823 19.1529 157.007 19.8569H155.531C155.411 19.5289 155.219 19.2729 154.955 19.0889C154.691 18.9049 154.359 18.8129 153.959 18.8129C153.399 18.8129 152.951 19.0129 152.615 19.4129C152.287 19.8049 152.123 20.3569 152.123 21.0689C152.123 21.7809 152.287 22.3369 152.615 22.7369C152.951 23.1369 153.399 23.3369 153.959 23.3369C154.751 23.3369 155.275 22.9889 155.531 22.2929H157.007C156.815 22.9649 156.455 23.5009 155.927 23.9009C155.399 24.2929 154.743 24.4889 153.959 24.4889C153.327 24.4889 152.767 24.3489 152.279 24.0689C151.791 23.7809 151.407 23.3809 151.127 22.8689C150.855 22.3489 150.719 21.7489 150.719 21.0689ZM161.238 24.4889C160.614 24.4889 160.05 24.3489 159.546 24.0689C159.042 23.7809 158.646 23.3809 158.358 22.8689C158.07 22.3489 157.926 21.7489 157.926 21.0689C157.926 20.3969 158.074 19.8009 158.37 19.2809C158.666 18.7609 159.07 18.3609 159.582 18.0809C160.094 17.8009 160.666 17.6609 161.298 17.6609C161.93 17.6609 162.502 17.8009 163.014 18.0809C163.526 18.3609 163.93 18.7609 164.226 19.2809C164.522 19.8009 164.67 20.3969 164.67 21.0689C164.67 21.7409 164.518 22.3369 164.214 22.8569C163.91 23.3769 163.494 23.7809 162.966 24.0689C162.446 24.3489 161.87 24.4889 161.238 24.4889ZM161.238 23.3009C161.59 23.3009 161.918 23.2169 162.222 23.0489C162.534 22.8809 162.786 22.6289 162.978 22.2929C163.17 21.9569 163.266 21.5489 163.266 21.0689C163.266 20.5889 163.174 20.1849 162.99 19.8569C162.806 19.5209 162.562 19.2689 162.258 19.1009C161.954 18.9329 161.626 18.8489 161.274 18.8489C160.922 18.8489 160.594 18.9329 160.29 19.1009C159.994 19.2689 159.758 19.5209 159.582 19.8569C159.406 20.1849 159.318 20.5889 159.318 21.0689C159.318 21.7809 159.498 22.3329 159.858 22.7249C160.226 23.1089 160.686 23.3009 161.238 23.3009Z" fill="#606060"/>
<circle cx="69.718" cy="44.8887" r="3.06348" stroke="#EB5757" stroke-width="1.53174"/>
<path d="M81.9748 44.6047C82.4228 44.6847 82.8028 44.9207 83.1148 45.3127C83.4268 45.7047 83.5828 46.1487 83.5828 46.6447C83.5828 47.0687 83.4708 47.4527 83.2468 47.7967C83.0308 48.1327 82.7148 48.4007 82.2988 48.6007C81.8828 48.7927 81.3988 48.8887 80.8468 48.8887H77.5108V40.5487H80.6908C81.2588 40.5487 81.7468 40.6447 82.1548 40.8367C82.5628 41.0287 82.8708 41.2887 83.0788 41.6167C83.2868 41.9367 83.3908 42.2967 83.3908 42.6967C83.3908 43.1767 83.2628 43.5767 83.0068 43.8967C82.7508 44.2167 82.4068 44.4527 81.9748 44.6047ZM78.8788 44.0527H80.5708C81.0188 44.0527 81.3668 43.9527 81.6148 43.7527C81.8708 43.5447 81.9988 43.2487 81.9988 42.8647C81.9988 42.4887 81.8708 42.1967 81.6148 41.9887C81.3668 41.7727 81.0188 41.6647 80.5708 41.6647H78.8788V44.0527ZM80.7268 47.7727C81.1908 47.7727 81.5548 47.6607 81.8188 47.4367C82.0828 47.2127 82.2148 46.9007 82.2148 46.5007C82.2148 46.0927 82.0748 45.7687 81.7948 45.5287C81.5148 45.2887 81.1428 45.1687 80.6788 45.1687H78.8788V47.7727H80.7268ZM87.9374 48.9967C87.3134 48.9967 86.7494 48.8567 86.2454 48.5767C85.7414 48.2887 85.3454 47.8887 85.0574 47.3767C84.7694 46.8567 84.6254 46.2567 84.6254 45.5767C84.6254 44.9047 84.7734 44.3087 85.0694 43.7887C85.3654 43.2687 85.7694 42.8687 86.2814 42.5887C86.7934 42.3087 87.3654 42.1687 87.9974 42.1687C88.6294 42.1687 89.2014 42.3087 89.7134 42.5887C90.2254 42.8687 90.6294 43.2687 90.9254 43.7887C91.2214 44.3087 91.3694 44.9047 91.3694 45.5767C91.3694 46.2487 91.2174 46.8447 90.9134 47.3647C90.6094 47.8847 90.1934 48.2887 89.6654 48.5767C89.1454 48.8567 88.5694 48.9967 87.9374 48.9967ZM87.9374 47.8087C88.2894 47.8087 88.6174 47.7247 88.9214 47.5567C89.2334 47.3887 89.4854 47.1367 89.6774 46.8007C89.8694 46.4647 89.9654 46.0567 89.9654 45.5767C89.9654 45.0967 89.8734 44.6927 89.6894 44.3647C89.5054 44.0287 89.2614 43.7767 88.9574 43.6087C88.6534 43.4407 88.3254 43.3567 87.9734 43.3567C87.6214 43.3567 87.2934 43.4407 86.9894 43.6087C86.6934 43.7767 86.4574 44.0287 86.2814 44.3647C86.1054 44.6927 86.0174 45.0967 86.0174 45.5767C86.0174 46.2887 86.1974 46.8407 86.5574 47.2327C86.9254 47.6167 87.3854 47.8087 87.9374 47.8087ZM95.1218 48.9967C94.6018 48.9967 94.1338 48.9047 93.7178 48.7207C93.3098 48.5287 92.9858 48.2727 92.7458 47.9527C92.5058 47.6247 92.3778 47.2607 92.3618 46.8607H93.7778C93.8018 47.1407 93.9338 47.3767 94.1738 47.5687C94.4218 47.7527 94.7298 47.8447 95.0978 47.8447C95.4818 47.8447 95.7778 47.7727 95.9858 47.6287C96.2018 47.4767 96.3098 47.2847 96.3098 47.0527C96.3098 46.8047 96.1898 46.6207 95.9498 46.5007C95.7178 46.3807 95.3458 46.2487 94.8338 46.1047C94.3378 45.9687 93.9338 45.8367 93.6218 45.7087C93.3098 45.5807 93.0378 45.3847 92.8058 45.1207C92.5818 44.8567 92.4698 44.5087 92.4698 44.0767C92.4698 43.7247 92.5738 43.4047 92.7818 43.1167C92.9898 42.8207 93.2858 42.5887 93.6698 42.4207C94.0618 42.2527 94.5098 42.1687 95.0138 42.1687C95.7658 42.1687 96.3698 42.3607 96.8258 42.7447C97.2898 43.1207 97.5378 43.6367 97.5698 44.2927H96.2018C96.1778 43.9967 96.0578 43.7607 95.8418 43.5847C95.6258 43.4087 95.3338 43.3207 94.9658 43.3207C94.6058 43.3207 94.3298 43.3887 94.1378 43.5247C93.9458 43.6607 93.8498 43.8407 93.8498 44.0647C93.8498 44.2407 93.9138 44.3887 94.0418 44.5087C94.1698 44.6287 94.3258 44.7247 94.5098 44.7967C94.6938 44.8607 94.9658 44.9447 95.3258 45.0487C95.8058 45.1767 96.1978 45.3087 96.5018 45.4447C96.8138 45.5727 97.0818 45.7647 97.3058 46.0207C97.5298 46.2767 97.6458 46.6167 97.6538 47.0407C97.6538 47.4167 97.5498 47.7527 97.3418 48.0487C97.1338 48.3447 96.8378 48.5767 96.4538 48.7447C96.0778 48.9127 95.6338 48.9967 95.1218 48.9967ZM100.728 43.3927V47.0527C100.728 47.3007 100.784 47.4807 100.896 47.5927C101.016 47.6967 101.216 47.7487 101.496 47.7487H102.336V48.8887H101.256C100.64 48.8887 100.168 48.7447 99.8399 48.4567C99.5119 48.1687 99.3479 47.7007 99.3479 47.0527V43.3927H98.5679V42.2767H99.3479V40.6327H100.728V42.2767H102.336V43.3927H100.728ZM106.465 48.9967C105.841 48.9967 105.277 48.8567 104.773 48.5767C104.269 48.2887 103.873 47.8887 103.585 47.3767C103.297 46.8567 103.153 46.2567 103.153 45.5767C103.153 44.9047 103.301 44.3087 103.597 43.7887C103.893 43.2687 104.297 42.8687 104.809 42.5887C105.321 42.3087 105.893 42.1687 106.525 42.1687C107.157 42.1687 107.729 42.3087 108.241 42.5887C108.753 42.8687 109.157 43.2687 109.453 43.7887C109.749 44.3087 109.897 44.9047 109.897 45.5767C109.897 46.2487 109.745 46.8447 109.441 47.3647C109.137 47.8847 108.721 48.2887 108.193 48.5767C107.673 48.8567 107.097 48.9967 106.465 48.9967ZM106.465 47.8087C106.817 47.8087 107.145 47.7247 107.449 47.5567C107.761 47.3887 108.013 47.1367 108.205 46.8007C108.397 46.4647 108.493 46.0567 108.493 45.5767C108.493 45.0967 108.401 44.6927 108.217 44.3647C108.033 44.0287 107.789 43.7767 107.485 43.6087C107.181 43.4407 106.853 43.3567 106.501 43.3567C106.149 43.3567 105.821 43.4407 105.517 43.6087C105.221 43.7767 104.985 44.0287 104.809 44.3647C104.633 44.6927 104.545 45.0967 104.545 45.5767C104.545 46.2887 104.725 46.8407 105.085 47.2327C105.453 47.6167 105.913 47.8087 106.465 47.8087ZM114.585 42.1687C115.105 42.1687 115.569 42.2767 115.977 42.4927C116.393 42.7087 116.717 43.0287 116.949 43.4527C117.181 43.8767 117.297 44.3887 117.297 44.9887V48.8887H115.941V45.1927C115.941 44.6007 115.793 44.1487 115.497 43.8367C115.201 43.5167 114.797 43.3567 114.285 43.3567C113.773 43.3567 113.365 43.5167 113.061 43.8367C112.765 44.1487 112.617 44.6007 112.617 45.1927V48.8887H111.249V42.2767H112.617V43.0327C112.841 42.7607 113.125 42.5487 113.469 42.3967C113.821 42.2447 114.193 42.1687 114.585 42.1687Z" fill="#606060"/>
<path d="M195.548 47.3857C195.548 47.7857 195.448 48.1617 195.248 48.5137C195.056 48.8657 194.768 49.1617 194.384 49.4017C194.008 49.6417 193.56 49.7857 193.04 49.8337V50.8057H192.26V49.8337C191.508 49.7617 190.9 49.5257 190.436 49.1257C189.972 48.7257 189.74 48.1977 189.74 47.5417H191.204C191.228 47.8537 191.328 48.1137 191.504 48.3217C191.68 48.5217 191.932 48.6497 192.26 48.7057V46.0657C191.724 45.9297 191.288 45.7937 190.952 45.6577C190.616 45.5137 190.328 45.2897 190.088 44.9857C189.856 44.6817 189.74 44.2657 189.74 43.7377C189.74 43.0737 189.972 42.5257 190.436 42.0937C190.9 41.6537 191.508 41.3977 192.26 41.3257V40.3537H193.04V41.3257C193.744 41.3897 194.308 41.6137 194.732 41.9977C195.164 42.3737 195.408 42.8937 195.464 43.5577H194C193.976 43.3097 193.88 43.0897 193.712 42.8977C193.544 42.6977 193.32 42.5617 193.04 42.4897V45.0817C193.576 45.2097 194.012 45.3457 194.348 45.4897C194.684 45.6257 194.968 45.8457 195.2 46.1497C195.432 46.4457 195.548 46.8577 195.548 47.3857ZM191.132 43.6657C191.132 43.9937 191.228 44.2497 191.42 44.4337C191.62 44.6177 191.9 44.7657 192.26 44.8777V42.4537C191.916 42.4937 191.64 42.6177 191.432 42.8257C191.232 43.0337 191.132 43.3137 191.132 43.6657ZM193.04 48.7057C193.392 48.6497 193.668 48.5097 193.868 48.2857C194.068 48.0537 194.168 47.7777 194.168 47.4577C194.168 47.1377 194.068 46.8897 193.868 46.7137C193.676 46.5297 193.4 46.3817 193.04 46.2697V48.7057ZM198.3 47.9017C199.068 47.2377 199.672 46.6937 200.112 46.2697C200.56 45.8377 200.932 45.3897 201.228 44.9257C201.524 44.4617 201.672 43.9977 201.672 43.5337C201.672 43.0537 201.556 42.6777 201.324 42.4057C201.1 42.1337 200.744 41.9977 200.256 41.9977C199.784 41.9977 199.416 42.1497 199.152 42.4537C198.896 42.7497 198.76 43.1497 198.744 43.6537H197.424C197.448 42.7417 197.72 42.0457 198.24 41.5657C198.768 41.0777 199.436 40.8337 200.244 40.8337C201.116 40.8337 201.796 41.0737 202.284 41.5537C202.78 42.0337 203.028 42.6737 203.028 43.4737C203.028 44.0497 202.88 44.6057 202.584 45.1417C202.296 45.6697 201.948 46.1457 201.54 46.5697C201.14 46.9857 200.628 47.4697 200.004 48.0217L199.464 48.5017H203.268V49.6417H197.436V48.6457L198.3 47.9017ZM207.407 42.2617V41.0137H209.903V49.7617H208.523V42.2617H207.407ZM213.259 45.1897C212.427 44.7737 212.011 44.1177 212.011 43.2217C212.011 42.7897 212.119 42.3937 212.335 42.0337C212.551 41.6737 212.875 41.3897 213.307 41.1817C213.739 40.9657 214.267 40.8577 214.891 40.8577C215.507 40.8577 216.031 40.9657 216.463 41.1817C216.903 41.3897 217.23 41.6737 217.447 42.0337C217.663 42.3937 217.771 42.7897 217.771 43.2217C217.771 43.6697 217.655 44.0657 217.423 44.4097C217.199 44.7457 216.899 45.0057 216.523 45.1897C216.979 45.3577 217.339 45.6337 217.603 46.0177C217.867 46.3937 217.999 46.8377 217.999 47.3497C217.999 47.8697 217.867 48.3297 217.603 48.7297C217.339 49.1297 216.971 49.4377 216.499 49.6537C216.027 49.8697 215.491 49.9777 214.891 49.9777C214.291 49.9777 213.755 49.8697 213.283 49.6537C212.819 49.4377 212.455 49.1297 212.191 48.7297C211.927 48.3297 211.795 47.8697 211.795 47.3497C211.795 46.8297 211.927 46.3817 212.191 46.0057C212.455 45.6297 212.811 45.3577 213.259 45.1897ZM216.463 43.3897C216.463 42.9417 216.323 42.5977 216.043 42.3577C215.763 42.1177 215.379 41.9977 214.891 41.9977C214.411 41.9977 214.031 42.1177 213.751 42.3577C213.471 42.5977 213.331 42.9457 213.331 43.4017C213.331 43.8017 213.475 44.1297 213.763 44.3857C214.059 44.6337 214.435 44.7577 214.891 44.7577C215.347 44.7577 215.723 44.6297 216.019 44.3737C216.315 44.1177 216.463 43.7897 216.463 43.3897ZM214.891 45.7897C214.363 45.7897 213.931 45.9217 213.595 46.1857C213.267 46.4417 213.103 46.8137 213.103 47.3017C213.103 47.7577 213.263 48.1297 213.583 48.4177C213.903 48.6977 214.339 48.8377 214.891 48.8377C215.435 48.8377 215.863 48.6937 216.175 48.4057C216.495 48.1177 216.655 47.7497 216.655 47.3017C216.655 46.8217 216.491 46.4497 216.163 46.1857C215.843 45.9217 215.419 45.7897 214.891 45.7897ZM220.911 45.1897C220.079 44.7737 219.663 44.1177 219.663 43.2217C219.663 42.7897 219.771 42.3937 219.987 42.0337C220.203 41.6737 220.527 41.3897 220.959 41.1817C221.391 40.9657 221.919 40.8577 222.543 40.8577C223.159 40.8577 223.683 40.9657 224.115 41.1817C224.555 41.3897 224.883 41.6737 225.099 42.0337C225.315 42.3937 225.423 42.7897 225.423 43.2217C225.423 43.6697 225.307 44.0657 225.075 44.4097C224.851 44.7457 224.551 45.0057 224.175 45.1897C224.631 45.3577 224.991 45.6337 225.255 46.0177C225.519 46.3937 225.651 46.8377 225.651 47.3497C225.651 47.8697 225.519 48.3297 225.255 48.7297C224.991 49.1297 224.623 49.4377 224.151 49.6537C223.679 49.8697 223.143 49.9777 222.543 49.9777C221.943 49.9777 221.407 49.8697 220.935 49.6537C220.471 49.4377 220.107 49.1297 219.843 48.7297C219.579 48.3297 219.447 47.8697 219.447 47.3497C219.447 46.8297 219.579 46.3817 219.843 46.0057C220.107 45.6297 220.463 45.3577 220.911 45.1897ZM224.115 43.3897C224.115 42.9417 223.975 42.5977 223.695 42.3577C223.415 42.1177 223.031 41.9977 222.543 41.9977C222.063 41.9977 221.683 42.1177 221.403 42.3577C221.123 42.5977 220.983 42.9457 220.983 43.4017C220.983 43.8017 221.127 44.1297 221.415 44.3857C221.711 44.6337 222.087 44.7577 222.543 44.7577C222.999 44.7577 223.375 44.6297 223.671 44.3737C223.967 44.1177 224.115 43.7897 224.115 43.3897ZM222.543 45.7897C222.015 45.7897 221.583 45.9217 221.247 46.1857C220.919 46.4417 220.755 46.8137 220.755 47.3017C220.755 47.7577 220.915 48.1297 221.235 48.4177C221.555 48.6977 221.991 48.8377 222.543 48.8377C223.087 48.8377 223.515 48.6937 223.827 48.4057C224.147 48.1177 224.307 47.7497 224.307 47.3017C224.307 46.8217 224.143 46.4497 223.815 46.1857C223.495 45.9217 223.071 45.7897 222.543 45.7897ZM227.819 49.8457C227.571 49.8457 227.363 49.7617 227.195 49.5937C227.027 49.4257 226.943 49.2177 226.943 48.9697C226.943 48.7217 227.027 48.5137 227.195 48.3457C227.363 48.1777 227.571 48.0937 227.819 48.0937C228.059 48.0937 228.263 48.1777 228.431 48.3457C228.599 48.5137 228.683 48.7217 228.683 48.9697C228.683 49.2177 228.599 49.4257 228.431 49.5937C228.263 49.7617 228.059 49.8457 227.819 49.8457ZM229.982 45.2737C229.982 43.8897 230.214 42.8097 230.678 42.0337C231.15 41.2497 231.958 40.8577 233.102 40.8577C234.246 40.8577 235.05 41.2497 235.514 42.0337C235.986 42.8097 236.222 43.8897 236.222 45.2737C236.222 46.6737 235.986 47.7697 235.514 48.5617C235.05 49.3457 234.246 49.7377 233.102 49.7377C231.958 49.7377 231.15 49.3457 230.678 48.5617C230.214 47.7697 229.982 46.6737 229.982 45.2737ZM234.878 45.2737C234.878 44.6257 234.834 44.0777 234.746 43.6297C234.666 43.1817 234.498 42.8177 234.242 42.5377C233.986 42.2497 233.606 42.1057 233.102 42.1057C232.598 42.1057 232.218 42.2497 231.962 42.5377C231.706 42.8177 231.534 43.1817 231.446 43.6297C231.366 44.0777 231.326 44.6257 231.326 45.2737C231.326 45.9457 231.366 46.5097 231.446 46.9657C231.526 47.4217 231.694 47.7897 231.95 48.0697C232.214 48.3497 232.598 48.4897 233.102 48.4897C233.606 48.4897 233.986 48.3497 234.242 48.0697C234.506 47.7897 234.678 47.4217 234.758 46.9657C234.838 46.5097 234.878 45.9457 234.878 45.2737ZM243.309 42.1897H239.289V44.5777C239.457 44.3537 239.705 44.1657 240.033 44.0137C240.369 43.8617 240.725 43.7857 241.101 43.7857C241.773 43.7857 242.317 43.9297 242.733 44.2177C243.157 44.5057 243.457 44.8697 243.633 45.3097C243.817 45.7497 243.909 46.2137 243.909 46.7017C243.909 47.2937 243.793 47.8217 243.561 48.2857C243.337 48.7417 242.997 49.1017 242.541 49.3657C242.093 49.6297 241.541 49.7617 240.885 49.7617C240.013 49.7617 239.313 49.5457 238.785 49.1137C238.257 48.6817 237.941 48.1097 237.837 47.3977H239.169C239.257 47.7737 239.453 48.0737 239.757 48.2977C240.061 48.5137 240.441 48.6217 240.897 48.6217C241.465 48.6217 241.889 48.4497 242.169 48.1057C242.457 47.7617 242.601 47.3057 242.601 46.7377C242.601 46.1617 242.457 45.7217 242.169 45.4177C241.881 45.1057 241.457 44.9497 240.897 44.9497C240.505 44.9497 240.173 45.0497 239.901 45.2497C239.637 45.4417 239.445 45.7057 239.325 46.0417H238.029V40.9897H243.309V42.1897Z" fill="#333333"/>
<path d="M188.12 15.6024C188.168 14.8584 188.452 14.2784 188.972 13.8624C189.5 13.4464 190.172 13.2384 190.988 13.2384C191.548 13.2384 192.032 13.3384 192.44 13.5384C192.848 13.7384 193.156 14.0104 193.364 14.3544C193.572 14.6984 193.676 15.0864 193.676 15.5184C193.676 16.0144 193.544 16.4384 193.28 16.7904C193.016 17.1424 192.7 17.3784 192.332 17.4984V17.5464C192.804 17.6904 193.172 17.9544 193.436 18.3384C193.7 18.7144 193.832 19.1984 193.832 19.7904C193.832 20.2624 193.724 20.6824 193.508 21.0504C193.292 21.4184 192.972 21.7104 192.548 21.9264C192.124 22.1344 191.616 22.2384 191.024 22.2384C190.16 22.2384 189.448 22.0184 188.888 21.5784C188.336 21.1304 188.04 20.4904 188 19.6584H189.32C189.352 20.0824 189.516 20.4304 189.812 20.7024C190.108 20.9664 190.508 21.0984 191.012 21.0984C191.5 21.0984 191.876 20.9664 192.14 20.7024C192.404 20.4304 192.536 20.0824 192.536 19.6584C192.536 19.0984 192.356 18.7024 191.996 18.4704C191.644 18.2304 191.1 18.1104 190.364 18.1104H190.052V16.9824H190.376C191.024 16.9744 191.516 16.8664 191.852 16.6584C192.196 16.4504 192.368 16.1224 192.368 15.6744C192.368 15.2904 192.244 14.9864 191.996 14.7624C191.748 14.5304 191.396 14.4144 190.94 14.4144C190.492 14.4144 190.144 14.5304 189.896 14.7624C189.648 14.9864 189.5 15.2664 189.452 15.6024H188.12ZM195.269 17.7024C195.269 16.3184 195.501 15.2384 195.965 14.4624C196.437 13.6784 197.245 13.2864 198.389 13.2864C199.533 13.2864 200.337 13.6784 200.801 14.4624C201.273 15.2384 201.509 16.3184 201.509 17.7024C201.509 19.1024 201.273 20.1984 200.801 20.9904C200.337 21.7744 199.533 22.1664 198.389 22.1664C197.245 22.1664 196.437 21.7744 195.965 20.9904C195.501 20.1984 195.269 19.1024 195.269 17.7024ZM200.165 17.7024C200.165 17.0544 200.121 16.5064 200.033 16.0584C199.953 15.6104 199.785 15.2464 199.529 14.9664C199.273 14.6784 198.893 14.5344 198.389 14.5344C197.885 14.5344 197.505 14.6784 197.249 14.9664C196.993 15.2464 196.821 15.6104 196.733 16.0584C196.653 16.5064 196.613 17.0544 196.613 17.7024C196.613 18.3744 196.653 18.9384 196.733 19.3944C196.813 19.8504 196.981 20.2184 197.237 20.4984C197.501 20.7784 197.885 20.9184 198.389 20.9184C198.893 20.9184 199.273 20.7784 199.529 20.4984C199.793 20.2184 199.965 19.8504 200.045 19.3944C200.125 18.9384 200.165 18.3744 200.165 17.7024ZM207.66 15.4704C207.572 15.1024 207.412 14.8264 207.18 14.6424C206.948 14.4584 206.624 14.3664 206.208 14.3664C205.576 14.3664 205.104 14.6104 204.792 15.0984C204.48 15.5784 204.316 16.3784 204.3 17.4984C204.508 17.1464 204.812 16.8744 205.212 16.6824C205.612 16.4904 206.044 16.3944 206.508 16.3944C207.036 16.3944 207.5 16.5104 207.9 16.7424C208.308 16.9664 208.624 17.2944 208.848 17.7264C209.08 18.1584 209.196 18.6744 209.196 19.2744C209.196 19.8344 209.084 20.3344 208.86 20.7744C208.644 21.2144 208.32 21.5624 207.888 21.8184C207.456 22.0664 206.936 22.1904 206.328 22.1904C205.504 22.1904 204.856 22.0104 204.384 21.6504C203.92 21.2824 203.592 20.7664 203.4 20.1024C203.216 19.4384 203.124 18.6104 203.124 17.6184C203.124 14.6904 204.156 13.2264 206.22 13.2264C207.02 13.2264 207.648 13.4424 208.104 13.8744C208.568 14.3064 208.84 14.8384 208.92 15.4704H207.66ZM206.208 17.5464C205.72 17.5464 205.304 17.6944 204.96 17.9904C204.624 18.2784 204.456 18.6984 204.456 19.2504C204.456 19.8024 204.612 20.2424 204.924 20.5704C205.244 20.8904 205.688 21.0504 206.256 21.0504C206.76 21.0504 207.156 20.8944 207.444 20.5824C207.74 20.2704 207.888 19.8544 207.888 19.3344C207.888 18.7904 207.744 18.3584 207.456 18.0384C207.176 17.7104 206.76 17.5464 206.208 17.5464ZM216.296 14.6184H212.276V17.0064C212.444 16.7824 212.692 16.5944 213.02 16.4424C213.356 16.2904 213.712 16.2144 214.088 16.2144C214.76 16.2144 215.304 16.3584 215.72 16.6464C216.144 16.9344 216.444 17.2984 216.62 17.7384C216.804 18.1784 216.896 18.6424 216.896 19.1304C216.896 19.7224 216.78 20.2504 216.548 20.7144C216.324 21.1704 215.984 21.5304 215.528 21.7944C215.08 22.0584 214.528 22.1904 213.872 22.1904C213 22.1904 212.3 21.9744 211.772 21.5424C211.244 21.1104 210.928 20.5384 210.824 19.8264H212.156C212.244 20.2024 212.44 20.5024 212.744 20.7264C213.048 20.9424 213.428 21.0504 213.884 21.0504C214.452 21.0504 214.876 20.8784 215.156 20.5344C215.444 20.1904 215.588 19.7344 215.588 19.1664C215.588 18.5904 215.444 18.1504 215.156 17.8464C214.868 17.5344 214.444 17.3784 213.884 17.3784C213.492 17.3784 213.16 17.4784 212.888 17.6784C212.624 17.8704 212.432 18.1344 212.312 18.4704H211.016V13.4184H216.296V14.6184ZM220 20.5464L218.548 23.8584H217.66L218.512 20.5464H220ZM226.655 14.6184H222.635V17.0064C222.803 16.7824 223.051 16.5944 223.379 16.4424C223.715 16.2904 224.071 16.2144 224.447 16.2144C225.119 16.2144 225.663 16.3584 226.079 16.6464C226.503 16.9344 226.803 17.2984 226.979 17.7384C227.163 18.1784 227.255 18.6424 227.255 19.1304C227.255 19.7224 227.139 20.2504 226.907 20.7144C226.683 21.1704 226.343 21.5304 225.887 21.7944C225.439 22.0584 224.887 22.1904 224.231 22.1904C223.359 22.1904 222.659 21.9744 222.131 21.5424C221.603 21.1104 221.287 20.5384 221.183 19.8264H222.515C222.603 20.2024 222.799 20.5024 223.103 20.7264C223.407 20.9424 223.787 21.0504 224.243 21.0504C224.811 21.0504 225.235 20.8784 225.515 20.5344C225.803 20.1904 225.947 19.7344 225.947 19.1664C225.947 18.5904 225.803 18.1504 225.515 17.8464C225.227 17.5344 224.803 17.3784 224.243 17.3784C223.851 17.3784 223.519 17.4784 223.247 17.6784C222.983 17.8704 222.791 18.1344 222.671 18.4704H221.375V13.4184H226.655V14.6184ZM239.98 15.4704C240.5 15.4704 240.964 15.5784 241.372 15.7944C241.788 16.0104 242.112 16.3304 242.344 16.7544C242.584 17.1784 242.704 17.6904 242.704 18.2904V22.1904H241.348V18.4944C241.348 17.9024 241.2 17.4504 240.904 17.1384C240.608 16.8184 240.204 16.6584 239.692 16.6584C239.18 16.6584 238.772 16.8184 238.468 17.1384C238.172 17.4504 238.024 17.9024 238.024 18.4944V22.1904H236.668V18.4944C236.668 17.9024 236.52 17.4504 236.224 17.1384C235.928 16.8184 235.524 16.6584 235.012 16.6584C234.5 16.6584 234.092 16.8184 233.788 17.1384C233.492 17.4504 233.344 17.9024 233.344 18.4944V22.1904H231.976V15.5784H233.344V16.3344C233.568 16.0624 233.852 15.8504 234.196 15.6984C234.54 15.5464 234.908 15.4704 235.3 15.4704C235.828 15.4704 236.3 15.5824 236.716 15.8064C237.132 16.0304 237.452 16.3544 237.676 16.7784C237.876 16.3784 238.188 16.0624 238.612 15.8304C239.036 15.5904 239.492 15.4704 239.98 15.4704ZM245.141 14.7024C244.893 14.7024 244.685 14.6184 244.517 14.4504C244.349 14.2824 244.265 14.0744 244.265 13.8264C244.265 13.5784 244.349 13.3704 244.517 13.2024C244.685 13.0344 244.893 12.9504 245.141 12.9504C245.381 12.9504 245.585 13.0344 245.753 13.2024C245.921 13.3704 246.005 13.5784 246.005 13.8264C246.005 14.0744 245.921 14.2824 245.753 14.4504C245.585 14.6184 245.381 14.7024 245.141 14.7024ZM245.813 15.5784V22.1904H244.445V15.5784H245.813Z" fill="#333333"/>
</g>
<defs>
<filter id="filter0_d_0_5006" x="0.664949" y="0.904271" width="265.11" height="73.7492" filterUnits="userSpaceOnUse" color-interpolation-filters="sRGB">
<feFlood flood-opacity="0" result="BackgroundImageFix"/>
<feColorMatrix in="SourceAlpha" type="matrix" values="0 0 0 0 0 0 0 0 0 0 0 0 0 0 0 0 0 0 127 0" result="hardAlpha"/>
<feOffset dy="5.23932"/>
<feGaussianBlur stdDeviation="3.66753"/>
<feComposite in2="hardAlpha" operator="out"/>
<feColorMatrix type="matrix" values="0 0 0 0 0.483333 0 0 0 0 0.483333 0 0 0 0 0.483333 0 0 0 0.1 0"/>
<feBlend mode="normal" in2="BackgroundImageFix" result="effect1_dropShadow_0_5006"/>
<feBlend mode="normal" in="SourceGraphic" in2="effect1_dropShadow_0_5006" result="shape"/>
</filter>
<linearGradient id="paint0_linear_0_5006" x1="69.718" y1="16.5515" x2="69.718" y2="24.2102" gradientUnits="userSpaceOnUse">
<stop offset="0.0885417" stop-color="#25BEA9"/>
<stop offset="0.916667" stop-color="#00A992"/>
</linearGradient>
</defs>
</svg>
