<svg width="266" height="75" viewBox="0 0 266 75" fill="none" xmlns="http://www.w3.org/2000/svg">
<g filter="url(#filter0_d_0_4976)">
<path d="M8 8C8 5.23858 10.2386 3 13 3H253.44C256.201 3 258.44 5.23858 258.44 8V57.0791C258.44 59.8406 256.201 62.0791 253.44 62.0791H13C10.2386 62.0791 8 59.8406 8 57.0791V8Z" fill="white"/>
<path d="M19.868 16.8539V16.0239H21.748V23.2539H20.828V16.8539H19.868ZM23.3112 19.5639C23.3112 18.4172 23.4978 17.5239 23.8712 16.8839C24.2445 16.2372 24.8978 15.9139 25.8312 15.9139C26.7578 15.9139 27.4078 16.2372 27.7812 16.8839C28.1545 17.5239 28.3412 18.4172 28.3412 19.5639C28.3412 20.7306 28.1545 21.6372 27.7812 22.2839C27.4078 22.9306 26.7578 23.2539 25.8312 23.2539C24.8978 23.2539 24.2445 22.9306 23.8712 22.2839C23.4978 21.6372 23.3112 20.7306 23.3112 19.5639ZM27.4412 19.5639C27.4412 18.9839 27.4012 18.4939 27.3212 18.0939C27.2478 17.6872 27.0912 17.3606 26.8512 17.1139C26.6178 16.8672 26.2778 16.7439 25.8312 16.7439C25.3778 16.7439 25.0312 16.8672 24.7912 17.1139C24.5578 17.3606 24.4012 17.6872 24.3212 18.0939C24.2478 18.4939 24.2112 18.9839 24.2112 19.5639C24.2112 20.1639 24.2478 20.6672 24.3212 21.0739C24.4012 21.4806 24.5578 21.8072 24.7912 22.0539C25.0312 22.3006 25.3778 22.4239 25.8312 22.4239C26.2778 22.4239 26.6178 22.3006 26.8512 22.0539C27.0912 21.8072 27.2478 21.4806 27.3212 21.0739C27.4012 20.6672 27.4412 20.1639 27.4412 19.5639ZM30.0305 23.3139C29.8571 23.3139 29.7105 23.2539 29.5905 23.1339C29.4705 23.0139 29.4105 22.8672 29.4105 22.6939C29.4105 22.5206 29.4705 22.3739 29.5905 22.2539C29.7105 22.1339 29.8571 22.0739 30.0305 22.0739C30.1971 22.0739 30.3371 22.1339 30.4505 22.2539C30.5705 22.3739 30.6305 22.5206 30.6305 22.6939C30.6305 22.8672 30.5705 23.0139 30.4505 23.1339C30.3371 23.2539 30.1971 23.3139 30.0305 23.3139ZM30.0305 19.0339C29.8571 19.0339 29.7105 18.9739 29.5905 18.8539C29.4705 18.7339 29.4105 18.5872 29.4105 18.4139C29.4105 18.2406 29.4705 18.0939 29.5905 17.9739C29.7105 17.8539 29.8571 17.7939 30.0305 17.7939C30.1971 17.7939 30.3371 17.8539 30.4505 17.9739C30.5705 18.0939 30.6305 18.2406 30.6305 18.4139C30.6305 18.5872 30.5705 18.7339 30.4505 18.8539C30.3371 18.9739 30.1971 19.0339 30.0305 19.0339ZM31.6094 22.5239C32.456 21.8439 33.1194 21.2872 33.5994 20.8539C34.0794 20.4139 34.4827 19.9572 34.8094 19.4839C35.1427 19.0039 35.3094 18.5339 35.3094 18.0739C35.3094 17.6406 35.2027 17.3006 34.9894 17.0539C34.7827 16.8006 34.446 16.6739 33.9794 16.6739C33.526 16.6739 33.1727 16.8172 32.9194 17.1039C32.6727 17.3839 32.5394 17.7606 32.5194 18.2339H31.6394C31.666 17.4872 31.8927 16.9106 32.3194 16.5039C32.746 16.0972 33.296 15.8939 33.9694 15.8939C34.656 15.8939 35.1994 16.0839 35.5994 16.4639C36.006 16.8439 36.2094 17.3672 36.2094 18.0339C36.2094 18.5872 36.0427 19.1272 35.7094 19.6539C35.3827 20.1739 35.0094 20.6339 34.5894 21.0339C34.1694 21.4272 33.6327 21.8872 32.9794 22.4139H36.4194V23.1739H31.6094V22.5239ZM37.4713 19.5639C37.4713 18.4172 37.658 17.5239 38.0313 16.8839C38.4047 16.2372 39.058 15.9139 39.9913 15.9139C40.918 15.9139 41.568 16.2372 41.9413 16.8839C42.3147 17.5239 42.5013 18.4172 42.5013 19.5639C42.5013 20.7306 42.3147 21.6372 41.9413 22.2839C41.568 22.9306 40.918 23.2539 39.9913 23.2539C39.058 23.2539 38.4047 22.9306 38.0313 22.2839C37.658 21.6372 37.4713 20.7306 37.4713 19.5639ZM41.6013 19.5639C41.6013 18.9839 41.5613 18.4939 41.4813 18.0939C41.408 17.6872 41.2513 17.3606 41.0113 17.1139C40.778 16.8672 40.438 16.7439 39.9913 16.7439C39.538 16.7439 39.1913 16.8672 38.9513 17.1139C38.718 17.3606 38.5613 17.6872 38.4813 18.0939C38.408 18.4939 38.3713 18.9839 38.3713 19.5639C38.3713 20.1639 38.408 20.6672 38.4813 21.0739C38.5613 21.4806 38.718 21.8072 38.9513 22.0539C39.1913 22.3006 39.538 22.4239 39.9913 22.4239C40.438 22.4239 40.778 22.3006 41.0113 22.0539C41.2513 21.8072 41.408 21.4806 41.4813 21.0739C41.5613 20.6672 41.6013 20.1639 41.6013 19.5639ZM50.6866 21.7039H47.6466L47.0866 23.2539H46.1266L48.6466 16.3239H49.6966L52.2066 23.2539H51.2466L50.6866 21.7039ZM50.4266 20.9639L49.1666 17.4439L47.9066 20.9639H50.4266ZM60.3749 16.3339V23.2539H59.4649V18.0939L57.1649 23.2539H56.5249L54.2149 18.0839V23.2539H53.3049V16.3339H54.2849L56.8449 22.0539L59.4049 16.3339H60.3749Z" fill="#333333"/>
<path d="M27.1285 44.0017C26.7551 43.8551 26.4685 43.6417 26.2685 43.3617C26.0685 43.0817 25.9685 42.7417 25.9685 42.3417C25.9685 41.9817 26.0585 41.6584 26.2385 41.3717C26.4185 41.0784 26.6851 40.8484 27.0385 40.6817C27.3985 40.5084 27.8318 40.4217 28.3385 40.4217C28.8451 40.4217 29.2751 40.5084 29.6285 40.6817C29.9885 40.8484 30.2585 41.0784 30.4385 41.3717C30.6251 41.6584 30.7185 41.9817 30.7185 42.3417C30.7185 42.7284 30.6151 43.0684 30.4085 43.3617C30.2018 43.6484 29.9185 43.8617 29.5585 44.0017C29.9718 44.1284 30.2985 44.3517 30.5385 44.6717C30.7851 44.9851 30.9085 45.3651 30.9085 45.8117C30.9085 46.2451 30.8018 46.6251 30.5885 46.9517C30.3751 47.2717 30.0718 47.5217 29.6785 47.7017C29.2918 47.8751 28.8451 47.9617 28.3385 47.9617C27.8318 47.9617 27.3851 47.8751 26.9985 47.7017C26.6185 47.5217 26.3218 47.2717 26.1085 46.9517C25.8951 46.6251 25.7885 46.2451 25.7885 45.8117C25.7885 45.3651 25.9085 44.9817 26.1485 44.6617C26.3885 44.3417 26.7151 44.1217 27.1285 44.0017ZM29.8385 42.4517C29.8385 42.0451 29.7051 41.7317 29.4385 41.5117C29.1718 41.2917 28.8051 41.1817 28.3385 41.1817C27.8785 41.1817 27.5151 41.2917 27.2485 41.5117C26.9818 41.7317 26.8485 42.0484 26.8485 42.4617C26.8485 42.8351 26.9851 43.1351 27.2585 43.3617C27.5385 43.5884 27.8985 43.7017 28.3385 43.7017C28.7851 43.7017 29.1451 43.5884 29.4185 43.3617C29.6985 43.1284 29.8385 42.8251 29.8385 42.4517ZM28.3385 44.4017C27.8451 44.4017 27.4418 44.5184 27.1285 44.7517C26.8151 44.9784 26.6585 45.3217 26.6585 45.7817C26.6585 46.2084 26.8085 46.5517 27.1085 46.8117C27.4151 47.0717 27.8251 47.2017 28.3385 47.2017C28.8518 47.2017 29.2585 47.0717 29.5585 46.8117C29.8585 46.5517 30.0085 46.2084 30.0085 45.7817C30.0085 45.3351 29.8551 44.9951 29.5485 44.7617C29.2418 44.5217 28.8385 44.4017 28.3385 44.4017ZM32.5571 47.8217C32.3837 47.8217 32.2371 47.7617 32.1171 47.6417C31.9971 47.5217 31.9371 47.3751 31.9371 47.2017C31.9371 47.0284 31.9971 46.8817 32.1171 46.7617C32.2371 46.6417 32.3837 46.5817 32.5571 46.5817C32.7237 46.5817 32.8637 46.6417 32.9771 46.7617C33.0971 46.8817 33.1571 47.0284 33.1571 47.2017C33.1571 47.3751 33.0971 47.5217 32.9771 47.6417C32.8637 47.7617 32.7237 47.8217 32.5571 47.8217ZM32.5571 43.5417C32.3837 43.5417 32.2371 43.4817 32.1171 43.3617C31.9971 43.2417 31.9371 43.0951 31.9371 42.9217C31.9371 42.7484 31.9971 42.6017 32.1171 42.4817C32.2371 42.3617 32.3837 42.3017 32.5571 42.3017C32.7237 42.3017 32.8637 42.3617 32.9771 42.4817C33.0971 42.6017 33.1571 42.7484 33.1571 42.9217C33.1571 43.0951 33.0971 43.2417 32.9771 43.3617C32.8637 43.4817 32.7237 43.5417 32.5571 43.5417ZM34.226 42.3517C34.2726 41.7384 34.5093 41.2584 34.936 40.9117C35.3626 40.5651 35.916 40.3917 36.596 40.3917C37.0493 40.3917 37.4393 40.4751 37.766 40.6417C38.0993 40.8017 38.3493 41.0217 38.516 41.3017C38.6893 41.5817 38.776 41.8984 38.776 42.2517C38.776 42.6651 38.656 43.0217 38.416 43.3217C38.1826 43.6217 37.876 43.8151 37.496 43.9017V43.9517C37.9293 44.0584 38.2726 44.2684 38.526 44.5817C38.7793 44.8951 38.906 45.3051 38.906 45.8117C38.906 46.1917 38.8193 46.5351 38.646 46.8417C38.4726 47.1417 38.2126 47.3784 37.866 47.5517C37.5193 47.7251 37.1026 47.8117 36.616 47.8117C35.9093 47.8117 35.3293 47.6284 34.876 47.2617C34.4226 46.8884 34.1693 46.3617 34.116 45.6817H34.996C35.0426 46.0817 35.206 46.4084 35.486 46.6617C35.766 46.9151 36.1393 47.0417 36.606 47.0417C37.0726 47.0417 37.426 46.9217 37.666 46.6817C37.9126 46.4351 38.036 46.1184 38.036 45.7317C38.036 45.2317 37.8693 44.8717 37.536 44.6517C37.2026 44.4317 36.6993 44.3217 36.026 44.3217H35.796V43.5617H36.036C36.6493 43.5551 37.1126 43.4551 37.426 43.2617C37.7393 43.0617 37.896 42.7551 37.896 42.3417C37.896 41.9884 37.7793 41.7051 37.546 41.4917C37.3193 41.2784 36.9926 41.1717 36.566 41.1717C36.1526 41.1717 35.8193 41.2784 35.566 41.4917C35.3126 41.7051 35.1626 41.9917 35.116 42.3517H34.226ZM40.1346 44.0717C40.1346 42.9251 40.3213 42.0317 40.6946 41.3917C41.068 40.7451 41.7213 40.4217 42.6546 40.4217C43.5813 40.4217 44.2313 40.7451 44.6046 41.3917C44.978 42.0317 45.1646 42.9251 45.1646 44.0717C45.1646 45.2384 44.978 46.1451 44.6046 46.7917C44.2313 47.4384 43.5813 47.7617 42.6546 47.7617C41.7213 47.7617 41.068 47.4384 40.6946 46.7917C40.3213 46.1451 40.1346 45.2384 40.1346 44.0717ZM44.2646 44.0717C44.2646 43.4917 44.2246 43.0017 44.1446 42.6017C44.0713 42.1951 43.9146 41.8684 43.6746 41.6217C43.4413 41.3751 43.1013 41.2517 42.6546 41.2517C42.2013 41.2517 41.8546 41.3751 41.6146 41.6217C41.3813 41.8684 41.2246 42.1951 41.1446 42.6017C41.0713 43.0017 41.0346 43.4917 41.0346 44.0717C41.0346 44.6717 41.0713 45.1751 41.1446 45.5817C41.2246 45.9884 41.3813 46.3151 41.6146 46.5617C41.8546 46.8084 42.2013 46.9317 42.6546 46.9317C43.1013 46.9317 43.4413 46.8084 43.6746 46.5617C43.9146 46.3151 44.0713 45.9884 44.1446 45.5817C44.2246 45.1751 44.2646 44.6717 44.2646 44.0717ZM53.89 42.8317C53.89 43.4117 53.69 43.8951 53.29 44.2817C52.8966 44.6617 52.2933 44.8517 51.48 44.8517H50.14V47.7617H49.23V40.7917H51.48C52.2666 40.7917 52.8633 40.9817 53.27 41.3617C53.6833 41.7417 53.89 42.2317 53.89 42.8317ZM51.48 44.1017C51.9866 44.1017 52.36 43.9917 52.6 43.7717C52.84 43.5517 52.96 43.2384 52.96 42.8317C52.96 41.9717 52.4666 41.5417 51.48 41.5417H50.14V44.1017H51.48ZM62.091 40.8417V47.7617H61.181V42.6017L58.881 47.7617H58.241L55.931 42.5917V47.7617H55.021V40.8417H56.001L58.561 46.5617L61.121 40.8417H62.091Z" fill="#333333"/>
<rect x="68.783" y="25.7225" width="0.643165" height="13.1425" rx="0.321582" fill="#333333" stroke="#E0E0E0" stroke-width="0.643165"/>
<circle cx="69.718" cy="20.3809" r="3.06348" stroke="url(#paint0_linear_0_4976)" stroke-width="1.53174"/>
<path d="M77.0548 20.1929C77.0548 19.3769 77.2428 18.6449 77.6188 17.9969C78.0028 17.3489 78.5188 16.8449 79.1668 16.4849C79.8228 16.1169 80.5388 15.9329 81.3148 15.9329C82.2028 15.9329 82.9908 16.1529 83.6788 16.5929C84.3748 17.0249 84.8788 17.6409 85.1908 18.4409H83.5468C83.3308 18.0009 83.0308 17.6729 82.6468 17.4569C82.2628 17.2409 81.8188 17.1329 81.3148 17.1329C80.7628 17.1329 80.2708 17.2569 79.8388 17.5049C79.4068 17.7529 79.0668 18.1089 78.8188 18.5729C78.5788 19.0369 78.4588 19.5769 78.4588 20.1929C78.4588 20.8089 78.5788 21.3489 78.8188 21.8129C79.0668 22.2769 79.4068 22.6369 79.8388 22.8929C80.2708 23.1409 80.7628 23.2649 81.3148 23.2649C81.8188 23.2649 82.2628 23.1569 82.6468 22.9409C83.0308 22.7249 83.3308 22.3969 83.5468 21.9569H85.1908C84.8788 22.7569 84.3748 23.3729 83.6788 23.8049C82.9908 24.2369 82.2028 24.4529 81.3148 24.4529C80.5308 24.4529 79.8148 24.2729 79.1668 23.9129C78.5188 23.5449 78.0028 23.0369 77.6188 22.3889C77.2428 21.7409 77.0548 21.0089 77.0548 20.1929ZM90.2121 17.6609C90.7161 17.6609 91.1641 17.7689 91.5561 17.9849C91.9561 18.2009 92.2681 18.5209 92.4921 18.9449C92.7241 19.3689 92.8401 19.8809 92.8401 20.4809V24.3809H91.4841V20.6849C91.4841 20.0929 91.3361 19.6409 91.0401 19.3289C90.7441 19.0089 90.3401 18.8489 89.8281 18.8489C89.3161 18.8489 88.9081 19.0089 88.6041 19.3289C88.3081 19.6409 88.1601 20.0929 88.1601 20.6849V24.3809H86.7921V15.5009H88.1601V18.5369C88.3921 18.2569 88.6841 18.0409 89.0361 17.8889C89.3961 17.7369 89.7881 17.6609 90.2121 17.6609ZM95.2811 16.8929C95.0331 16.8929 94.8251 16.8089 94.6571 16.6409C94.4891 16.4729 94.4051 16.2649 94.4051 16.0169C94.4051 15.7689 94.4891 15.5609 94.6571 15.3929C94.8251 15.2249 95.0331 15.1409 95.2811 15.1409C95.5211 15.1409 95.7251 15.2249 95.8931 15.3929C96.0611 15.5609 96.1451 15.7689 96.1451 16.0169C96.1451 16.2649 96.0611 16.4729 95.8931 16.6409C95.7251 16.8089 95.5211 16.8929 95.2811 16.8929ZM95.9531 17.7689V24.3809H94.5851V17.7689H95.9531ZM97.2931 21.0689C97.2931 20.3889 97.4291 19.7929 97.7011 19.2809C97.9811 18.7609 98.3651 18.3609 98.8531 18.0809C99.3411 17.8009 99.9011 17.6609 100.533 17.6609C101.333 17.6609 101.993 17.8529 102.513 18.2369C103.041 18.6129 103.397 19.1529 103.581 19.8569H102.105C101.985 19.5289 101.793 19.2729 101.529 19.0889C101.265 18.9049 100.933 18.8129 100.533 18.8129C99.9731 18.8129 99.5251 19.0129 99.1891 19.4129C98.8611 19.8049 98.6971 20.3569 98.6971 21.0689C98.6971 21.7809 98.8611 22.3369 99.1891 22.7369C99.5251 23.1369 99.9731 23.3369 100.533 23.3369C101.325 23.3369 101.849 22.9889 102.105 22.2929H103.581C103.389 22.9649 103.029 23.5009 102.501 23.9009C101.973 24.2929 101.317 24.4889 100.533 24.4889C99.9011 24.4889 99.3411 24.3489 98.8531 24.0689C98.3651 23.7809 97.9811 23.3809 97.7011 22.8689C97.4291 22.3489 97.2931 21.7489 97.2931 21.0689ZM104.488 21.0449C104.488 20.3809 104.624 19.7929 104.896 19.2809C105.176 18.7689 105.552 18.3729 106.024 18.0929C106.504 17.8049 107.032 17.6609 107.608 17.6609C108.128 17.6609 108.58 17.7649 108.964 17.9729C109.356 18.1729 109.668 18.4249 109.9 18.7289V17.7689H111.28V24.3809H109.9V23.3969C109.668 23.7089 109.352 23.9689 108.952 24.1769C108.552 24.3849 108.096 24.4889 107.584 24.4889C107.016 24.4889 106.496 24.3449 106.024 24.0569C105.552 23.7609 105.176 23.3529 104.896 22.8329C104.624 22.3049 104.488 21.7089 104.488 21.0449ZM109.9 21.0689C109.9 20.6129 109.804 20.2169 109.612 19.8809C109.428 19.5449 109.184 19.2889 108.88 19.1129C108.576 18.9369 108.248 18.8489 107.896 18.8489C107.544 18.8489 107.216 18.9369 106.912 19.1129C106.608 19.2809 106.36 19.5329 106.168 19.8689C105.984 20.1969 105.892 20.5889 105.892 21.0449C105.892 21.5009 105.984 21.9009 106.168 22.2449C106.36 22.5889 106.608 22.8529 106.912 23.0369C107.224 23.2129 107.552 23.3009 107.896 23.3009C108.248 23.3009 108.576 23.2129 108.88 23.0369C109.184 22.8609 109.428 22.6049 109.612 22.2689C109.804 21.9249 109.9 21.5249 109.9 21.0689ZM115.741 17.6609C116.253 17.6609 116.705 17.7649 117.097 17.9729C117.497 18.1729 117.809 18.4249 118.033 18.7289V17.7689H119.413V24.4889C119.413 25.0969 119.285 25.6369 119.029 26.1089C118.773 26.5889 118.401 26.9649 117.913 27.2369C117.433 27.5089 116.857 27.6449 116.185 27.6449C115.289 27.6449 114.545 27.4329 113.953 27.0089C113.361 26.5929 113.025 26.0249 112.945 25.3049H114.301C114.405 25.6489 114.625 25.9249 114.961 26.1329C115.305 26.3489 115.713 26.4569 116.185 26.4569C116.737 26.4569 117.181 26.2889 117.517 25.9529C117.861 25.6169 118.033 25.1289 118.033 24.4889V23.3849C117.801 23.6969 117.485 23.9609 117.085 24.1769C116.693 24.3849 116.245 24.4889 115.741 24.4889C115.165 24.4889 114.637 24.3449 114.157 24.0569C113.685 23.7609 113.309 23.3529 113.029 22.8329C112.757 22.3049 112.621 21.7089 112.621 21.0449C112.621 20.3809 112.757 19.7929 113.029 19.2809C113.309 18.7689 113.685 18.3729 114.157 18.0929C114.637 17.8049 115.165 17.6609 115.741 17.6609ZM118.033 21.0689C118.033 20.6129 117.937 20.2169 117.745 19.8809C117.561 19.5449 117.317 19.2889 117.013 19.1129C116.709 18.9369 116.381 18.8489 116.029 18.8489C115.677 18.8489 115.349 18.9369 115.045 19.1129C114.741 19.2809 114.493 19.5329 114.301 19.8689C114.117 20.1969 114.025 20.5889 114.025 21.0449C114.025 21.5009 114.117 21.9009 114.301 22.2449C114.493 22.5889 114.741 22.8529 115.045 23.0369C115.357 23.2129 115.685 23.3009 116.029 23.3009C116.381 23.3009 116.709 23.2129 117.013 23.0369C117.317 22.8609 117.561 22.6049 117.745 22.2689C117.937 21.9249 118.033 21.5249 118.033 21.0689ZM124.078 24.4889C123.454 24.4889 122.89 24.3489 122.386 24.0689C121.882 23.7809 121.486 23.3809 121.198 22.8689C120.91 22.3489 120.766 21.7489 120.766 21.0689C120.766 20.3969 120.914 19.8009 121.21 19.2809C121.506 18.7609 121.91 18.3609 122.422 18.0809C122.934 17.8009 123.506 17.6609 124.138 17.6609C124.77 17.6609 125.342 17.8009 125.854 18.0809C126.366 18.3609 126.77 18.7609 127.066 19.2809C127.362 19.8009 127.51 20.3969 127.51 21.0689C127.51 21.7409 127.358 22.3369 127.054 22.8569C126.75 23.3769 126.334 23.7809 125.806 24.0689C125.286 24.3489 124.71 24.4889 124.078 24.4889ZM124.078 23.3009C124.43 23.3009 124.758 23.2169 125.062 23.0489C125.374 22.8809 125.626 22.6289 125.818 22.2929C126.01 21.9569 126.106 21.5489 126.106 21.0689C126.106 20.5889 126.014 20.1849 125.83 19.8569C125.646 19.5209 125.402 19.2689 125.098 19.1009C124.794 18.9329 124.466 18.8489 124.114 18.8489C123.762 18.8489 123.434 18.9329 123.13 19.1009C122.834 19.2689 122.598 19.5209 122.422 19.8569C122.246 20.1849 122.158 20.5889 122.158 21.0689C122.158 21.7809 122.338 22.3329 122.698 22.7249C123.066 23.1089 123.526 23.3009 124.078 23.3009ZM130.362 22.7369L128.91 26.0489H128.022L128.874 22.7369H130.362ZM136.043 16.0409V24.3809H134.675V16.0409H136.043ZM139.207 23.2769H142.027V24.3809H137.839V16.0409H139.207V23.2769Z" fill="#606060"/>
<circle cx="69.718" cy="44.8887" r="3.06348" stroke="#EB5757" stroke-width="1.53174"/>
<path d="M88.3708 40.5487L85.8988 48.8887H84.3508L82.5988 42.5767L80.7388 48.8887L79.2028 48.9007L76.8388 40.5487H78.2908L80.0188 47.3407L81.8908 40.5487H83.4268L85.1668 47.3047L86.9068 40.5487H88.3708ZM89.0431 45.5527C89.0431 44.8887 89.1791 44.3007 89.4511 43.7887C89.7311 43.2767 90.1071 42.8807 90.5791 42.6007C91.0591 42.3127 91.5871 42.1687 92.1631 42.1687C92.6831 42.1687 93.1351 42.2727 93.5191 42.4807C93.9111 42.6807 94.2231 42.9327 94.4551 43.2367V42.2767H95.8351V48.8887H94.4551V47.9047C94.2231 48.2167 93.9071 48.4767 93.5071 48.6847C93.1071 48.8927 92.6511 48.9967 92.1391 48.9967C91.5711 48.9967 91.0511 48.8527 90.5791 48.5647C90.1071 48.2687 89.7311 47.8607 89.4511 47.3407C89.1791 46.8127 89.0431 46.2167 89.0431 45.5527ZM94.4551 45.5767C94.4551 45.1207 94.3591 44.7247 94.1671 44.3887C93.9831 44.0527 93.7391 43.7967 93.4351 43.6207C93.1311 43.4447 92.8031 43.3567 92.4511 43.3567C92.0991 43.3567 91.7711 43.4447 91.4671 43.6207C91.1631 43.7887 90.9151 44.0407 90.7231 44.3767C90.5391 44.7047 90.4471 45.0967 90.4471 45.5527C90.4471 46.0087 90.5391 46.4087 90.7231 46.7527C90.9151 47.0967 91.1631 47.3607 91.4671 47.5447C91.7791 47.7207 92.1071 47.8087 92.4511 47.8087C92.8031 47.8087 93.1311 47.7207 93.4351 47.5447C93.7391 47.3687 93.9831 47.1127 94.1671 46.7767C94.3591 46.4327 94.4551 46.0327 94.4551 45.5767ZM100.032 48.9967C99.5119 48.9967 99.0439 48.9047 98.6279 48.7207C98.2199 48.5287 97.8959 48.2727 97.6559 47.9527C97.4159 47.6247 97.2879 47.2607 97.2719 46.8607H98.6879C98.7119 47.1407 98.8439 47.3767 99.0839 47.5687C99.3319 47.7527 99.6399 47.8447 100.008 47.8447C100.392 47.8447 100.688 47.7727 100.896 47.6287C101.112 47.4767 101.22 47.2847 101.22 47.0527C101.22 46.8047 101.1 46.6207 100.86 46.5007C100.628 46.3807 100.256 46.2487 99.7439 46.1047C99.2479 45.9687 98.8439 45.8367 98.5319 45.7087C98.2199 45.5807 97.9479 45.3847 97.7159 45.1207C97.4919 44.8567 97.3799 44.5087 97.3799 44.0767C97.3799 43.7247 97.4839 43.4047 97.6919 43.1167C97.8999 42.8207 98.1959 42.5887 98.5799 42.4207C98.9719 42.2527 99.4199 42.1687 99.9239 42.1687C100.676 42.1687 101.28 42.3607 101.736 42.7447C102.2 43.1207 102.448 43.6367 102.48 44.2927H101.112C101.088 43.9967 100.968 43.7607 100.752 43.5847C100.536 43.4087 100.244 43.3207 99.8759 43.3207C99.5159 43.3207 99.2399 43.3887 99.0479 43.5247C98.8559 43.6607 98.7599 43.8407 98.7599 44.0647C98.7599 44.2407 98.8239 44.3887 98.9519 44.5087C99.0799 44.6287 99.2359 44.7247 99.4199 44.7967C99.6039 44.8607 99.8759 44.9447 100.236 45.0487C100.716 45.1767 101.108 45.3087 101.412 45.4447C101.724 45.5727 101.992 45.7647 102.216 46.0207C102.44 46.2767 102.556 46.6167 102.564 47.0407C102.564 47.4167 102.46 47.7527 102.252 48.0487C102.044 48.3447 101.748 48.5767 101.364 48.7447C100.988 48.9127 100.544 48.9967 100.032 48.9967ZM107.462 42.1687C107.966 42.1687 108.414 42.2767 108.806 42.4927C109.206 42.7087 109.518 43.0287 109.742 43.4527C109.974 43.8767 110.09 44.3887 110.09 44.9887V48.8887H108.734V45.1927C108.734 44.6007 108.586 44.1487 108.29 43.8367C107.994 43.5167 107.59 43.3567 107.078 43.3567C106.566 43.3567 106.158 43.5167 105.854 43.8367C105.558 44.1487 105.41 44.6007 105.41 45.1927V48.8887H104.042V40.0087H105.41V43.0447C105.642 42.7647 105.934 42.5487 106.286 42.3967C106.646 42.2447 107.038 42.1687 107.462 42.1687ZM112.531 41.4007C112.283 41.4007 112.075 41.3167 111.907 41.1487C111.739 40.9807 111.655 40.7727 111.655 40.5247C111.655 40.2767 111.739 40.0687 111.907 39.9007C112.075 39.7327 112.283 39.6487 112.531 39.6487C112.771 39.6487 112.975 39.7327 113.143 39.9007C113.311 40.0687 113.395 40.2767 113.395 40.5247C113.395 40.7727 113.311 40.9807 113.143 41.1487C112.975 41.3167 112.771 41.4007 112.531 41.4007ZM113.203 42.2767V48.8887H111.835V42.2767H113.203ZM118.335 42.1687C118.855 42.1687 119.319 42.2767 119.727 42.4927C120.143 42.7087 120.467 43.0287 120.699 43.4527C120.931 43.8767 121.047 44.3887 121.047 44.9887V48.8887H119.691V45.1927C119.691 44.6007 119.543 44.1487 119.247 43.8367C118.951 43.5167 118.547 43.3567 118.035 43.3567C117.523 43.3567 117.115 43.5167 116.811 43.8367C116.515 44.1487 116.367 44.6007 116.367 45.1927V48.8887H114.999V42.2767H116.367V43.0327C116.591 42.7607 116.875 42.5487 117.219 42.3967C117.571 42.2447 117.943 42.1687 118.335 42.1687ZM125.456 42.1687C125.968 42.1687 126.42 42.2727 126.812 42.4807C127.212 42.6807 127.524 42.9327 127.748 43.2367V42.2767H129.128V48.9967C129.128 49.6047 129 50.1447 128.744 50.6167C128.488 51.0967 128.116 51.4727 127.628 51.7447C127.148 52.0167 126.572 52.1527 125.9 52.1527C125.004 52.1527 124.26 51.9407 123.668 51.5167C123.076 51.1007 122.74 50.5327 122.66 49.8127H124.016C124.12 50.1567 124.34 50.4327 124.676 50.6407C125.02 50.8567 125.428 50.9647 125.9 50.9647C126.452 50.9647 126.896 50.7967 127.232 50.4607C127.576 50.1247 127.748 49.6367 127.748 48.9967V47.8927C127.516 48.2047 127.2 48.4687 126.8 48.6847C126.408 48.8927 125.96 48.9967 125.456 48.9967C124.88 48.9967 124.352 48.8527 123.872 48.5647C123.4 48.2687 123.024 47.8607 122.744 47.3407C122.472 46.8127 122.336 46.2167 122.336 45.5527C122.336 44.8887 122.472 44.3007 122.744 43.7887C123.024 43.2767 123.4 42.8807 123.872 42.6007C124.352 42.3127 124.88 42.1687 125.456 42.1687ZM127.748 45.5767C127.748 45.1207 127.652 44.7247 127.46 44.3887C127.276 44.0527 127.032 43.7967 126.728 43.6207C126.424 43.4447 126.096 43.3567 125.744 43.3567C125.392 43.3567 125.064 43.4447 124.76 43.6207C124.456 43.7887 124.208 44.0407 124.016 44.3767C123.832 44.7047 123.74 45.0967 123.74 45.5527C123.74 46.0087 123.832 46.4087 124.016 46.7527C124.208 47.0967 124.456 47.3607 124.76 47.5447C125.072 47.7207 125.4 47.8087 125.744 47.8087C126.096 47.8087 126.424 47.7207 126.728 47.5447C127.032 47.3687 127.276 47.1127 127.46 46.7767C127.652 46.4327 127.748 46.0327 127.748 45.5767ZM132.521 43.3927V47.0527C132.521 47.3007 132.577 47.4807 132.689 47.5927C132.809 47.6967 133.009 47.7487 133.289 47.7487H134.129V48.8887H133.049C132.433 48.8887 131.961 48.7447 131.633 48.4567C131.305 48.1687 131.141 47.7007 131.141 47.0527V43.3927H130.361V42.2767H131.141V40.6327H132.521V42.2767H134.129V43.3927H132.521ZM138.258 48.9967C137.634 48.9967 137.07 48.8567 136.566 48.5767C136.062 48.2887 135.666 47.8887 135.378 47.3767C135.09 46.8567 134.946 46.2567 134.946 45.5767C134.946 44.9047 135.094 44.3087 135.39 43.7887C135.686 43.2687 136.09 42.8687 136.602 42.5887C137.114 42.3087 137.686 42.1687 138.318 42.1687C138.95 42.1687 139.522 42.3087 140.034 42.5887C140.546 42.8687 140.95 43.2687 141.246 43.7887C141.542 44.3087 141.69 44.9047 141.69 45.5767C141.69 46.2487 141.538 46.8447 141.234 47.3647C140.93 47.8847 140.514 48.2887 139.986 48.5767C139.466 48.8567 138.89 48.9967 138.258 48.9967ZM138.258 47.8087C138.61 47.8087 138.938 47.7247 139.242 47.5567C139.554 47.3887 139.806 47.1367 139.998 46.8007C140.19 46.4647 140.286 46.0567 140.286 45.5767C140.286 45.0967 140.194 44.6927 140.01 44.3647C139.826 44.0287 139.582 43.7767 139.278 43.6087C138.974 43.4407 138.646 43.3567 138.294 43.3567C137.942 43.3567 137.614 43.4407 137.31 43.6087C137.014 43.7767 136.778 44.0287 136.602 44.3647C136.426 44.6927 136.338 45.0967 136.338 45.5767C136.338 46.2887 136.518 46.8407 136.878 47.2327C137.246 47.6167 137.706 47.8087 138.258 47.8087ZM146.378 42.1687C146.898 42.1687 147.362 42.2767 147.77 42.4927C148.186 42.7087 148.51 43.0287 148.742 43.4527C148.974 43.8767 149.09 44.3887 149.09 44.9887V48.8887H147.734V45.1927C147.734 44.6007 147.586 44.1487 147.29 43.8367C146.994 43.5167 146.59 43.3567 146.078 43.3567C145.566 43.3567 145.158 43.5167 144.854 43.8367C144.558 44.1487 144.41 44.6007 144.41 45.1927V48.8887H143.042V42.2767H144.41V43.0327C144.634 42.7607 144.918 42.5487 145.262 42.3967C145.614 42.2447 145.986 42.1687 146.378 42.1687ZM152.335 47.2447L150.883 50.5567H149.995L150.847 47.2447H152.335ZM159.372 40.5487C160.26 40.5487 161.036 40.7207 161.7 41.0647C162.372 41.4007 162.888 41.8887 163.248 42.5287C163.616 43.1607 163.8 43.9007 163.8 44.7487C163.8 45.5967 163.616 46.3327 163.248 46.9567C162.888 47.5807 162.372 48.0607 161.7 48.3967C161.036 48.7247 160.26 48.8887 159.372 48.8887H156.648V40.5487H159.372ZM159.372 47.7727C160.348 47.7727 161.096 47.5087 161.616 46.9807C162.136 46.4527 162.396 45.7087 162.396 44.7487C162.396 43.7807 162.136 43.0247 161.616 42.4807C161.096 41.9367 160.348 41.6647 159.372 41.6647H158.016V47.7727H159.372ZM164.699 44.7007C164.699 43.8847 164.887 43.1527 165.263 42.5047C165.647 41.8567 166.163 41.3527 166.811 40.9927C167.467 40.6247 168.183 40.4407 168.959 40.4407C169.847 40.4407 170.635 40.6607 171.323 41.1007C172.019 41.5327 172.523 42.1487 172.835 42.9487H171.191C170.975 42.5087 170.675 42.1807 170.291 41.9647C169.907 41.7487 169.463 41.6407 168.959 41.6407C168.407 41.6407 167.915 41.7647 167.483 42.0127C167.051 42.2607 166.711 42.6167 166.463 43.0807C166.223 43.5447 166.103 44.0847 166.103 44.7007C166.103 45.3167 166.223 45.8567 166.463 46.3207C166.711 46.7847 167.051 47.1447 167.483 47.4007C167.915 47.6487 168.407 47.7727 168.959 47.7727C169.463 47.7727 169.907 47.6647 170.291 47.4487C170.675 47.2327 170.975 46.9047 171.191 46.4647H172.835C172.523 47.2647 172.019 47.8807 171.323 48.3127C170.635 48.7447 169.847 48.9607 168.959 48.9607C168.175 48.9607 167.459 48.7807 166.811 48.4207C166.163 48.0527 165.647 47.5447 165.263 46.8967C164.887 46.2487 164.699 45.5167 164.699 44.7007Z" fill="#606060"/>
<path d="M208.548 47.3857C208.548 47.7857 208.448 48.1617 208.248 48.5137C208.056 48.8657 207.768 49.1617 207.384 49.4017C207.008 49.6417 206.56 49.7857 206.04 49.8337V50.8057H205.26V49.8337C204.508 49.7617 203.9 49.5257 203.436 49.1257C202.972 48.7257 202.74 48.1977 202.74 47.5417H204.204C204.228 47.8537 204.328 48.1137 204.504 48.3217C204.68 48.5217 204.932 48.6497 205.26 48.7057V46.0657C204.724 45.9297 204.288 45.7937 203.952 45.6577C203.616 45.5137 203.328 45.2897 203.088 44.9857C202.856 44.6817 202.74 44.2657 202.74 43.7377C202.74 43.0737 202.972 42.5257 203.436 42.0937C203.9 41.6537 204.508 41.3977 205.26 41.3257V40.3537H206.04V41.3257C206.744 41.3897 207.308 41.6137 207.732 41.9977C208.164 42.3737 208.408 42.8937 208.464 43.5577H207C206.976 43.3097 206.88 43.0897 206.712 42.8977C206.544 42.6977 206.32 42.5617 206.04 42.4897V45.0817C206.576 45.2097 207.012 45.3457 207.348 45.4897C207.684 45.6257 207.968 45.8457 208.2 46.1497C208.432 46.4457 208.548 46.8577 208.548 47.3857ZM204.132 43.6657C204.132 43.9937 204.228 44.2497 204.42 44.4337C204.62 44.6177 204.9 44.7657 205.26 44.8777V42.4537C204.916 42.4937 204.64 42.6177 204.432 42.8257C204.232 43.0337 204.132 43.3137 204.132 43.6657ZM206.04 48.7057C206.392 48.6497 206.668 48.5097 206.868 48.2857C207.068 48.0537 207.168 47.7777 207.168 47.4577C207.168 47.1377 207.068 46.8897 206.868 46.7137C206.676 46.5297 206.4 46.3817 206.04 46.2697V48.7057ZM210.376 47.9377V46.9057L214.408 41.1217H216.064V46.7497H217.18V47.9377H216.064V49.7617H214.72V47.9377H210.376ZM214.78 42.5137L211.948 46.7497H214.78V42.5137ZM223.954 42.1897H219.934V44.5777C220.102 44.3537 220.35 44.1657 220.678 44.0137C221.014 43.8617 221.37 43.7857 221.746 43.7857C222.418 43.7857 222.962 43.9297 223.378 44.2177C223.802 44.5057 224.102 44.8697 224.278 45.3097C224.462 45.7497 224.554 46.2137 224.554 46.7017C224.554 47.2937 224.438 47.8217 224.206 48.2857C223.982 48.7417 223.642 49.1017 223.186 49.3657C222.738 49.6297 222.186 49.7617 221.53 49.7617C220.658 49.7617 219.958 49.5457 219.43 49.1137C218.902 48.6817 218.586 48.1097 218.482 47.3977H219.814C219.902 47.7737 220.098 48.0737 220.402 48.2977C220.706 48.5137 221.086 48.6217 221.542 48.6217C222.11 48.6217 222.534 48.4497 222.814 48.1057C223.102 47.7617 223.246 47.3057 223.246 46.7377C223.246 46.1617 223.102 45.7217 222.814 45.4177C222.526 45.1057 222.102 44.9497 221.542 44.9497C221.15 44.9497 220.818 45.0497 220.546 45.2497C220.282 45.4417 220.09 45.7057 219.97 46.0417H218.674V40.9897H223.954V42.1897ZM231.522 42.0697L228.186 49.7617H226.806L230.178 42.2137H225.738V41.0497H231.522V42.0697ZM233.425 49.8457C233.177 49.8457 232.969 49.7617 232.801 49.5937C232.633 49.4257 232.549 49.2177 232.549 48.9697C232.549 48.7217 232.633 48.5137 232.801 48.3457C232.969 48.1777 233.177 48.0937 233.425 48.0937C233.665 48.0937 233.869 48.1777 234.037 48.3457C234.205 48.5137 234.289 48.7217 234.289 48.9697C234.289 49.2177 234.205 49.4257 234.037 49.5937C233.869 49.7617 233.665 49.8457 233.425 49.8457ZM235.407 42.2617V41.0137H237.903V49.7617H236.523V42.2617H235.407ZM240.539 47.9017C241.307 47.2377 241.911 46.6937 242.351 46.2697C242.799 45.8377 243.171 45.3897 243.467 44.9257C243.763 44.4617 243.911 43.9977 243.911 43.5337C243.911 43.0537 243.795 42.6777 243.563 42.4057C243.339 42.1337 242.983 41.9977 242.495 41.9977C242.023 41.9977 241.655 42.1497 241.391 42.4537C241.135 42.7497 240.999 43.1497 240.983 43.6537H239.663C239.687 42.7417 239.959 42.0457 240.479 41.5657C241.007 41.0777 241.675 40.8337 242.483 40.8337C243.355 40.8337 244.035 41.0737 244.523 41.5537C245.019 42.0337 245.267 42.6737 245.267 43.4737C245.267 44.0497 245.119 44.6057 244.823 45.1417C244.535 45.6697 244.187 46.1457 243.779 46.5697C243.379 46.9857 242.867 47.4697 242.243 48.0217L241.703 48.5017H245.507V49.6417H239.675V48.6457L240.539 47.9017Z" fill="#333333"/>
<path d="M192.784 14.6184H188.764V17.0064C188.932 16.7824 189.18 16.5944 189.508 16.4424C189.844 16.2904 190.2 16.2144 190.576 16.2144C191.248 16.2144 191.792 16.3584 192.208 16.6464C192.632 16.9344 192.932 17.2984 193.108 17.7384C193.292 18.1784 193.384 18.6424 193.384 19.1304C193.384 19.7224 193.268 20.2504 193.036 20.7144C192.812 21.1704 192.472 21.5304 192.016 21.7944C191.568 22.0584 191.016 22.1904 190.36 22.1904C189.488 22.1904 188.788 21.9744 188.26 21.5424C187.732 21.1104 187.416 20.5384 187.312 19.8264H188.644C188.732 20.2024 188.928 20.5024 189.232 20.7264C189.536 20.9424 189.916 21.0504 190.372 21.0504C190.94 21.0504 191.364 20.8784 191.644 20.5344C191.932 20.1904 192.076 19.7344 192.076 19.1664C192.076 18.5904 191.932 18.1504 191.644 17.8464C191.356 17.5344 190.932 17.3784 190.372 17.3784C189.98 17.3784 189.648 17.4784 189.376 17.6784C189.112 17.8704 188.92 18.1344 188.8 18.4704H187.504V13.4184H192.784V14.6184ZM196.512 19.8144C196.592 20.2144 196.764 20.5184 197.028 20.7264C197.292 20.9344 197.648 21.0384 198.096 21.0384C198.664 21.0384 199.08 20.8144 199.344 20.3664C199.608 19.9184 199.74 19.1544 199.74 18.0744C199.548 18.3464 199.276 18.5584 198.924 18.7104C198.58 18.8544 198.204 18.9264 197.796 18.9264C197.276 18.9264 196.804 18.8224 196.38 18.6144C195.956 18.3984 195.62 18.0824 195.372 17.6664C195.132 17.2424 195.012 16.7304 195.012 16.1304C195.012 15.2504 195.268 14.5504 195.78 14.0304C196.3 13.5024 197.012 13.2384 197.916 13.2384C199.004 13.2384 199.776 13.6024 200.232 14.3304C200.696 15.0504 200.928 16.1584 200.928 17.6544C200.928 18.6864 200.84 19.5304 200.664 20.1864C200.496 20.8424 200.2 21.3384 199.776 21.6744C199.352 22.0104 198.764 22.1784 198.012 22.1784C197.156 22.1784 196.496 21.9544 196.032 21.5064C195.568 21.0584 195.308 20.4944 195.252 19.8144H196.512ZM198.036 17.7744C198.516 17.7744 198.892 17.6264 199.164 17.3304C199.444 17.0264 199.584 16.6264 199.584 16.1304C199.584 15.5784 199.436 15.1504 199.14 14.8464C198.852 14.5344 198.456 14.3784 197.952 14.3784C197.448 14.3784 197.048 14.5384 196.752 14.8584C196.464 15.1704 196.32 15.5824 196.32 16.0944C196.32 16.5824 196.46 16.9864 196.74 17.3064C197.028 17.6184 197.46 17.7744 198.036 17.7744ZM202.257 20.3664V19.3344L206.289 13.5504H207.945V19.1784H209.061V20.3664H207.945V22.1904H206.601V20.3664H202.257ZM206.661 14.9424L203.829 19.1784H206.661V14.9424ZM211.875 20.5464L210.423 23.8584H209.535L210.387 20.5464H211.875ZM212.89 17.7024C212.89 16.3184 213.122 15.2384 213.586 14.4624C214.058 13.6784 214.866 13.2864 216.01 13.2864C217.154 13.2864 217.958 13.6784 218.422 14.4624C218.894 15.2384 219.13 16.3184 219.13 17.7024C219.13 19.1024 218.894 20.1984 218.422 20.9904C217.958 21.7744 217.154 22.1664 216.01 22.1664C214.866 22.1664 214.058 21.7744 213.586 20.9904C213.122 20.1984 212.89 19.1024 212.89 17.7024ZM217.786 17.7024C217.786 17.0544 217.742 16.5064 217.654 16.0584C217.574 15.6104 217.406 15.2464 217.15 14.9664C216.894 14.6784 216.514 14.5344 216.01 14.5344C215.506 14.5344 215.126 14.6784 214.87 14.9664C214.614 15.2464 214.442 15.6104 214.354 16.0584C214.274 16.5064 214.234 17.0544 214.234 17.7024C214.234 18.3744 214.274 18.9384 214.354 19.3944C214.434 19.8504 214.602 20.2184 214.858 20.4984C215.122 20.7784 215.506 20.9184 216.01 20.9184C216.514 20.9184 216.894 20.7784 217.15 20.4984C217.414 20.2184 217.586 19.8504 217.666 19.3944C217.746 18.9384 217.786 18.3744 217.786 17.7024ZM226.217 14.6184H222.197V17.0064C222.365 16.7824 222.613 16.5944 222.941 16.4424C223.277 16.2904 223.633 16.2144 224.009 16.2144C224.681 16.2144 225.225 16.3584 225.641 16.6464C226.065 16.9344 226.365 17.2984 226.541 17.7384C226.725 18.1784 226.817 18.6424 226.817 19.1304C226.817 19.7224 226.701 20.2504 226.469 20.7144C226.245 21.1704 225.905 21.5304 225.449 21.7944C225.001 22.0584 224.449 22.1904 223.793 22.1904C222.921 22.1904 222.221 21.9744 221.693 21.5424C221.165 21.1104 220.849 20.5384 220.745 19.8264H222.077C222.165 20.2024 222.361 20.5024 222.665 20.7264C222.969 20.9424 223.349 21.0504 223.805 21.0504C224.373 21.0504 224.797 20.8784 225.077 20.5344C225.365 20.1904 225.509 19.7344 225.509 19.1664C225.509 18.5904 225.365 18.1504 225.077 17.8464C224.789 17.5344 224.365 17.3784 223.805 17.3784C223.413 17.3784 223.081 17.4784 222.809 17.6784C222.545 17.8704 222.353 18.1344 222.233 18.4704H220.937V13.4184H226.217V14.6184ZM239.543 15.4704C240.063 15.4704 240.527 15.5784 240.935 15.7944C241.351 16.0104 241.675 16.3304 241.907 16.7544C242.147 17.1784 242.267 17.6904 242.267 18.2904V22.1904H240.911V18.4944C240.911 17.9024 240.763 17.4504 240.467 17.1384C240.171 16.8184 239.767 16.6584 239.255 16.6584C238.743 16.6584 238.335 16.8184 238.031 17.1384C237.735 17.4504 237.587 17.9024 237.587 18.4944V22.1904H236.231V18.4944C236.231 17.9024 236.083 17.4504 235.787 17.1384C235.491 16.8184 235.087 16.6584 234.575 16.6584C234.063 16.6584 233.655 16.8184 233.351 17.1384C233.055 17.4504 232.907 17.9024 232.907 18.4944V22.1904H231.539V15.5784H232.907V16.3344C233.131 16.0624 233.415 15.8504 233.759 15.6984C234.103 15.5464 234.471 15.4704 234.863 15.4704C235.391 15.4704 235.863 15.5824 236.279 15.8064C236.695 16.0304 237.015 16.3544 237.239 16.7784C237.439 16.3784 237.751 16.0624 238.175 15.8304C238.599 15.5904 239.055 15.4704 239.543 15.4704ZM244.703 14.7024C244.455 14.7024 244.247 14.6184 244.079 14.4504C243.911 14.2824 243.827 14.0744 243.827 13.8264C243.827 13.5784 243.911 13.3704 244.079 13.2024C244.247 13.0344 244.455 12.9504 244.703 12.9504C244.943 12.9504 245.147 13.0344 245.315 13.2024C245.483 13.3704 245.567 13.5784 245.567 13.8264C245.567 14.0744 245.483 14.2824 245.315 14.4504C245.147 14.6184 244.943 14.7024 244.703 14.7024ZM245.375 15.5784V22.1904H244.007V15.5784H245.375Z" fill="#333333"/>
</g>
<defs>
<filter id="filter0_d_0_4976" x="0.664949" y="0.904271" width="265.11" height="73.7492" filterUnits="userSpaceOnUse" color-interpolation-filters="sRGB">
<feFlood flood-opacity="0" result="BackgroundImageFix"/>
<feColorMatrix in="SourceAlpha" type="matrix" values="0 0 0 0 0 0 0 0 0 0 0 0 0 0 0 0 0 0 127 0" result="hardAlpha"/>
<feOffset dy="5.23932"/>
<feGaussianBlur stdDeviation="3.66753"/>
<feComposite in2="hardAlpha" operator="out"/>
<feColorMatrix type="matrix" values="0 0 0 0 0.483333 0 0 0 0 0.483333 0 0 0 0 0.483333 0 0 0 0.1 0"/>
<feBlend mode="normal" in2="BackgroundImageFix" result="effect1_dropShadow_0_4976"/>
<feBlend mode="normal" in="SourceGraphic" in2="effect1_dropShadow_0_4976" result="shape"/>
</filter>
<linearGradient id="paint0_linear_0_4976" x1="69.718" y1="16.5515" x2="69.718" y2="24.2102" gradientUnits="userSpaceOnUse">
<stop offset="0.0885417" stop-color="#25BEA9"/>
<stop offset="0.916667" stop-color="#00A992"/>
</linearGradient>
</defs>
</svg>
