<svg width="73" height="74" viewBox="0 0 73 74" fill="none" xmlns="http://www.w3.org/2000/svg">
<g clip-path="url(#clip0_0_10947)">
<path fill-rule="evenodd" clip-rule="evenodd" d="M67.4292 67.2766C67.4808 63.7239 64.6087 60.8033 61.0152 60.753C57.4214 60.7027 54.4667 63.5418 54.4152 67.0946C54.364 70.647 57.2357 73.5679 60.8295 73.6182C64.4234 73.6686 67.3781 70.8291 67.4292 67.2766Z" fill="url(#paint0_linear_0_10947)" stroke="url(#paint1_linear_0_10947)" stroke-width="0.00781782" stroke-miterlimit="10" stroke-linecap="round" stroke-linejoin="round"/>
<path fill-rule="evenodd" clip-rule="evenodd" d="M19.2271 67.4213C19.2796 63.7636 16.3229 60.7563 12.6227 60.7047C8.92277 60.6527 5.8804 63.5759 5.82753 67.2339C5.77466 70.8916 8.73137 73.8989 12.4316 73.9509C16.1318 74.0025 19.1742 71.0793 19.2271 67.4213Z" fill="url(#paint2_linear_0_10947)" stroke="url(#paint3_linear_0_10947)" stroke-width="0.00781782" stroke-miterlimit="10" stroke-linecap="round" stroke-linejoin="round"/>
<path fill-rule="evenodd" clip-rule="evenodd" d="M54.4266 41.2496C54.4266 41.2496 50.0869 33.8726 43.7666 31.2609C37.4462 28.6494 14.9132 28.797 10.2954 31.7441C5.67765 34.6908 5.05191 44.6001 3.69234 44.513C2.33278 44.426 0.881866 51.0195 2.20094 52.6618C3.03247 53.6975 1.43365 57.6927 1.03378 60.5521C0.799545 62.2265 1.00466 62.5764 1.8111 63.7603C2.27522 64.4415 4.84979 60.5693 6.17021 59.4923C7.49062 58.4149 10.8305 56.9652 13.9729 57.3383C17.1411 57.7139 19.7344 59.5932 21.0207 61.6059C22.738 64.2925 22.5663 67.226 22.5663 67.226L51.0108 66.6709C51.0108 66.6709 51.6137 62.4506 53.6917 60.3952C55.7701 58.3398 57.7052 57.138 60.9674 57.2214C63.7521 57.2926 65.8914 58.2905 67.8529 60.1764C69.8148 62.0624 71.1456 65.821 71.1456 65.821C71.1456 65.821 72.0725 62.9742 72.1253 60.5339C72.1782 58.0939 71.9356 58.963 71.2286 55.4755C70.5218 51.9883 68.9418 48.8357 66.8631 46.2815C64.7841 43.7276 54.4266 41.2496 54.4266 41.2496Z" fill="url(#paint4_linear_0_10947)"/>
<path d="M28.3847 28.7666C28.9646 28.7712 29.5442 28.7805 30.1237 28.7947C32.2646 28.8463 34.4045 28.9618 36.5358 29.172C38.0004 29.3167 39.4644 29.5063 40.9079 29.7916C41.4453 29.8979 41.9804 30.0183 42.5087 30.162C43.0575 30.3113 43.5979 30.486 44.1213 30.7071C45.5498 31.3102 46.8742 32.1399 48.0929 33.0882C49.6291 34.283 51.0081 35.6715 52.2559 37.157C52.8894 37.9113 53.4913 38.693 54.0565 39.4987C54.2586 39.7873 54.4557 40.0792 54.6475 40.3748C54.7144 40.4784 54.8004 40.6177 54.8439 40.6882C55.4613 40.8454 55.5797 40.8729 55.9461 40.9705C56.6609 41.1615 57.3733 41.3624 58.0823 41.5726C59.6551 42.0389 61.2161 42.551 62.7409 43.154C63.6109 43.4982 64.4716 43.8749 65.2934 44.3207C65.8994 44.6494 66.5044 45.0221 67.0094 45.4917C67.3082 45.7694 67.5555 46.0971 67.8011 46.4205C68.1584 46.8908 68.4981 47.373 68.8173 47.8695C69.9145 49.5754 70.7782 51.4276 71.3678 53.3638C71.5224 53.8709 71.6583 54.3842 71.7747 54.9009C71.8313 55.1528 71.8804 55.4053 71.9336 55.6579C71.9969 55.9594 72.0645 56.2602 72.1364 56.5598C72.2284 56.9431 72.3298 57.3234 72.4406 57.7017C72.5601 58.1094 72.6842 58.5159 72.7367 58.9389C72.795 59.4099 72.7906 59.8875 72.7826 60.3611C72.7782 60.6404 72.7679 60.9188 72.7471 61.1978C72.6748 62.1659 72.5065 63.1268 72.2914 64.0731C72.1672 64.6175 72.0267 65.1587 71.8677 65.6939C71.8513 65.7495 71.8346 65.8051 71.8175 65.8604C71.7824 65.9749 71.7519 66.0997 71.6773 66.1966C71.6532 66.2281 71.6288 66.2605 71.599 66.2867C71.5559 66.3244 71.5117 66.3628 71.4598 66.388C71.3919 66.4211 71.3196 66.4498 71.2447 66.4604C71.1647 66.4717 71.081 66.4671 71.0017 66.4522C70.9361 66.4396 70.8749 66.4095 70.8157 66.3787C70.7735 66.3565 70.7367 66.3257 70.7006 66.2949C70.6758 66.2734 70.6547 66.2486 70.6336 66.2235C70.5547 66.1295 70.5226 66.0169 70.4811 65.907C70.459 65.8485 70.4369 65.7895 70.4141 65.7313C70.377 65.6356 70.3388 65.5406 70.3004 65.4456C69.9851 64.6715 69.6288 63.9115 69.2252 63.1784C68.8903 62.5697 68.5222 61.9753 68.0949 61.4252C67.9276 61.2097 67.7509 61.0016 67.5615 60.8046C67.3068 60.5402 67.0311 60.2926 66.749 60.0569C65.869 59.3205 64.8808 58.7221 63.7876 58.3504C62.8862 58.0436 61.9405 57.8999 60.9895 57.8695C60.3889 57.8499 59.7836 57.8787 59.1896 57.9717C58.3925 58.0965 57.6206 58.3454 56.9071 58.7194C56.1884 59.0964 55.5402 59.5869 54.9339 60.1201C54.7642 60.2691 54.5996 60.423 54.436 60.5782C54.3025 60.705 54.1689 60.8331 54.0428 60.9671C53.8909 61.1287 53.75 61.3014 53.6195 61.4802C53.1815 62.0792 52.8479 62.7505 52.5728 63.4359C52.2686 64.1935 52.0344 64.9783 51.852 65.7727C51.8025 65.9898 51.756 66.2072 51.7152 66.4263C51.7001 66.5068 51.6867 66.5875 51.6733 66.6683C51.669 66.6938 51.6646 66.7203 51.6606 66.7457C51.66 66.7507 51.6593 66.7603 51.6586 66.7613C51.5756 66.902 51.5187 67.0615 51.4097 67.1833C51.3538 67.2459 51.2594 67.2617 51.1818 67.2952C51.161 67.3041 51.1373 67.3041 51.1149 67.3084C51.1048 67.3104 51.0948 67.3114 51.0847 67.3127C51.0028 67.3226 50.9137 67.3193 50.8328 67.321C50.4188 67.3289 50.0053 67.3375 49.5913 67.3458C47.8814 67.3792 46.1712 67.4127 44.4612 67.4461C39.3964 67.5447 34.3309 67.643 29.2664 67.742C27.7071 67.7724 26.1481 67.8036 24.5888 67.834C24.1016 67.8433 23.6143 67.8522 23.1271 67.8618C22.9812 67.8648 22.8357 67.8671 22.6898 67.8701C22.6346 67.8711 22.5767 67.876 22.5215 67.8711C22.5064 67.8698 22.4914 67.8701 22.4766 67.8661C22.4084 67.8476 22.3187 67.8578 22.2739 67.8039C22.1216 67.6209 22.0329 67.3945 21.9128 67.1896C21.9118 67.1876 21.9148 67.1433 21.9151 67.1337C21.9165 67.079 21.9175 67.0248 21.9172 66.9702C21.9165 66.7838 21.9085 66.5978 21.8951 66.4118C21.8148 65.2861 21.5494 64.1647 21.0953 63.1288C20.8424 62.5522 20.5301 61.9971 20.149 61.4937C19.6785 60.8721 19.113 60.3224 18.4916 59.8501C17.2602 58.9144 15.7959 58.2769 14.2617 58.0317C13.9294 57.9787 13.5951 57.9439 13.2588 57.9314C12.342 57.8966 11.4224 58.0115 10.5317 58.223C9.84804 58.3855 9.17779 58.6062 8.53231 58.8819C8.12742 59.0547 7.73156 59.2493 7.35176 59.4714C7.08574 59.627 6.82474 59.7958 6.58615 59.9907C6.44595 60.1053 6.31644 60.2317 6.18996 60.3611C5.84129 60.7172 5.51838 61.0975 5.19748 61.4782C4.70425 62.0633 4.22138 62.6588 3.71075 63.2291C3.46481 63.5038 3.21284 63.7762 2.93376 64.0185C2.74604 64.181 2.53958 64.3382 2.303 64.4239C2.03062 64.5222 1.73214 64.5093 1.48954 64.3441C1.31654 64.2263 1.21314 64.041 1.09937 63.8715C0.882538 63.5481 0.669044 63.2171 0.520142 62.8567C0.425446 62.6273 0.359856 62.3884 0.324722 62.1431C0.26181 61.7069 0.289917 61.2614 0.339439 60.8255C0.378593 60.4796 0.433144 60.1354 0.496048 59.7931C0.728615 58.5338 1.07761 57.2999 1.37677 56.055C1.48385 55.6082 1.58524 55.1591 1.66521 54.7063C1.72678 54.3578 1.77932 54.0046 1.78333 53.6504C1.78501 53.5283 1.77998 53.4049 1.76057 53.2841C1.75053 53.2235 1.73715 53.1619 1.71239 53.1053C1.69901 53.0745 1.67827 53.0524 1.65785 53.0256C1.63677 52.9974 1.62038 52.9739 1.6003 52.9448C1.53539 52.8505 1.47816 52.7508 1.42796 52.6479C1.31052 52.4079 1.22987 52.1518 1.17165 51.8919C1.06323 51.4087 1.02843 50.9099 1.02743 50.4161C1.02608 49.7895 1.08163 49.1623 1.17366 48.5427C1.2881 47.7729 1.45842 47.008 1.70169 46.2672C1.86565 45.7684 2.06141 45.2716 2.33646 44.8215C2.60115 44.3889 2.98161 43.948 3.51834 43.8749C3.52872 43.8736 3.53909 43.8752 3.54947 43.8739C3.57055 43.8451 3.59296 43.8166 3.61037 43.7872C3.65688 43.7071 3.69669 43.6243 3.73484 43.5399C3.85597 43.2695 3.95435 42.9882 4.04738 42.7072C4.18458 42.2921 4.30839 41.8728 4.4322 41.4538C4.60118 40.8805 4.76648 40.3072 4.94149 39.7356C5.2664 38.6735 5.61709 37.618 6.03838 36.5893C6.34121 35.8499 6.67951 35.1231 7.0757 34.4274C7.68103 33.3646 8.42825 32.3554 9.39697 31.5882C9.65162 31.3866 9.92065 31.2009 10.2054 31.0434C10.7401 30.7475 11.3194 30.5347 11.9026 30.3533C12.5645 30.1474 13.2408 29.9862 13.9197 29.8466C15.2321 29.5761 16.5625 29.3928 17.8943 29.2465C19.6468 29.0542 21.4065 28.934 23.1676 28.8576C24.9053 28.7825 26.6454 28.753 28.3847 28.7666ZM27.8399 30.0584C26.0196 30.0538 24.1983 30.0968 22.3803 30.1898C20.9933 30.2609 19.6079 30.3642 18.227 30.5115C16.948 30.6479 15.6725 30.823 14.4103 31.0692C13.6206 31.2231 12.8325 31.4068 12.0689 31.6597C11.5546 31.8301 11.0393 32.03 10.5859 32.3289C10.0655 32.6722 9.61448 33.109 9.21929 33.5867C8.66348 34.2585 8.21509 35.0132 7.8286 35.7907C7.03655 37.3827 6.49514 39.0849 5.9912 40.7835C5.81686 41.3707 5.64921 41.9592 5.46952 42.545C5.32797 43.0061 5.18175 43.4675 4.9957 43.9133C4.91539 44.1059 4.82705 44.2969 4.71864 44.476C4.60319 44.6663 4.46198 44.8463 4.27727 44.9754C4.15413 45.0618 4.01258 45.1237 3.86334 45.1482C3.81214 45.1568 3.77299 45.1594 3.72112 45.1608C3.67227 45.1949 3.63044 45.2448 3.59464 45.2898C3.50964 45.3971 3.43904 45.5156 3.37379 45.6354C3.17235 46.0071 3.02578 46.4079 2.9003 46.8104C2.69885 47.4555 2.55665 48.1191 2.45994 48.787C2.37026 49.4066 2.31873 50.0358 2.33981 50.662C2.34818 50.9159 2.36926 51.1701 2.41176 51.4203C2.44154 51.5944 2.48068 51.7682 2.54159 51.9343C2.57337 52.021 2.61185 52.1061 2.66071 52.1845C2.69083 52.2329 2.7273 52.2759 2.76009 52.3222C2.81932 52.406 2.86918 52.4943 2.91068 52.588C3.05924 52.9246 3.09472 53.3013 3.09037 53.6647C3.08602 54.0595 3.03515 54.4531 2.96923 54.842C2.88323 55.3497 2.76946 55.8531 2.64933 56.3539C2.46094 57.1383 2.25314 57.9181 2.06676 58.7029C1.92789 59.2874 1.79873 59.8759 1.70704 60.4697C1.6612 60.7666 1.62171 61.0654 1.60464 61.3653C1.58758 61.6615 1.5926 61.964 1.68729 62.2487C1.74586 62.4258 1.8342 62.5913 1.92989 62.7515C1.98377 62.8418 2.04333 62.9289 2.10123 63.0172C2.2063 62.9236 2.30702 62.8253 2.4044 62.7243C2.73835 62.3788 3.04887 62.0124 3.35806 61.6456C3.75727 61.1727 4.14944 60.6944 4.55466 60.2264C4.89966 59.8279 5.25536 59.4241 5.65456 59.0776C5.88747 58.8753 6.14178 58.6969 6.40211 58.5314C6.74276 58.3146 7.09879 58.121 7.46252 57.9449C7.94772 57.7099 8.44865 57.5074 8.95895 57.3326C10.5119 56.8004 12.1947 56.5184 13.8381 56.6736C15.6393 56.8438 17.3887 57.5034 18.8721 58.5228C19.8452 59.1917 20.7175 60.0212 21.3911 60.9877C22.0206 61.8906 22.478 62.9097 22.7808 63.9625C22.9866 64.6781 23.1225 65.4142 23.1867 66.1553C23.1984 66.292 23.2011 66.429 23.2075 66.5657C23.4377 66.5611 23.6676 66.5568 23.8978 66.5525C24.742 66.5359 25.5859 66.5203 26.4302 66.5038C29.0105 66.4535 31.5904 66.4032 34.1706 66.3529C37.9017 66.2801 41.6327 66.2062 45.3637 66.1334C46.6209 66.1089 47.8781 66.0844 49.1356 66.06C49.5492 66.052 49.9628 66.0444 50.3767 66.0361C50.4045 66.0358 50.4326 66.0348 50.4603 66.0341C50.5142 65.7594 50.5744 65.486 50.6414 65.214C50.8605 64.32 51.1413 63.4373 51.51 62.5919C51.837 61.8432 52.2345 61.1171 52.7471 60.4756C52.9954 60.1655 53.2748 59.8888 53.5629 59.6151C53.8243 59.3668 54.0916 59.1239 54.368 58.8922C54.8332 58.5023 55.3234 58.1412 55.8457 57.8291C56.3396 57.5335 56.8613 57.2833 57.4047 57.0903C58.4327 56.7256 59.5246 56.5734 60.6141 56.57C61.7223 56.5671 62.834 56.7034 63.8954 57.0255C64.6352 57.2495 65.3463 57.5623 66.0129 57.9509C66.5717 58.2769 67.098 58.6549 67.5929 59.069C67.9838 59.396 68.3626 59.7418 68.7025 60.1211C69.1101 60.5759 69.4688 61.0727 69.7971 61.5857C70.2277 62.2583 70.6055 62.9633 70.9485 63.6832C70.9689 63.7262 70.988 63.7696 71.0081 63.8126C71.0322 63.7067 71.0576 63.6011 71.0804 63.4948C71.2497 62.7064 71.3832 61.9071 71.4431 61.1025C71.4655 60.8036 71.4732 60.5047 71.4766 60.2049C71.4796 59.9388 71.4799 59.672 71.4652 59.4062C71.4545 59.2176 71.4347 59.0292 71.3972 58.8436C71.3373 58.549 71.2423 58.2614 71.1587 57.9727C71.0442 57.5779 70.9398 57.18 70.8451 56.7802C70.6698 56.0411 70.5369 55.2931 70.3462 54.5573C70.0678 53.484 69.699 52.4354 69.2523 51.4193C68.7089 50.1824 68.0373 48.9988 67.2613 47.8904C67.0589 47.6011 66.8491 47.3171 66.6329 47.0378C66.4706 46.8283 66.3083 46.6151 66.1132 46.434C65.9262 46.2599 65.7214 46.1067 65.5099 45.9634C65.2379 45.7787 64.9531 45.6122 64.664 45.4553C63.8746 45.027 63.0471 44.6686 62.2119 44.3383C60.7898 43.7759 59.3335 43.2987 57.8678 42.8604C57.117 42.6357 56.3624 42.4222 55.6051 42.22C55.1621 42.1018 55.6055 42.2203 54.273 41.8787C54.2687 41.8778 54.2646 41.8758 54.2603 41.8744C54.2218 41.8645 54.1837 41.8513 54.1475 41.8344C54.1472 41.8341 54.1465 41.8344 54.1465 41.8344C54.108 41.8165 54.0719 41.7943 54.0378 41.7692C54.0368 41.7685 54.0354 41.7679 54.0344 41.7672C54.002 41.743 53.9715 41.7156 53.9434 41.6854C53.9431 41.6851 53.9427 41.6848 53.9424 41.6845C53.9297 41.6702 53.9197 41.654 53.9079 41.6388C53.8936 41.6199 53.8785 41.6014 53.8661 41.5809C53.8651 41.5789 53.8631 41.5776 53.8621 41.5756C53.5265 41.0417 53.6409 41.2171 53.5265 41.041C53.3387 40.7531 53.146 40.4698 52.9479 40.1888C52.4142 39.4305 51.8467 38.695 51.2497 37.9844C50.0608 36.5691 48.7474 35.2435 47.2834 34.105C46.1812 33.2474 44.9893 32.4924 43.702 31.937C43.1228 31.6868 42.5191 31.4995 41.9078 31.3433C41.442 31.2241 40.9722 31.1218 40.5 31.0308C39.0682 30.7548 37.6183 30.5747 36.1667 30.436C34.004 30.2295 31.8326 30.1223 29.6606 30.0792C29.054 30.0673 28.4466 30.06 27.8399 30.0584Z" fill="url(#paint5_linear_0_10947)"/>
<path fill-rule="evenodd" clip-rule="evenodd" d="M50.5436 41.6117C49.1168 39.6781 48.7222 39.1333 47.2991 37.8729C45.876 36.6125 44.4006 35.4352 42.7165 34.5892C41.2883 33.8717 39.7427 33.4507 38.1579 33.1601C36.5735 32.8691 34.9502 32.7079 33.3665 32.5107C32.1508 32.3594 30.9261 32.3588 29.6987 32.3962C28.4716 32.4336 27.2422 32.5087 26.0172 32.5084L25.7783 36.8512L25.5394 41.1937L38.5538 41.4237L50.5436 41.6117Z" fill="white"/>
<path d="M30.9404 31.9132C31.247 31.9132 31.5541 31.9182 31.8606 31.9298C32.2261 31.9433 32.5905 31.9655 32.9542 31.9999C33.2433 32.0274 33.5321 32.0655 33.8202 32.1002C36.5102 32.4266 39.2524 32.6838 41.7956 33.6734C43.653 34.3963 45.2846 35.5491 46.7951 36.822C47.0852 37.0666 47.372 37.3158 47.6558 37.5677C48.1614 38.0169 48.6529 38.4816 49.1007 38.988C49.457 39.3904 49.786 39.8148 50.1089 40.2434C50.3823 40.6068 50.1089 40.2437 50.9213 41.3389C50.923 41.3409 50.924 41.3429 50.9257 41.3449C50.9377 41.3624 50.9481 41.381 50.9578 41.3998C50.9625 41.4088 50.9675 41.4177 50.9715 41.4266C50.9786 41.4429 50.9843 41.4594 50.9893 41.4763C50.9933 41.4895 50.997 41.5024 51 41.5157C51.0023 41.5276 51.0033 41.5398 51.005 41.5521C51.007 41.566 51.0107 41.5802 51.0114 41.5944C51.0114 41.5991 51.0103 41.604 51.0103 41.6087C51.0103 41.6123 51.0114 41.6156 51.0114 41.6193C51.0114 41.6269 51.0087 41.6342 51.008 41.6418C51.0067 41.662 51.005 41.6821 51.001 41.702C50.9983 41.7139 50.995 41.7252 50.9913 41.7371C50.9869 41.7523 50.9829 41.7675 50.9769 41.7824C50.9705 41.7983 50.9628 41.8132 50.9548 41.8281C50.9491 41.8384 50.9444 41.849 50.9381 41.8592C50.9274 41.8754 50.915 41.8907 50.9026 41.9056C50.8956 41.9138 50.8892 41.9224 50.8815 41.9304C50.8685 41.9443 50.8534 41.9555 50.8387 41.9678C50.832 41.9734 50.8263 41.98 50.8189 41.9853C50.8156 41.9876 50.8119 41.9893 50.8086 41.9916C50.7969 41.9992 50.7841 42.0052 50.7718 42.0121C50.756 42.0211 50.7403 42.03 50.7236 42.037C50.7142 42.0409 50.7042 42.0439 50.6945 42.0472C50.6764 42.0535 50.6587 42.0591 50.6399 42.0628C50.6279 42.0654 50.6152 42.0664 50.6024 42.0681C50.5884 42.0697 50.5747 42.0737 50.5606 42.0744C50.5556 42.0744 50.5509 42.073 50.5459 42.073C50.5429 42.0734 50.5399 42.0744 50.5365 42.0744C42.517 41.9486 45.1893 41.99 42.516 41.9479C41.1926 41.9274 39.8691 41.9092 38.5457 41.886C36.3088 41.8466 34.0715 41.8076 31.8342 41.7682C30.2039 41.7394 28.5733 41.71 26.9427 41.6812C26.572 41.6745 26.2015 41.6682 25.8311 41.6616C25.7649 41.6603 25.6989 41.6596 25.6323 41.6583C25.5711 41.6573 25.5092 41.6583 25.4493 41.6441C25.374 41.6259 25.3034 41.5915 25.2445 41.5415C25.2121 41.514 25.1853 41.4842 25.1609 41.4495C25.1207 41.3929 25.0943 41.328 25.0812 41.2601C25.0652 41.1757 25.0765 41.0784 25.0812 40.9934C25.0846 40.9351 25.0886 40.8769 25.0916 40.8186C25.1134 40.4264 25.1351 40.0339 25.1565 39.6416C25.2586 37.7915 25.36 35.9413 25.462 34.0914C25.4711 33.9266 25.4801 33.7618 25.4891 33.5969C25.4965 33.4662 25.5028 33.3348 25.5099 33.204C25.5162 33.0912 25.5226 32.9783 25.5289 32.8658C25.5333 32.7824 25.538 32.6996 25.5423 32.6166C25.5494 32.4901 25.551 32.3806 25.626 32.2657C25.6471 32.2339 25.6695 32.2051 25.6973 32.179C25.724 32.1532 25.7531 32.1317 25.7849 32.1128C25.8254 32.089 25.8703 32.0714 25.9158 32.0598C26.0135 32.0354 26.1483 32.045 26.245 32.0443C26.3956 32.044 26.5465 32.0416 26.6968 32.0383C27.1927 32.0277 27.6873 32.0109 28.1828 31.9907C29.1014 31.9536 30.0209 31.9122 30.9404 31.9132ZM30.8022 32.8377C30.312 32.8396 29.8215 32.8539 29.3319 32.8718C28.6018 32.8986 27.872 32.9336 27.1415 32.9535C26.9146 32.9598 26.6874 32.9648 26.4605 32.9681C26.4562 33.0458 26.4522 33.1233 26.4481 33.2007C26.4261 33.5992 26.404 33.9971 26.3822 34.3956C26.2986 35.9121 26.2146 37.4287 26.1313 38.9453C26.1035 39.4503 26.0754 39.9557 26.0476 40.4608C26.0423 40.5538 26.0379 40.6468 26.0329 40.7398C26.1155 40.7415 26.1979 40.7425 26.2808 40.7441C26.7433 40.7524 27.2061 40.7607 27.6682 40.769C29.0629 40.7935 30.4566 40.8176 31.8509 40.8424C34.0879 40.8818 36.3255 40.9219 38.5624 40.9613C39.9003 40.9848 41.2377 41.0033 42.5756 41.0245C44.9199 41.0612 44.5953 41.0556 49.609 41.134C49.5775 41.0917 49.4212 40.8789 49.3255 40.7524C49.0281 40.3579 48.7249 39.9673 48.397 39.597C47.974 39.1187 47.5082 38.6798 47.0304 38.2555C46.753 38.0089 46.4726 37.7656 46.1885 37.5263C44.8567 36.404 43.4235 35.3667 41.8083 34.6799C39.9377 33.8846 37.9093 33.5433 35.9022 33.2845C35.254 33.2011 34.6049 33.1266 33.956 33.0488C33.6422 33.0111 33.3276 32.9687 33.0128 32.936C32.7665 32.9105 32.5199 32.8909 32.2726 32.8761C31.7833 32.8466 31.2925 32.836 30.8022 32.8377Z" fill="white"/>
<path fill-rule="evenodd" clip-rule="evenodd" d="M20.3671 40.6965C20.6318 36.7337 20.6318 36.7337 20.8965 32.7708C17.7574 33.407 15.9381 33.1955 15.2835 36.2948C14.6287 39.3944 15.655 40.1103 20.3671 40.6965Z" fill="white"/>
<path d="M20.8798 32.3124C20.9648 32.3131 21.0488 32.3339 21.1224 32.3766C21.1686 32.4031 21.2074 32.4342 21.2425 32.4736C21.2746 32.5097 21.2987 32.5484 21.3191 32.5917C21.3502 32.6586 21.36 32.7294 21.3606 32.8006C21.3616 32.8718 21.3539 32.9439 21.3492 33.0147C21.3446 33.0856 21.3395 33.1557 21.3345 33.2266C21.3027 33.7039 21.2713 34.1818 21.2395 34.6591C21.1043 36.682 21.2392 34.6584 20.8339 40.7266C20.8336 40.7303 20.8319 40.7332 20.8316 40.7369C20.8313 40.7428 20.8326 40.7485 20.8316 40.7544C20.8299 40.767 20.8259 40.7786 20.8232 40.7908C20.8202 40.8057 20.8165 40.8206 20.8118 40.8352C20.8085 40.8458 20.8045 40.856 20.8005 40.8663C20.7931 40.8842 20.7857 40.902 20.7764 40.9189C20.7697 40.9308 20.762 40.9418 20.7543 40.953C20.7459 40.9653 20.7376 40.9778 20.7282 40.9894C20.7185 41.001 20.7078 41.0116 20.6967 41.0225C20.6857 41.0331 20.6753 41.0437 20.6633 41.0533C20.6526 41.0622 20.6405 41.0695 20.6288 41.0771C20.6158 41.0857 20.603 41.0947 20.589 41.102C20.5766 41.1086 20.5636 41.1139 20.5505 41.1195C20.5361 41.1255 20.5224 41.1324 20.5073 41.137C20.4916 41.142 20.4749 41.1453 20.4585 41.1486C20.4451 41.1513 20.432 41.1532 20.4187 41.1549C20.4006 41.1569 20.3819 41.1569 20.3631 41.1569C20.3541 41.1569 20.3454 41.1585 20.336 41.1579C20.3323 41.1576 20.3293 41.1562 20.3256 41.1559C20.3196 41.1552 20.3139 41.1566 20.3079 41.1559C18.7502 40.9328 19.2679 41.0195 18.7506 40.9325C18.3045 40.857 17.8598 40.771 17.4218 40.6571C16.773 40.489 16.0987 40.2589 15.5687 39.8389C15.4134 39.7158 15.2719 39.5765 15.1504 39.4202C15.0758 39.3239 15.0078 39.222 14.9496 39.1151C14.5397 38.3631 14.6023 37.4522 14.7415 36.638C14.7696 36.4745 14.8017 36.3117 14.8368 36.1498C14.9406 35.6719 15.0848 35.1992 15.3073 34.7617C15.4981 34.3867 15.7484 34.0411 16.0642 33.7595C16.5424 33.3328 17.141 33.0799 17.7554 32.9111C18.4504 32.7205 19.1675 32.6162 19.8769 32.4911C19.9977 32.47 20.1172 32.4481 20.2376 32.4263C20.3307 32.409 20.424 32.3912 20.517 32.3733C20.5803 32.3614 20.6439 32.3498 20.7071 32.3372C20.7643 32.326 20.8212 32.3117 20.8798 32.3124ZM20.3892 33.3394C20.3645 33.3441 20.3397 33.3484 20.3153 33.353C19.8869 33.4305 19.458 33.501 19.03 33.5794C18.5736 33.6631 18.1141 33.7535 17.6748 33.9041C17.3341 34.0209 17.0042 34.1791 16.7295 34.4131C16.3048 34.7746 16.0545 35.2833 15.8919 35.8043C15.7996 36.0992 15.7346 36.4023 15.6794 36.7062C15.6205 37.0329 15.5754 37.3645 15.573 37.6971C15.5703 38.0453 15.6148 38.4064 15.7945 38.7126C16.0763 39.1929 16.6488 39.4454 17.1591 39.6158C17.6165 39.7684 18.0897 39.871 18.5635 39.9591C19.0722 40.0537 19.024 40.0359 19.9335 40.1669C20.1764 36.5278 20.1453 36.9958 20.2514 35.4101C20.2905 34.8216 20.3303 34.2331 20.3695 33.6446C20.3762 33.543 20.3825 33.441 20.3892 33.3394Z" fill="white"/>
<path d="M24.2648 43.4592C24.5231 43.4632 24.7286 43.6734 24.7249 43.9289C24.6436 49.2077 24.5626 54.4862 24.4813 59.7654C24.4632 60.9337 24.4448 62.1021 24.4268 63.2705C24.4207 63.6693 24.415 64.0675 24.409 64.4663C24.4083 64.4987 24.4073 64.5312 24.407 64.5633C24.5081 64.561 24.6088 64.5586 24.7102 64.5563C25.193 64.5447 25.6756 64.5325 26.1584 64.5209C27.6425 64.4858 29.1272 64.4507 30.6109 64.4156C34.9516 64.3124 39.2923 64.2094 43.633 64.1062C45.0675 64.0721 46.5024 64.039 47.9369 64.0049C48.4174 63.9936 48.8976 63.9811 49.3781 63.9698C49.4738 63.9675 49.5695 63.9649 49.6656 63.9625C49.6749 63.898 49.6823 63.8335 49.6927 63.7689C49.7562 63.376 49.8376 62.9858 49.9343 62.5992C50.2304 61.4186 50.6731 60.2602 51.3239 59.2242C51.6964 58.6321 52.1404 58.082 52.6624 57.6117C53.154 57.1691 53.7081 56.7974 54.2897 56.4804C55.07 56.0544 55.9016 55.7237 56.7502 55.4563C57.4438 55.2375 58.1519 55.0608 58.8666 54.9238C59.0567 54.887 59.2484 54.8559 59.4395 54.8255C59.4124 54.612 59.3853 54.3995 59.3582 54.186C59.2709 53.5048 59.1839 52.8227 59.0965 52.1412C58.9222 50.7782 58.7482 49.4149 58.5738 48.0516C58.5026 47.4949 58.4313 46.9388 58.3593 46.3821C58.2536 46.3801 58.1482 46.3772 58.0425 46.3748C57.5593 46.3652 57.0764 46.3556 56.5932 46.346C54.5982 46.3063 52.6029 46.2686 50.6079 46.2312C47.0753 46.165 43.5423 46.1014 40.0097 46.0492C38.7037 46.03 37.3983 46.0124 36.0926 45.9995C35.1995 45.9909 34.3064 45.9803 33.4133 45.9892C33.155 45.9916 32.9432 45.7864 32.9409 45.5308C32.9382 45.2753 33.1456 45.0661 33.404 45.0635C34.1184 45.0565 34.8325 45.0625 35.5466 45.0685C36.5528 45.0771 37.5593 45.089 38.5655 45.1029C41.2358 45.139 43.9054 45.185 46.5757 45.232C49.6304 45.2859 52.6862 45.3435 55.7409 45.4037C56.4316 45.4173 57.1219 45.4312 57.8126 45.4451C57.9377 45.4478 58.0635 45.4497 58.189 45.4524C58.3359 45.4554 58.4822 45.4587 58.6294 45.4617C58.6685 45.4623 58.708 45.463 58.7475 45.4637C58.7545 45.464 58.7766 45.4607 58.783 45.4646C58.9205 45.553 59.0684 45.6275 59.1959 45.7294C59.2217 45.75 59.2183 45.7907 59.2284 45.8218C59.2431 45.8668 59.2454 45.931 59.2514 45.9767C59.2528 45.9886 59.2541 46.0002 59.2555 46.0118C59.2585 46.0349 59.2612 46.0571 59.2638 46.0803C59.3036 46.3904 59.3435 46.7009 59.3833 47.011C59.5473 48.2935 59.7116 49.5764 59.8755 50.8586C60.0217 52.0009 60.1676 53.1431 60.3139 54.2853C60.3273 54.3892 60.3403 54.4928 60.3537 54.5968C60.3614 54.659 60.3698 54.7215 60.3774 54.7841C60.3828 54.8255 60.3882 54.8675 60.3932 54.9092C60.3985 54.9506 60.4036 54.9916 60.4089 55.0333C60.4163 55.0912 60.43 55.1535 60.429 55.2121C60.4286 55.2266 60.4303 55.2415 60.4266 55.2557C60.4126 55.3143 60.4179 55.3861 60.3754 55.4295C60.2734 55.5334 60.1345 55.5943 60.0137 55.6764C60.008 55.6804 59.9618 55.6824 59.9511 55.6837C59.909 55.6893 59.8672 55.6946 59.8253 55.7002C59.6647 55.7231 59.5044 55.7489 59.3445 55.777C58.8365 55.8657 58.3329 55.9769 57.8343 56.108C56.9315 56.3453 56.0421 56.6498 55.2015 57.0553C54.5453 57.3717 53.9142 57.7523 53.3651 58.2303C52.814 58.7099 52.3616 59.2921 51.9932 59.9183C51.5284 60.709 51.1904 61.5695 50.9425 62.4493C50.8106 62.9156 50.7039 63.3893 50.6246 63.8672C50.6012 64.0085 50.5804 64.1505 50.5627 64.2925C50.5577 64.3339 50.5523 64.3759 50.5483 64.4176C50.5473 64.4266 50.5466 64.4511 50.5439 64.456C50.4814 64.5666 50.4395 64.691 50.3569 64.788C50.3181 64.833 50.2498 64.8416 50.1946 64.8645C50.1742 64.8731 50.1511 64.8731 50.1287 64.8757C50.0668 64.8833 49.9995 64.8817 49.9373 64.883C49.9041 64.884 49.8703 64.8843 49.8369 64.885C49.8041 64.886 49.7716 64.8863 49.7388 64.8873C49.6739 64.8886 49.6083 64.8909 49.5431 64.8923C49.4638 64.8942 49.3851 64.8956 49.3058 64.8976C48.3599 64.9201 47.4136 64.9422 46.4679 64.9647C42.675 65.0548 38.8817 65.1448 35.0888 65.2348C32.2365 65.3023 29.3848 65.3709 26.5329 65.4384C25.8452 65.4549 25.1572 65.4708 24.4696 65.487C24.3819 65.489 24.2939 65.4913 24.2062 65.4933C24.1477 65.4946 24.0888 65.496 24.0306 65.4973C23.979 65.4986 23.9275 65.5013 23.8766 65.4933C23.8104 65.4831 23.7465 65.4599 23.6896 65.4238C23.6544 65.4016 23.624 65.3775 23.5956 65.3474C23.5316 65.2802 23.4891 65.1948 23.4721 65.1044C23.46 65.0409 23.4647 64.9704 23.4657 64.9058C23.4667 64.8509 23.4681 64.7963 23.4687 64.7413C23.4734 64.4527 23.4781 64.1644 23.4825 63.8755C23.5029 62.5559 23.5229 61.2359 23.543 59.9163C23.6253 54.5825 23.7077 49.2481 23.79 43.9143C23.794 43.6588 24.0065 43.4553 24.2648 43.4592Z" fill="white"/>
<path fill-rule="evenodd" clip-rule="evenodd" d="M62.9801 46.4229C62.9801 46.4229 64.936 46.923 65.9054 48.2542C66.8748 49.5854 66.857 51.748 66.857 51.748C66.857 51.748 64.9427 51.181 63.9736 49.8498C63.0042 48.5183 62.9801 46.4229 62.9801 46.4229Z" fill="white"/>
<path d="M63.0042 45.9601C63.0176 45.9608 63.0307 45.9644 63.044 45.9664C63.0561 45.9681 63.0681 45.9691 63.0798 45.9717C63.0855 45.973 63.0916 45.973 63.0976 45.9747C63.4797 46.0932 63.3542 46.0502 63.4801 46.0935C63.6848 46.1643 63.8856 46.2441 64.0837 46.3315C64.7021 46.6052 65.2947 46.96 65.7869 47.4237C65.9837 47.6091 66.1637 47.8113 66.3193 48.0321C66.5519 48.3624 66.7299 48.7288 66.8681 49.1064C67.019 49.5188 67.1251 49.9468 67.1987 50.3787C67.2603 50.7405 67.3008 51.1059 67.3178 51.472C67.3208 51.5342 67.3228 51.5961 67.3242 51.6583C67.3265 51.7689 67.3272 51.8625 67.2686 51.9674C67.2579 51.9866 67.2466 52.0058 67.2332 52.0234C67.2024 52.0641 67.1679 52.0975 67.1254 52.127C67.0829 52.1564 67.0391 52.177 66.9896 52.1919C66.9497 52.2041 66.9113 52.2097 66.8745 52.2107C66.764 52.2137 66.6643 52.174 66.5556 52.1362C66.4769 52.1088 66.399 52.0803 66.3213 52.0502C66.2507 52.0227 66.1808 51.9939 66.1112 51.9645C66.0175 51.9247 65.9241 51.8834 65.8318 51.8403C65.0133 51.4574 64.2196 50.9308 63.6641 50.2132C63.4061 49.8796 63.2057 49.5053 63.0484 49.116C62.8389 48.5974 62.7024 48.0493 62.6154 47.4982C62.5619 47.1586 62.605 47.4181 62.517 46.4897C62.517 46.489 62.5173 46.4884 62.517 46.4877C62.5137 46.4523 62.5157 46.4678 62.512 46.4288C62.5117 46.4228 62.5137 46.4172 62.514 46.4113C62.5143 46.3987 62.5157 46.3864 62.517 46.3739C62.519 46.3547 62.521 46.3355 62.5254 46.3169C62.5264 46.3133 62.5267 46.3093 62.5277 46.3057C62.5294 46.2984 62.5337 46.2921 62.5358 46.2851C62.5418 46.2669 62.5468 46.2484 62.5548 46.2312C62.5608 46.2183 62.5685 46.2064 62.5756 46.1938C62.5833 46.1809 62.591 46.168 62.5997 46.1557C62.6074 46.1448 62.6161 46.1349 62.6248 46.1246C62.6368 46.1107 62.6492 46.0978 62.6626 46.0852C62.6706 46.078 62.679 46.0707 62.6877 46.0637C62.7011 46.0528 62.7148 46.0429 62.7295 46.0336C62.7419 46.0257 62.7549 46.0187 62.768 46.0118C62.7814 46.0051 62.7947 45.9989 62.8088 45.9932C62.8235 45.9876 62.8386 45.983 62.8536 45.9787C62.867 45.975 62.8801 45.972 62.8935 45.9694C62.9132 45.9658 62.9329 45.9634 62.953 45.9621C62.9604 45.9618 62.9667 45.9605 62.9741 45.9601C62.9778 45.9601 62.9808 45.9611 62.9845 45.9611C62.9912 45.9615 62.9975 45.9598 63.0042 45.9601ZM63.5041 47.0937C63.5567 47.5118 63.638 47.9275 63.7615 48.3309C63.896 48.7692 64.0787 49.2057 64.3524 49.5784C64.6807 50.0252 65.123 50.3781 65.5965 50.6654C65.8365 50.811 66.0878 50.9368 66.3444 51.0513C66.326 50.8775 66.3046 50.7051 66.2755 50.533C66.2032 50.1096 66.0978 49.689 65.9375 49.2898C65.8351 49.0343 65.7106 48.7864 65.5517 48.5603C65.372 48.3051 65.1475 48.082 64.9035 47.8871C64.502 47.5664 64.0436 47.3168 63.5691 47.1186C63.5476 47.1096 63.5256 47.1027 63.5041 47.0937Z" fill="white"/>
<path fill-rule="evenodd" clip-rule="evenodd" d="M6.47327 45.9739C5.61129 49.0898 4.23701 53.0507 3.53364 52.071C2.8306 51.0909 2.59636 51.122 2.93165 48.8052C3.26727 46.488 3.60724 45.8922 5.01533 45.7969C5.59723 45.7575 5.90809 45.8598 6.47327 45.9739Z" fill="white"/>
<path d="M5.21847 45.3262C5.40051 45.3249 5.58187 45.3355 5.76223 45.3613C6.03361 45.4 5.76224 45.361 6.56834 45.5205C6.57403 45.5218 6.57871 45.5245 6.58406 45.5258C6.58875 45.5268 6.5931 45.5265 6.59778 45.5278C6.60916 45.5308 6.6192 45.5364 6.63024 45.5404C6.64396 45.545 6.65768 45.5496 6.67073 45.5556C6.68479 45.5622 6.6975 45.5698 6.71055 45.5774C6.72427 45.5854 6.73765 45.594 6.75037 45.6033C6.76376 45.6129 6.77614 45.6234 6.78785 45.6344C6.79722 45.6426 6.80692 45.6503 6.81528 45.6592C6.828 45.6728 6.83871 45.6877 6.84975 45.7026C6.85644 45.7118 6.86347 45.7208 6.8695 45.7304C6.87853 45.7446 6.88623 45.7591 6.89359 45.774C6.89995 45.7869 6.9053 45.7999 6.91032 45.8131C6.91534 45.8263 6.91902 45.8399 6.92303 45.8535C6.92705 45.8684 6.93073 45.8829 6.93341 45.8982C6.93608 45.9134 6.93743 45.9289 6.93843 45.9445C6.9391 45.9548 6.94177 45.9644 6.94177 45.9746C6.94177 45.9793 6.93976 45.9842 6.93976 45.9892C6.93909 46.0054 6.93675 46.0213 6.93441 46.0378C6.93307 46.0478 6.9334 46.0577 6.9314 46.0676C6.93006 46.0733 6.92738 46.0779 6.92605 46.0832C6.92504 46.0878 6.92504 46.0921 6.92404 46.0967C6.02692 49.018 6.35886 48.0548 6.02792 49.0187C5.8238 49.6124 5.60663 50.2023 5.35767 50.7792C5.18099 51.1873 4.9906 51.596 4.74666 51.9694C4.54188 52.2838 4.24975 52.6462 3.84319 52.6823C3.79032 52.6869 3.74112 52.6869 3.68859 52.68C3.63505 52.6734 3.58552 52.6615 3.53499 52.6429C3.3988 52.5933 3.28236 52.5013 3.19201 52.3904C3.14851 52.3374 3.11103 52.2812 3.07054 52.2262C3.01968 52.157 2.96815 52.0889 2.91695 52.0203C2.72153 51.7595 2.53114 51.4941 2.4274 51.1823C2.34709 50.941 2.31798 50.6868 2.31363 50.4336C2.31195 50.3492 2.31363 50.2651 2.31664 50.1811C2.32936 49.8157 2.37219 49.4516 2.42004 49.0888C2.45284 48.8429 2.48864 48.5967 2.52779 48.3514C2.5569 48.1704 2.58802 47.9896 2.62315 47.8096C2.64892 47.6765 2.67703 47.5441 2.70882 47.4124C2.86609 46.7554 3.11873 46.0484 3.73042 45.6757C3.87397 45.5884 4.02756 45.5202 4.18851 45.4699C4.40033 45.4037 4.62118 45.3679 4.84203 45.3467C4.96717 45.3348 5.09266 45.3269 5.21847 45.3262ZM5.33559 46.252C5.13181 46.246 4.92501 46.2612 4.7239 46.2943C4.54488 46.3235 4.36051 46.3711 4.20826 46.4721C3.91513 46.6667 3.78195 47.0397 3.68859 47.3595C3.60661 47.6401 3.54905 47.9274 3.49819 48.215C3.44197 48.5341 3.39479 48.8555 3.35196 49.1769C3.30243 49.5446 3.25625 49.9146 3.24956 50.2857C3.24521 50.5213 3.25492 50.7682 3.35296 50.987C3.44766 51.1982 3.60593 51.3859 3.74413 51.5702C3.76756 51.602 3.79165 51.6338 3.81508 51.6655C3.85757 51.6152 3.89639 51.5626 3.9332 51.5083C4.0627 51.317 4.17077 51.1118 4.27217 50.9053C4.45386 50.5349 4.61147 50.1529 4.76038 49.7683C4.95011 49.2785 5.12344 48.7827 5.28841 48.2842C5.51964 47.5865 5.44869 47.7752 5.87835 46.3367C5.47613 46.2576 5.60965 46.2596 5.33559 46.252Z" fill="white"/>
<path fill-rule="evenodd" clip-rule="evenodd" d="M21.6788 45.597L9.34405 45.6335L21.6788 45.597Z" fill="white"/>
<path d="M21.6775 45.1346C21.9359 45.134 22.1453 45.3405 22.146 45.596C22.147 45.8516 21.9392 46.0588 21.6809 46.0594C17.569 46.0717 13.4576 46.0836 9.34573 46.0958C9.0874 46.0965 8.87692 45.8899 8.87626 45.6344C8.87559 45.3789 9.08439 45.1717 9.34272 45.171C13.4542 45.1588 17.566 45.1469 21.6775 45.1346Z" fill="white"/>
<path fill-rule="evenodd" clip-rule="evenodd" d="M65.8208 67.414C65.8583 64.8161 63.7582 62.68 61.1301 62.6432C58.502 62.6065 56.3413 64.6827 56.3038 67.281C56.2664 69.8788 58.3664 72.015 60.9942 72.0517C63.6223 72.0885 65.7833 70.0122 65.8208 67.414Z" stroke="white" stroke-miterlimit="10" stroke-linecap="round" stroke-linejoin="round"/>
<path fill-rule="evenodd" clip-rule="evenodd" d="M16.9008 67.3849C16.9362 64.9184 14.9426 62.8905 12.4473 62.8557C9.95237 62.821 7.90114 64.792 7.86534 67.2585C7.82987 69.7249 9.82354 71.7529 12.3185 71.7876C14.8137 71.8227 16.865 69.8514 16.9008 67.3849Z" stroke="white" stroke-miterlimit="10" stroke-linecap="round" stroke-linejoin="round"/>
<path fill-rule="evenodd" clip-rule="evenodd" d="M30.542 20.2262C30.542 20.2262 36.8336 11.4026 37.1448 7.04721C37.4556 2.69183 34.2627 -0.0513509 31.0647 0.058866C27.8667 0.169083 24.7102 2.20164 24.7497 6.87378C24.7892 11.5459 30.542 20.2262 30.542 20.2262Z" fill="url(#paint6_linear_0_10947)" stroke="url(#paint7_linear_0_10947)" stroke-width="0.0172136" stroke-miterlimit="10" stroke-linecap="round" stroke-linejoin="round"/>
<path fill-rule="evenodd" clip-rule="evenodd" d="M33.2023 6.21119C33.2213 4.90084 32.1984 3.82382 30.9175 3.80595C29.6365 3.78808 28.5831 4.83597 28.5641 6.14632C28.5453 7.45701 29.5683 8.53369 30.8489 8.55156C32.1298 8.56977 33.1835 7.52188 33.2023 6.21119Z" fill="white" stroke="white" stroke-width="0.0172136" stroke-miterlimit="10" stroke-linecap="round" stroke-linejoin="round"/>
</g>
<defs>
<linearGradient id="paint0_linear_0_10947" x1="60.9222" y1="60.7523" x2="60.9222" y2="73.6189" gradientUnits="userSpaceOnUse">
<stop offset="0.0885417" stop-color="#25BEA9"/>
<stop offset="0.916667" stop-color="#00A992"/>
</linearGradient>
<linearGradient id="paint1_linear_0_10947" x1="60.9222" y1="60.7523" x2="60.9222" y2="73.6189" gradientUnits="userSpaceOnUse">
<stop offset="0.0885417" stop-color="#25BEA9"/>
<stop offset="0.916667" stop-color="#00A992"/>
</linearGradient>
<linearGradient id="paint2_linear_0_10947" x1="12.5273" y1="60.704" x2="12.5273" y2="73.9516" gradientUnits="userSpaceOnUse">
<stop offset="0.0885417" stop-color="#25BEA9"/>
<stop offset="0.916667" stop-color="#00A992"/>
</linearGradient>
<linearGradient id="paint3_linear_0_10947" x1="12.5273" y1="60.704" x2="12.5273" y2="73.9516" gradientUnits="userSpaceOnUse">
<stop offset="0.0885417" stop-color="#25BEA9"/>
<stop offset="0.916667" stop-color="#00A992"/>
</linearGradient>
<linearGradient id="paint4_linear_0_10947" x1="36.5377" y1="29.4113" x2="36.5377" y2="67.226" gradientUnits="userSpaceOnUse">
<stop offset="0.0885417" stop-color="#25BEA9"/>
<stop offset="0.916667" stop-color="#00A992"/>
</linearGradient>
<linearGradient id="paint5_linear_0_10947" x1="36.5378" y1="28.7634" x2="36.5378" y2="67.8733" gradientUnits="userSpaceOnUse">
<stop offset="0.0885417" stop-color="#25BEA9"/>
<stop offset="0.916667" stop-color="#00A992"/>
</linearGradient>
<linearGradient id="paint6_linear_0_10947" x1="30.9576" y1="0.0556641" x2="30.9576" y2="20.2262" gradientUnits="userSpaceOnUse">
<stop offset="0.0885417" stop-color="#25BEA9"/>
<stop offset="0.916667" stop-color="#00A992"/>
</linearGradient>
<linearGradient id="paint7_linear_0_10947" x1="30.9576" y1="0.0556641" x2="30.9576" y2="20.2262" gradientUnits="userSpaceOnUse">
<stop offset="0.0885417" stop-color="#25BEA9"/>
<stop offset="0.916667" stop-color="#00A992"/>
</linearGradient>
<clipPath id="clip0_0_10947">
<rect width="73" height="74" fill="white" transform="matrix(-1 0 0 1 73 0)"/>
</clipPath>
</defs>
</svg>
