<svg width="40" height="40" viewBox="0 0 40 40" fill="none" xmlns="http://www.w3.org/2000/svg">
<rect width="40" height="40" rx="8" fill="url(#paint0_linear_0_11201)"/>
<path d="M19.9703 31.8786C19.7334 31.8786 19.5063 31.849 19.289 31.7897C19.0718 31.7305 18.8743 31.6219 18.6966 31.4639C15.8331 29.0151 13.6706 26.6404 12.2093 24.3397C10.7479 22.039 10.0172 19.8815 10.0172 17.8672C10.0172 14.7667 11.0244 12.2883 13.0387 10.432C15.053 8.57563 17.3734 7.64746 20 7.64746C22.9227 7.64746 25.2925 8.56082 27.1093 10.3875C28.9262 12.2142 29.9136 14.6087 30.0716 17.571L32.0267 15.5863C32.2439 15.369 32.4957 15.2604 32.782 15.2604C33.0684 15.2604 33.3202 15.369 33.5374 15.5863C33.7546 15.8232 33.8632 16.08 33.8632 16.3564C33.8632 16.6329 33.7546 16.8798 33.5374 17.097L29.6272 21.0072C29.489 21.1454 29.336 21.2491 29.1681 21.3182C29.0002 21.3873 28.8274 21.4219 28.6497 21.4219C28.472 21.4219 28.2992 21.3873 28.1313 21.3182C27.9634 21.2491 27.8104 21.1454 27.6722 21.0072L23.762 17.097C23.5448 16.8798 23.4362 16.6329 23.4362 16.3564C23.4362 16.08 23.5546 15.8232 23.7916 15.5863C23.9891 15.369 24.2261 15.2604 24.5026 15.2604C24.779 15.2604 25.0358 15.369 25.2727 15.5863L27.3759 17.6895C27.2574 15.6159 26.5514 13.8879 25.2579 12.5055C23.9644 11.1232 22.2118 10.432 20 10.432C18.0054 10.432 16.307 11.133 14.9049 12.5352C13.5028 13.9373 12.8017 15.7146 12.8017 17.8672C12.8017 19.3878 13.3744 21.0713 14.5198 22.9178C15.6652 24.7643 17.4919 26.7342 20 28.8275C20.2567 28.5707 20.5628 28.2696 20.9183 27.924C21.2737 27.5784 21.5897 27.2674 21.8662 26.9909C21.7674 26.7737 21.6934 26.5515 21.644 26.3244C21.5946 26.0973 21.5699 25.8949 21.5699 25.7171C21.5699 24.8285 21.881 24.078 22.5031 23.4658C23.1251 22.8536 23.8706 22.5475 24.7395 22.5475C25.6282 22.5475 26.3786 22.8536 26.9908 23.4658C27.603 24.078 27.9091 24.8285 27.9091 25.7171C27.9091 26.6058 27.603 27.3562 26.9908 27.9684C26.3786 28.5806 25.6282 28.8867 24.7395 28.8867C24.6211 28.8867 24.5075 28.8818 24.3989 28.8719C24.2903 28.862 24.157 28.8374 23.999 28.7979C23.5448 29.2323 23.1054 29.6618 22.6808 30.0864C22.2562 30.511 21.7872 30.9504 21.2737 31.4046C21.096 31.5626 20.8936 31.6811 20.6665 31.7601C20.4394 31.8391 20.2073 31.8786 19.9703 31.8786Z" fill="white"/>
<defs>
<linearGradient id="paint0_linear_0_11201" x1="20" y1="0" x2="20" y2="40" gradientUnits="userSpaceOnUse">
<stop offset="0.0885417" stop-color="#25BEA9"/>
<stop offset="0.916667" stop-color="#00A992"/>
</linearGradient>
</defs>
</svg>
