<svg width="80" height="80" viewBox="0 0 80 80" fill="none" xmlns="http://www.w3.org/2000/svg">
<g clip-path="url(#clip0_0_5121)">
<path d="M80 0H0V80H80V0Z" fill="white"/>
<path d="M7.12121 5H5V7.12121H7.12121V5Z" fill="#111111"/>
<path d="M9.24242 5H7.12121V7.12121H9.24242V5Z" fill="#111111"/>
<path d="M11.3636 5H9.24242V7.12121H11.3636V5Z" fill="#111111"/>
<path d="M13.4848 5H11.3636V7.12121H13.4848V5Z" fill="#111111"/>
<path d="M15.6061 5H13.4848V7.12121H15.6061V5Z" fill="#111111"/>
<path d="M17.7273 5H15.6061V7.12121H17.7273V5Z" fill="#111111"/>
<path d="M19.8485 5H17.7273V7.12121H19.8485V5Z" fill="#111111"/>
<path d="M24.0909 5H21.9697V7.12121H24.0909V5Z" fill="#111111"/>
<path d="M26.2121 5H24.0909V7.12121H26.2121V5Z" fill="#111111"/>
<path d="M28.3333 5H26.2121V7.12121H28.3333V5Z" fill="#111111"/>
<path d="M36.8182 5H34.697V7.12121H36.8182V5Z" fill="#111111"/>
<path d="M38.9394 5H36.8182V7.12121H38.9394V5Z" fill="#111111"/>
<path d="M45.303 5H43.1818V7.12121H45.303V5Z" fill="#111111"/>
<path d="M49.5455 5H47.4242V7.12121H49.5455V5Z" fill="#111111"/>
<path d="M51.6667 5H49.5455V7.12121H51.6667V5Z" fill="#111111"/>
<path d="M58.0303 5H55.9091V7.12121H58.0303V5Z" fill="#111111"/>
<path d="M62.2727 5H60.1515V7.12121H62.2727V5Z" fill="#111111"/>
<path d="M64.3939 5H62.2727V7.12121H64.3939V5Z" fill="#111111"/>
<path d="M66.5152 5H64.3939V7.12121H66.5152V5Z" fill="#111111"/>
<path d="M68.6364 5H66.5152V7.12121H68.6364V5Z" fill="#111111"/>
<path d="M70.7576 5H68.6364V7.12121H70.7576V5Z" fill="#111111"/>
<path d="M72.8788 5H70.7576V7.12121H72.8788V5Z" fill="#111111"/>
<path d="M75 5H72.8788V7.12121H75V5Z" fill="#111111"/>
<path d="M7.12121 7.12121H5V9.24242H7.12121V7.12121Z" fill="#111111"/>
<path d="M19.8485 7.12121H17.7273V9.24242H19.8485V7.12121Z" fill="#111111"/>
<path d="M28.3333 7.12121H26.2121V9.24242H28.3333V7.12121Z" fill="#111111"/>
<path d="M34.697 7.12121H32.5758V9.24242H34.697V7.12121Z" fill="#111111"/>
<path d="M36.8182 7.12121H34.697V9.24242H36.8182V7.12121Z" fill="#111111"/>
<path d="M41.0606 7.12121H38.9394V9.24242H41.0606V7.12121Z" fill="#111111"/>
<path d="M49.5455 7.12121H47.4242V9.24242H49.5455V7.12121Z" fill="#111111"/>
<path d="M58.0303 7.12121H55.9091V9.24242H58.0303V7.12121Z" fill="#111111"/>
<path d="M62.2727 7.12121H60.1515V9.24242H62.2727V7.12121Z" fill="#111111"/>
<path d="M75 7.12121H72.8788V9.24242H75V7.12121Z" fill="#111111"/>
<path d="M7.12121 9.24242H5V11.3636H7.12121V9.24242Z" fill="#111111"/>
<path d="M11.3636 9.24242H9.24242V11.3636H11.3636V9.24242Z" fill="#111111"/>
<path d="M13.4848 9.24242H11.3636V11.3636H13.4848V9.24242Z" fill="#111111"/>
<path d="M15.6061 9.24242H13.4848V11.3636H15.6061V9.24242Z" fill="#111111"/>
<path d="M19.8485 9.24242H17.7273V11.3636H19.8485V9.24242Z" fill="#111111"/>
<path d="M30.4545 9.24242H28.3333V11.3636H30.4545V9.24242Z" fill="#111111"/>
<path d="M32.5758 9.24242H30.4545V11.3636H32.5758V9.24242Z" fill="#111111"/>
<path d="M34.697 9.24242H32.5758V11.3636H34.697V9.24242Z" fill="#111111"/>
<path d="M38.9394 9.24242H36.8182V11.3636H38.9394V9.24242Z" fill="#111111"/>
<path d="M41.0606 9.24242H38.9394V11.3636H41.0606V9.24242Z" fill="#111111"/>
<path d="M45.303 9.24242H43.1818V11.3636H45.303V9.24242Z" fill="#111111"/>
<path d="M47.4242 9.24242H45.303V11.3636H47.4242V9.24242Z" fill="#111111"/>
<path d="M51.6667 9.24242H49.5455V11.3636H51.6667V9.24242Z" fill="#111111"/>
<path d="M55.9091 9.24242H53.7879V11.3636H55.9091V9.24242Z" fill="#111111"/>
<path d="M58.0303 9.24242H55.9091V11.3636H58.0303V9.24242Z" fill="#111111"/>
<path d="M62.2727 9.24242H60.1515V11.3636H62.2727V9.24242Z" fill="#111111"/>
<path d="M66.5152 9.24242H64.3939V11.3636H66.5152V9.24242Z" fill="#111111"/>
<path d="M68.6364 9.24242H66.5152V11.3636H68.6364V9.24242Z" fill="#111111"/>
<path d="M70.7576 9.24242H68.6364V11.3636H70.7576V9.24242Z" fill="#111111"/>
<path d="M75 9.24242H72.8788V11.3636H75V9.24242Z" fill="#111111"/>
<path d="M7.12121 11.3636H5V13.4848H7.12121V11.3636Z" fill="#111111"/>
<path d="M11.3636 11.3636H9.24242V13.4848H11.3636V11.3636Z" fill="#111111"/>
<path d="M13.4848 11.3636H11.3636V13.4848H13.4848V11.3636Z" fill="#111111"/>
<path d="M15.6061 11.3636H13.4848V13.4848H15.6061V11.3636Z" fill="#111111"/>
<path d="M19.8485 11.3636H17.7273V13.4848H19.8485V11.3636Z" fill="#111111"/>
<path d="M26.2121 11.3636H24.0909V13.4848H26.2121V11.3636Z" fill="#111111"/>
<path d="M28.3333 11.3636H26.2121V13.4848H28.3333V11.3636Z" fill="#111111"/>
<path d="M38.9394 11.3636H36.8182V13.4848H38.9394V11.3636Z" fill="#111111"/>
<path d="M41.0606 11.3636H38.9394V13.4848H41.0606V11.3636Z" fill="#111111"/>
<path d="M43.1818 11.3636H41.0606V13.4848H43.1818V11.3636Z" fill="#111111"/>
<path d="M45.303 11.3636H43.1818V13.4848H45.303V11.3636Z" fill="#111111"/>
<path d="M47.4242 11.3636H45.303V13.4848H47.4242V11.3636Z" fill="#111111"/>
<path d="M51.6667 11.3636H49.5455V13.4848H51.6667V11.3636Z" fill="#111111"/>
<path d="M62.2727 11.3636H60.1515V13.4848H62.2727V11.3636Z" fill="#111111"/>
<path d="M66.5152 11.3636H64.3939V13.4848H66.5152V11.3636Z" fill="#111111"/>
<path d="M68.6364 11.3636H66.5152V13.4848H68.6364V11.3636Z" fill="#111111"/>
<path d="M70.7576 11.3636H68.6364V13.4848H70.7576V11.3636Z" fill="#111111"/>
<path d="M75 11.3636H72.8788V13.4848H75V11.3636Z" fill="#111111"/>
<path d="M7.12121 13.4848H5V15.6061H7.12121V13.4848Z" fill="#111111"/>
<path d="M11.3636 13.4848H9.24242V15.6061H11.3636V13.4848Z" fill="#111111"/>
<path d="M13.4848 13.4848H11.3636V15.6061H13.4848V13.4848Z" fill="#111111"/>
<path d="M15.6061 13.4848H13.4848V15.6061H15.6061V13.4848Z" fill="#111111"/>
<path d="M19.8485 13.4848H17.7273V15.6061H19.8485V13.4848Z" fill="#111111"/>
<path d="M24.0909 13.4848H21.9697V15.6061H24.0909V13.4848Z" fill="#111111"/>
<path d="M30.4545 13.4848H28.3333V15.6061H30.4545V13.4848Z" fill="#111111"/>
<path d="M32.5758 13.4848H30.4545V15.6061H32.5758V13.4848Z" fill="#111111"/>
<path d="M36.8182 13.4848H34.697V15.6061H36.8182V13.4848Z" fill="#111111"/>
<path d="M38.9394 13.4848H36.8182V15.6061H38.9394V13.4848Z" fill="#111111"/>
<path d="M43.1818 13.4848H41.0606V15.6061H43.1818V13.4848Z" fill="#111111"/>
<path d="M45.303 13.4848H43.1818V15.6061H45.303V13.4848Z" fill="#111111"/>
<path d="M55.9091 13.4848H53.7879V15.6061H55.9091V13.4848Z" fill="#111111"/>
<path d="M58.0303 13.4848H55.9091V15.6061H58.0303V13.4848Z" fill="#111111"/>
<path d="M62.2727 13.4848H60.1515V15.6061H62.2727V13.4848Z" fill="#111111"/>
<path d="M66.5152 13.4848H64.3939V15.6061H66.5152V13.4848Z" fill="#111111"/>
<path d="M68.6364 13.4848H66.5152V15.6061H68.6364V13.4848Z" fill="#111111"/>
<path d="M70.7576 13.4848H68.6364V15.6061H70.7576V13.4848Z" fill="#111111"/>
<path d="M75 13.4848H72.8788V15.6061H75V13.4848Z" fill="#111111"/>
<path d="M7.12121 15.6061H5V17.7273H7.12121V15.6061Z" fill="#111111"/>
<path d="M19.8485 15.6061H17.7273V17.7273H19.8485V15.6061Z" fill="#111111"/>
<path d="M26.2121 15.6061H24.0909V17.7273H26.2121V15.6061Z" fill="#111111"/>
<path d="M28.3333 15.6061H26.2121V17.7273H28.3333V15.6061Z" fill="#111111"/>
<path d="M32.5758 15.6061H30.4545V17.7273H32.5758V15.6061Z" fill="#111111"/>
<path d="M36.8182 15.6061H34.697V17.7273H36.8182V15.6061Z" fill="#111111"/>
<path d="M45.303 15.6061H43.1818V17.7273H45.303V15.6061Z" fill="#111111"/>
<path d="M47.4242 15.6061H45.303V17.7273H47.4242V15.6061Z" fill="#111111"/>
<path d="M58.0303 15.6061H55.9091V17.7273H58.0303V15.6061Z" fill="#111111"/>
<path d="M62.2727 15.6061H60.1515V17.7273H62.2727V15.6061Z" fill="#111111"/>
<path d="M75 15.6061H72.8788V17.7273H75V15.6061Z" fill="#111111"/>
<path d="M7.12121 17.7273H5V19.8485H7.12121V17.7273Z" fill="#111111"/>
<path d="M9.24242 17.7273H7.12121V19.8485H9.24242V17.7273Z" fill="#111111"/>
<path d="M11.3636 17.7273H9.24242V19.8485H11.3636V17.7273Z" fill="#111111"/>
<path d="M13.4848 17.7273H11.3636V19.8485H13.4848V17.7273Z" fill="#111111"/>
<path d="M15.6061 17.7273H13.4848V19.8485H15.6061V17.7273Z" fill="#111111"/>
<path d="M17.7273 17.7273H15.6061V19.8485H17.7273V17.7273Z" fill="#111111"/>
<path d="M19.8485 17.7273H17.7273V19.8485H19.8485V17.7273Z" fill="#111111"/>
<path d="M24.0909 17.7273H21.9697V19.8485H24.0909V17.7273Z" fill="#111111"/>
<path d="M28.3333 17.7273H26.2121V19.8485H28.3333V17.7273Z" fill="#111111"/>
<path d="M32.5758 17.7273H30.4545V19.8485H32.5758V17.7273Z" fill="#111111"/>
<path d="M36.8182 17.7273H34.697V19.8485H36.8182V17.7273Z" fill="#111111"/>
<path d="M41.0606 17.7273H38.9394V19.8485H41.0606V17.7273Z" fill="#111111"/>
<path d="M45.303 17.7273H43.1818V19.8485H45.303V17.7273Z" fill="#111111"/>
<path d="M49.5455 17.7273H47.4242V19.8485H49.5455V17.7273Z" fill="#111111"/>
<path d="M53.7879 17.7273H51.6667V19.8485H53.7879V17.7273Z" fill="#111111"/>
<path d="M58.0303 17.7273H55.9091V19.8485H58.0303V17.7273Z" fill="#111111"/>
<path d="M62.2727 17.7273H60.1515V19.8485H62.2727V17.7273Z" fill="#111111"/>
<path d="M64.3939 17.7273H62.2727V19.8485H64.3939V17.7273Z" fill="#111111"/>
<path d="M66.5152 17.7273H64.3939V19.8485H66.5152V17.7273Z" fill="#111111"/>
<path d="M68.6364 17.7273H66.5152V19.8485H68.6364V17.7273Z" fill="#111111"/>
<path d="M70.7576 17.7273H68.6364V19.8485H70.7576V17.7273Z" fill="#111111"/>
<path d="M72.8788 17.7273H70.7576V19.8485H72.8788V17.7273Z" fill="#111111"/>
<path d="M75 17.7273H72.8788V19.8485H75V17.7273Z" fill="#111111"/>
<path d="M24.0909 19.8485H21.9697V21.9697H24.0909V19.8485Z" fill="#111111"/>
<path d="M26.2121 19.8485H24.0909V21.9697H26.2121V19.8485Z" fill="#111111"/>
<path d="M28.3333 19.8485H26.2121V21.9697H28.3333V19.8485Z" fill="#111111"/>
<path d="M30.4545 19.8485H28.3333V21.9697H30.4545V19.8485Z" fill="#111111"/>
<path d="M32.5758 19.8485H30.4545V21.9697H32.5758V19.8485Z" fill="#111111"/>
<path d="M36.8182 19.8485H34.697V21.9697H36.8182V19.8485Z" fill="#111111"/>
<path d="M45.303 19.8485H43.1818V21.9697H45.303V19.8485Z" fill="#111111"/>
<path d="M47.4242 19.8485H45.303V21.9697H47.4242V19.8485Z" fill="#111111"/>
<path d="M49.5455 19.8485H47.4242V21.9697H49.5455V19.8485Z" fill="#111111"/>
<path d="M51.6667 19.8485H49.5455V21.9697H51.6667V19.8485Z" fill="#111111"/>
<path d="M53.7879 19.8485H51.6667V21.9697H53.7879V19.8485Z" fill="#111111"/>
<path d="M7.12121 21.9697H5V24.0909H7.12121V21.9697Z" fill="#111111"/>
<path d="M13.4848 21.9697H11.3636V24.0909H13.4848V21.9697Z" fill="#111111"/>
<path d="M15.6061 21.9697H13.4848V24.0909H15.6061V21.9697Z" fill="#111111"/>
<path d="M17.7273 21.9697H15.6061V24.0909H17.7273V21.9697Z" fill="#111111"/>
<path d="M19.8485 21.9697H17.7273V24.0909H19.8485V21.9697Z" fill="#111111"/>
<path d="M21.9697 21.9697H19.8485V24.0909H21.9697V21.9697Z" fill="#111111"/>
<path d="M24.0909 21.9697H21.9697V24.0909H24.0909V21.9697Z" fill="#111111"/>
<path d="M26.2121 21.9697H24.0909V24.0909H26.2121V21.9697Z" fill="#111111"/>
<path d="M30.4545 21.9697H28.3333V24.0909H30.4545V21.9697Z" fill="#111111"/>
<path d="M32.5758 21.9697H30.4545V24.0909H32.5758V21.9697Z" fill="#111111"/>
<path d="M34.697 21.9697H32.5758V24.0909H34.697V21.9697Z" fill="#111111"/>
<path d="M36.8182 21.9697H34.697V24.0909H36.8182V21.9697Z" fill="#111111"/>
<path d="M38.9394 21.9697H36.8182V24.0909H38.9394V21.9697Z" fill="#111111"/>
<path d="M41.0606 21.9697H38.9394V24.0909H41.0606V21.9697Z" fill="#111111"/>
<path d="M45.303 21.9697H43.1818V24.0909H45.303V21.9697Z" fill="#111111"/>
<path d="M47.4242 21.9697H45.303V24.0909H47.4242V21.9697Z" fill="#111111"/>
<path d="M53.7879 21.9697H51.6667V24.0909H53.7879V21.9697Z" fill="#111111"/>
<path d="M60.1515 21.9697H58.0303V24.0909H60.1515V21.9697Z" fill="#111111"/>
<path d="M62.2727 21.9697H60.1515V24.0909H62.2727V21.9697Z" fill="#111111"/>
<path d="M66.5152 21.9697H64.3939V24.0909H66.5152V21.9697Z" fill="#111111"/>
<path d="M75 21.9697H72.8788V24.0909H75V21.9697Z" fill="#111111"/>
<path d="M7.12121 24.0909H5V26.2121H7.12121V24.0909Z" fill="#111111"/>
<path d="M9.24242 24.0909H7.12121V26.2121H9.24242V24.0909Z" fill="#111111"/>
<path d="M11.3636 24.0909H9.24242V26.2121H11.3636V24.0909Z" fill="#111111"/>
<path d="M15.6061 24.0909H13.4848V26.2121H15.6061V24.0909Z" fill="#111111"/>
<path d="M17.7273 24.0909H15.6061V26.2121H17.7273V24.0909Z" fill="#111111"/>
<path d="M21.9697 24.0909H19.8485V26.2121H21.9697V24.0909Z" fill="#111111"/>
<path d="M26.2121 24.0909H24.0909V26.2121H26.2121V24.0909Z" fill="#111111"/>
<path d="M32.5758 24.0909H30.4545V26.2121H32.5758V24.0909Z" fill="#111111"/>
<path d="M38.9394 24.0909H36.8182V26.2121H38.9394V24.0909Z" fill="#111111"/>
<path d="M49.5455 24.0909H47.4242V26.2121H49.5455V24.0909Z" fill="#111111"/>
<path d="M51.6667 24.0909H49.5455V26.2121H51.6667V24.0909Z" fill="#111111"/>
<path d="M53.7879 24.0909H51.6667V26.2121H53.7879V24.0909Z" fill="#111111"/>
<path d="M55.9091 24.0909H53.7879V26.2121H55.9091V24.0909Z" fill="#111111"/>
<path d="M60.1515 24.0909H58.0303V26.2121H60.1515V24.0909Z" fill="#111111"/>
<path d="M64.3939 24.0909H62.2727V26.2121H64.3939V24.0909Z" fill="#111111"/>
<path d="M70.7576 24.0909H68.6364V26.2121H70.7576V24.0909Z" fill="#111111"/>
<path d="M72.8788 24.0909H70.7576V26.2121H72.8788V24.0909Z" fill="#111111"/>
<path d="M75 24.0909H72.8788V26.2121H75V24.0909Z" fill="#111111"/>
<path d="M11.3636 26.2121H9.24242V28.3333H11.3636V26.2121Z" fill="#111111"/>
<path d="M19.8485 26.2121H17.7273V28.3333H19.8485V26.2121Z" fill="#111111"/>
<path d="M28.3333 26.2121H26.2121V28.3333H28.3333V26.2121Z" fill="#111111"/>
<path d="M30.4545 26.2121H28.3333V28.3333H30.4545V26.2121Z" fill="#111111"/>
<path d="M34.697 26.2121H32.5758V28.3333H34.697V26.2121Z" fill="#111111"/>
<path d="M36.8182 26.2121H34.697V28.3333H36.8182V26.2121Z" fill="#111111"/>
<path d="M38.9394 26.2121H36.8182V28.3333H38.9394V26.2121Z" fill="#111111"/>
<path d="M43.1818 26.2121H41.0606V28.3333H43.1818V26.2121Z" fill="#111111"/>
<path d="M47.4242 26.2121H45.303V28.3333H47.4242V26.2121Z" fill="#111111"/>
<path d="M49.5455 26.2121H47.4242V28.3333H49.5455V26.2121Z" fill="#111111"/>
<path d="M51.6667 26.2121H49.5455V28.3333H51.6667V26.2121Z" fill="#111111"/>
<path d="M53.7879 26.2121H51.6667V28.3333H53.7879V26.2121Z" fill="#111111"/>
<path d="M55.9091 26.2121H53.7879V28.3333H55.9091V26.2121Z" fill="#111111"/>
<path d="M58.0303 26.2121H55.9091V28.3333H58.0303V26.2121Z" fill="#111111"/>
<path d="M60.1515 26.2121H58.0303V28.3333H60.1515V26.2121Z" fill="#111111"/>
<path d="M64.3939 26.2121H62.2727V28.3333H64.3939V26.2121Z" fill="#111111"/>
<path d="M70.7576 26.2121H68.6364V28.3333H70.7576V26.2121Z" fill="#111111"/>
<path d="M7.12121 28.3333H5V30.4545H7.12121V28.3333Z" fill="#111111"/>
<path d="M9.24242 28.3333H7.12121V30.4545H9.24242V28.3333Z" fill="#111111"/>
<path d="M15.6061 28.3333H13.4848V30.4545H15.6061V28.3333Z" fill="#111111"/>
<path d="M17.7273 28.3333H15.6061V30.4545H17.7273V28.3333Z" fill="#111111"/>
<path d="M21.9697 28.3333H19.8485V30.4545H21.9697V28.3333Z" fill="#111111"/>
<path d="M24.0909 28.3333H21.9697V30.4545H24.0909V28.3333Z" fill="#111111"/>
<path d="M26.2121 28.3333H24.0909V30.4545H26.2121V28.3333Z" fill="#111111"/>
<path d="M38.9394 28.3333H36.8182V30.4545H38.9394V28.3333Z" fill="#111111"/>
<path d="M41.0606 28.3333H38.9394V30.4545H41.0606V28.3333Z" fill="#111111"/>
<path d="M47.4242 28.3333H45.303V30.4545H47.4242V28.3333Z" fill="#111111"/>
<path d="M49.5455 28.3333H47.4242V30.4545H49.5455V28.3333Z" fill="#111111"/>
<path d="M53.7879 28.3333H51.6667V30.4545H53.7879V28.3333Z" fill="#111111"/>
<path d="M60.1515 28.3333H58.0303V30.4545H60.1515V28.3333Z" fill="#111111"/>
<path d="M62.2727 28.3333H60.1515V30.4545H62.2727V28.3333Z" fill="#111111"/>
<path d="M66.5152 28.3333H64.3939V30.4545H66.5152V28.3333Z" fill="#111111"/>
<path d="M72.8788 28.3333H70.7576V30.4545H72.8788V28.3333Z" fill="#111111"/>
<path d="M7.12121 30.4545H5V32.5758H7.12121V30.4545Z" fill="#111111"/>
<path d="M15.6061 30.4545H13.4848V32.5758H15.6061V30.4545Z" fill="#111111"/>
<path d="M17.7273 30.4545H15.6061V32.5758H17.7273V30.4545Z" fill="#111111"/>
<path d="M19.8485 30.4545H17.7273V32.5758H19.8485V30.4545Z" fill="#111111"/>
<path d="M30.4545 30.4545H28.3333V32.5758H30.4545V30.4545Z" fill="#111111"/>
<path d="M36.8182 30.4545H34.697V32.5758H36.8182V30.4545Z" fill="#111111"/>
<path d="M43.1818 30.4545H41.0606V32.5758H43.1818V30.4545Z" fill="#111111"/>
<path d="M58.0303 30.4545H55.9091V32.5758H58.0303V30.4545Z" fill="#111111"/>
<path d="M62.2727 30.4545H60.1515V32.5758H62.2727V30.4545Z" fill="#111111"/>
<path d="M66.5152 30.4545H64.3939V32.5758H66.5152V30.4545Z" fill="#111111"/>
<path d="M68.6364 30.4545H66.5152V32.5758H68.6364V30.4545Z" fill="#111111"/>
<path d="M70.7576 30.4545H68.6364V32.5758H70.7576V30.4545Z" fill="#111111"/>
<path d="M72.8788 30.4545H70.7576V32.5758H72.8788V30.4545Z" fill="#111111"/>
<path d="M75 30.4545H72.8788V32.5758H75V30.4545Z" fill="#111111"/>
<path d="M11.3636 32.5758H9.24242V34.697H11.3636V32.5758Z" fill="#111111"/>
<path d="M15.6061 32.5758H13.4848V34.697H15.6061V32.5758Z" fill="#111111"/>
<path d="M17.7273 32.5758H15.6061V34.697H17.7273V32.5758Z" fill="#111111"/>
<path d="M26.2121 32.5758H24.0909V34.697H26.2121V32.5758Z" fill="#111111"/>
<path d="M32.5758 32.5758H30.4545V34.697H32.5758V32.5758Z" fill="#111111"/>
<path d="M38.9394 32.5758H36.8182V34.697H38.9394V32.5758Z" fill="#111111"/>
<path d="M41.0606 32.5758H38.9394V34.697H41.0606V32.5758Z" fill="#111111"/>
<path d="M45.303 32.5758H43.1818V34.697H45.303V32.5758Z" fill="#111111"/>
<path d="M51.6667 32.5758H49.5455V34.697H51.6667V32.5758Z" fill="#111111"/>
<path d="M53.7879 32.5758H51.6667V34.697H53.7879V32.5758Z" fill="#111111"/>
<path d="M60.1515 32.5758H58.0303V34.697H60.1515V32.5758Z" fill="#111111"/>
<path d="M64.3939 32.5758H62.2727V34.697H64.3939V32.5758Z" fill="#111111"/>
<path d="M68.6364 32.5758H66.5152V34.697H68.6364V32.5758Z" fill="#111111"/>
<path d="M70.7576 32.5758H68.6364V34.697H70.7576V32.5758Z" fill="#111111"/>
<path d="M75 32.5758H72.8788V34.697H75V32.5758Z" fill="#111111"/>
<path d="M13.4848 34.697H11.3636V36.8182H13.4848V34.697Z" fill="#111111"/>
<path d="M15.6061 34.697H13.4848V36.8182H15.6061V34.697Z" fill="#111111"/>
<path d="M19.8485 34.697H17.7273V36.8182H19.8485V34.697Z" fill="#111111"/>
<path d="M30.4545 34.697H28.3333V36.8182H30.4545V34.697Z" fill="#111111"/>
<path d="M32.5758 34.697H30.4545V36.8182H32.5758V34.697Z" fill="#111111"/>
<path d="M36.8182 34.697H34.697V36.8182H36.8182V34.697Z" fill="#111111"/>
<path d="M38.9394 34.697H36.8182V36.8182H38.9394V34.697Z" fill="#111111"/>
<path d="M41.0606 34.697H38.9394V36.8182H41.0606V34.697Z" fill="#111111"/>
<path d="M58.0303 34.697H55.9091V36.8182H58.0303V34.697Z" fill="#111111"/>
<path d="M60.1515 34.697H58.0303V36.8182H60.1515V34.697Z" fill="#111111"/>
<path d="M64.3939 34.697H62.2727V36.8182H64.3939V34.697Z" fill="#111111"/>
<path d="M66.5152 34.697H64.3939V36.8182H66.5152V34.697Z" fill="#111111"/>
<path d="M72.8788 34.697H70.7576V36.8182H72.8788V34.697Z" fill="#111111"/>
<path d="M7.12121 36.8182H5V38.9394H7.12121V36.8182Z" fill="#111111"/>
<path d="M11.3636 36.8182H9.24242V38.9394H11.3636V36.8182Z" fill="#111111"/>
<path d="M13.4848 36.8182H11.3636V38.9394H13.4848V36.8182Z" fill="#111111"/>
<path d="M21.9697 36.8182H19.8485V38.9394H21.9697V36.8182Z" fill="#111111"/>
<path d="M26.2121 36.8182H24.0909V38.9394H26.2121V36.8182Z" fill="#111111"/>
<path d="M28.3333 36.8182H26.2121V38.9394H28.3333V36.8182Z" fill="#111111"/>
<path d="M30.4545 36.8182H28.3333V38.9394H30.4545V36.8182Z" fill="#111111"/>
<path d="M41.0606 36.8182H38.9394V38.9394H41.0606V36.8182Z" fill="#111111"/>
<path d="M43.1818 36.8182H41.0606V38.9394H43.1818V36.8182Z" fill="#111111"/>
<path d="M45.303 36.8182H43.1818V38.9394H45.303V36.8182Z" fill="#111111"/>
<path d="M53.7879 36.8182H51.6667V38.9394H53.7879V36.8182Z" fill="#111111"/>
<path d="M55.9091 36.8182H53.7879V38.9394H55.9091V36.8182Z" fill="#111111"/>
<path d="M60.1515 36.8182H58.0303V38.9394H60.1515V36.8182Z" fill="#111111"/>
<path d="M62.2727 36.8182H60.1515V38.9394H62.2727V36.8182Z" fill="#111111"/>
<path d="M64.3939 36.8182H62.2727V38.9394H64.3939V36.8182Z" fill="#111111"/>
<path d="M75 36.8182H72.8788V38.9394H75V36.8182Z" fill="#111111"/>
<path d="M7.12121 38.9394H5V41.0606H7.12121V38.9394Z" fill="#111111"/>
<path d="M11.3636 38.9394H9.24242V41.0606H11.3636V38.9394Z" fill="#111111"/>
<path d="M17.7273 38.9394H15.6061V41.0606H17.7273V38.9394Z" fill="#111111"/>
<path d="M19.8485 38.9394H17.7273V41.0606H19.8485V38.9394Z" fill="#111111"/>
<path d="M21.9697 38.9394H19.8485V41.0606H21.9697V38.9394Z" fill="#111111"/>
<path d="M34.697 38.9394H32.5758V41.0606H34.697V38.9394Z" fill="#111111"/>
<path d="M36.8182 38.9394H34.697V41.0606H36.8182V38.9394Z" fill="#111111"/>
<path d="M43.1818 38.9394H41.0606V41.0606H43.1818V38.9394Z" fill="#111111"/>
<path d="M49.5455 38.9394H47.4242V41.0606H49.5455V38.9394Z" fill="#111111"/>
<path d="M55.9091 38.9394H53.7879V41.0606H55.9091V38.9394Z" fill="#111111"/>
<path d="M60.1515 38.9394H58.0303V41.0606H60.1515V38.9394Z" fill="#111111"/>
<path d="M64.3939 38.9394H62.2727V41.0606H64.3939V38.9394Z" fill="#111111"/>
<path d="M68.6364 38.9394H66.5152V41.0606H68.6364V38.9394Z" fill="#111111"/>
<path d="M70.7576 38.9394H68.6364V41.0606H70.7576V38.9394Z" fill="#111111"/>
<path d="M7.12121 41.0606H5V43.1818H7.12121V41.0606Z" fill="#111111"/>
<path d="M9.24242 41.0606H7.12121V43.1818H9.24242V41.0606Z" fill="#111111"/>
<path d="M13.4848 41.0606H11.3636V43.1818H13.4848V41.0606Z" fill="#111111"/>
<path d="M15.6061 41.0606H13.4848V43.1818H15.6061V41.0606Z" fill="#111111"/>
<path d="M21.9697 41.0606H19.8485V43.1818H21.9697V41.0606Z" fill="#111111"/>
<path d="M24.0909 41.0606H21.9697V43.1818H24.0909V41.0606Z" fill="#111111"/>
<path d="M28.3333 41.0606H26.2121V43.1818H28.3333V41.0606Z" fill="#111111"/>
<path d="M30.4545 41.0606H28.3333V43.1818H30.4545V41.0606Z" fill="#111111"/>
<path d="M34.697 41.0606H32.5758V43.1818H34.697V41.0606Z" fill="#111111"/>
<path d="M36.8182 41.0606H34.697V43.1818H36.8182V41.0606Z" fill="#111111"/>
<path d="M38.9394 41.0606H36.8182V43.1818H38.9394V41.0606Z" fill="#111111"/>
<path d="M41.0606 41.0606H38.9394V43.1818H41.0606V41.0606Z" fill="#111111"/>
<path d="M43.1818 41.0606H41.0606V43.1818H43.1818V41.0606Z" fill="#111111"/>
<path d="M51.6667 41.0606H49.5455V43.1818H51.6667V41.0606Z" fill="#111111"/>
<path d="M53.7879 41.0606H51.6667V43.1818H53.7879V41.0606Z" fill="#111111"/>
<path d="M55.9091 41.0606H53.7879V43.1818H55.9091V41.0606Z" fill="#111111"/>
<path d="M58.0303 41.0606H55.9091V43.1818H58.0303V41.0606Z" fill="#111111"/>
<path d="M62.2727 41.0606H60.1515V43.1818H62.2727V41.0606Z" fill="#111111"/>
<path d="M64.3939 41.0606H62.2727V43.1818H64.3939V41.0606Z" fill="#111111"/>
<path d="M70.7576 41.0606H68.6364V43.1818H70.7576V41.0606Z" fill="#111111"/>
<path d="M72.8788 41.0606H70.7576V43.1818H72.8788V41.0606Z" fill="#111111"/>
<path d="M75 41.0606H72.8788V43.1818H75V41.0606Z" fill="#111111"/>
<path d="M7.12121 43.1818H5V45.303H7.12121V43.1818Z" fill="#111111"/>
<path d="M13.4848 43.1818H11.3636V45.303H13.4848V43.1818Z" fill="#111111"/>
<path d="M15.6061 43.1818H13.4848V45.303H15.6061V43.1818Z" fill="#111111"/>
<path d="M19.8485 43.1818H17.7273V45.303H19.8485V43.1818Z" fill="#111111"/>
<path d="M21.9697 43.1818H19.8485V45.303H21.9697V43.1818Z" fill="#111111"/>
<path d="M26.2121 43.1818H24.0909V45.303H26.2121V43.1818Z" fill="#111111"/>
<path d="M30.4545 43.1818H28.3333V45.303H30.4545V43.1818Z" fill="#111111"/>
<path d="M32.5758 43.1818H30.4545V45.303H32.5758V43.1818Z" fill="#111111"/>
<path d="M38.9394 43.1818H36.8182V45.303H38.9394V43.1818Z" fill="#111111"/>
<path d="M43.1818 43.1818H41.0606V45.303H43.1818V43.1818Z" fill="#111111"/>
<path d="M45.303 43.1818H43.1818V45.303H45.303V43.1818Z" fill="#111111"/>
<path d="M51.6667 43.1818H49.5455V45.303H51.6667V43.1818Z" fill="#111111"/>
<path d="M53.7879 43.1818H51.6667V45.303H53.7879V43.1818Z" fill="#111111"/>
<path d="M60.1515 43.1818H58.0303V45.303H60.1515V43.1818Z" fill="#111111"/>
<path d="M64.3939 43.1818H62.2727V45.303H64.3939V43.1818Z" fill="#111111"/>
<path d="M66.5152 43.1818H64.3939V45.303H66.5152V43.1818Z" fill="#111111"/>
<path d="M70.7576 43.1818H68.6364V45.303H70.7576V43.1818Z" fill="#111111"/>
<path d="M72.8788 43.1818H70.7576V45.303H72.8788V43.1818Z" fill="#111111"/>
<path d="M9.24242 45.303L7.12121 45.303V47.4242H9.24242V45.303Z" fill="#111111"/>
<path d="M15.6061 45.303H13.4848V47.4242H15.6061V45.303Z" fill="#111111"/>
<path d="M17.7273 45.303H15.6061V47.4242H17.7273V45.303Z" fill="#111111"/>
<path d="M24.0909 45.303H21.9697V47.4242H24.0909V45.303Z" fill="#111111"/>
<path d="M32.5758 45.303H30.4545V47.4242H32.5758V45.303Z" fill="#111111"/>
<path d="M34.697 45.303L32.5758 45.303V47.4242H34.697V45.303Z" fill="#111111"/>
<path d="M36.8182 45.303L34.697 45.303V47.4242H36.8182V45.303Z" fill="#111111"/>
<path d="M38.9394 45.303H36.8182V47.4242H38.9394V45.303Z" fill="#111111"/>
<path d="M49.5455 45.303L47.4242 45.303V47.4242H49.5455V45.303Z" fill="#111111"/>
<path d="M51.6667 45.303H49.5455V47.4242H51.6667V45.303Z" fill="#111111"/>
<path d="M58.0303 45.303L55.9091 45.303V47.4242H58.0303V45.303Z" fill="#111111"/>
<path d="M64.3939 45.303H62.2727V47.4242H64.3939V45.303Z" fill="#111111"/>
<path d="M68.6364 45.303H66.5152V47.4242H68.6364V45.303Z" fill="#111111"/>
<path d="M70.7576 45.303H68.6364V47.4242H70.7576V45.303Z" fill="#111111"/>
<path d="M72.8788 45.303H70.7576V47.4242H72.8788V45.303Z" fill="#111111"/>
<path d="M9.24242 47.4242H7.12121V49.5455H9.24242V47.4242Z" fill="#111111"/>
<path d="M13.4848 47.4242H11.3636V49.5455H13.4848V47.4242Z" fill="#111111"/>
<path d="M15.6061 47.4242H13.4848V49.5455H15.6061V47.4242Z" fill="#111111"/>
<path d="M19.8485 47.4242H17.7273V49.5455H19.8485V47.4242Z" fill="#111111"/>
<path d="M24.0909 47.4242H21.9697V49.5455H24.0909V47.4242Z" fill="#111111"/>
<path d="M26.2121 47.4242H24.0909V49.5455H26.2121V47.4242Z" fill="#111111"/>
<path d="M30.4545 47.4242H28.3333V49.5455H30.4545V47.4242Z" fill="#111111"/>
<path d="M32.5758 47.4242H30.4545V49.5455H32.5758V47.4242Z" fill="#111111"/>
<path d="M38.9394 47.4242H36.8182V49.5455H38.9394V47.4242Z" fill="#111111"/>
<path d="M41.0606 47.4242H38.9394V49.5455H41.0606V47.4242Z" fill="#111111"/>
<path d="M45.303 47.4242H43.1818V49.5455H45.303V47.4242Z" fill="#111111"/>
<path d="M51.6667 47.4242H49.5455V49.5455H51.6667V47.4242Z" fill="#111111"/>
<path d="M53.7879 47.4242H51.6667V49.5455H53.7879V47.4242Z" fill="#111111"/>
<path d="M58.0303 47.4242H55.9091V49.5455H58.0303V47.4242Z" fill="#111111"/>
<path d="M62.2727 47.4242H60.1515V49.5455H62.2727V47.4242Z" fill="#111111"/>
<path d="M64.3939 47.4242H62.2727V49.5455H64.3939V47.4242Z" fill="#111111"/>
<path d="M66.5152 47.4242H64.3939V49.5455H66.5152V47.4242Z" fill="#111111"/>
<path d="M72.8788 47.4242H70.7576V49.5455H72.8788V47.4242Z" fill="#111111"/>
<path d="M75 47.4242H72.8788V49.5455H75V47.4242Z" fill="#111111"/>
<path d="M7.12121 49.5455H5V51.6667H7.12121V49.5455Z" fill="#111111"/>
<path d="M9.24242 49.5455H7.12121V51.6667H9.24242V49.5455Z" fill="#111111"/>
<path d="M13.4848 49.5455H11.3636V51.6667H13.4848V49.5455Z" fill="#111111"/>
<path d="M15.6061 49.5455H13.4848V51.6667H15.6061V49.5455Z" fill="#111111"/>
<path d="M17.7273 49.5455H15.6061V51.6667H17.7273V49.5455Z" fill="#111111"/>
<path d="M21.9697 49.5455H19.8485V51.6667H21.9697V49.5455Z" fill="#111111"/>
<path d="M24.0909 49.5455H21.9697V51.6667H24.0909V49.5455Z" fill="#111111"/>
<path d="M28.3333 49.5455H26.2121V51.6667H28.3333V49.5455Z" fill="#111111"/>
<path d="M30.4545 49.5455H28.3333V51.6667H30.4545V49.5455Z" fill="#111111"/>
<path d="M38.9394 49.5455H36.8182V51.6667H38.9394V49.5455Z" fill="#111111"/>
<path d="M41.0606 49.5455H38.9394V51.6667H41.0606V49.5455Z" fill="#111111"/>
<path d="M43.1818 49.5455H41.0606V51.6667H43.1818V49.5455Z" fill="#111111"/>
<path d="M51.6667 49.5455H49.5455V51.6667H51.6667V49.5455Z" fill="#111111"/>
<path d="M55.9091 49.5455H53.7879V51.6667H55.9091V49.5455Z" fill="#111111"/>
<path d="M58.0303 49.5455H55.9091V51.6667H58.0303V49.5455Z" fill="#111111"/>
<path d="M62.2727 49.5455H60.1515V51.6667H62.2727V49.5455Z" fill="#111111"/>
<path d="M64.3939 49.5455H62.2727V51.6667H64.3939V49.5455Z" fill="#111111"/>
<path d="M68.6364 49.5455H66.5152V51.6667H68.6364V49.5455Z" fill="#111111"/>
<path d="M70.7576 49.5455H68.6364V51.6667H70.7576V49.5455Z" fill="#111111"/>
<path d="M72.8788 49.5455H70.7576V51.6667H72.8788V49.5455Z" fill="#111111"/>
<path d="M75 49.5455H72.8788V51.6667H75V49.5455Z" fill="#111111"/>
<path d="M9.24242 51.6667H7.12121V53.7879H9.24242V51.6667Z" fill="#111111"/>
<path d="M11.3636 51.6667H9.24242V53.7879H11.3636V51.6667Z" fill="#111111"/>
<path d="M17.7273 51.6667H15.6061V53.7879H17.7273V51.6667Z" fill="#111111"/>
<path d="M19.8485 51.6667H17.7273V53.7879H19.8485V51.6667Z" fill="#111111"/>
<path d="M24.0909 51.6667H21.9697V53.7879H24.0909V51.6667Z" fill="#111111"/>
<path d="M26.2121 51.6667H24.0909V53.7879H26.2121V51.6667Z" fill="#111111"/>
<path d="M28.3333 51.6667H26.2121V53.7879H28.3333V51.6667Z" fill="#111111"/>
<path d="M34.697 51.6667H32.5758V53.7879H34.697V51.6667Z" fill="#111111"/>
<path d="M41.0606 51.6667H38.9394V53.7879H41.0606V51.6667Z" fill="#111111"/>
<path d="M47.4242 51.6667H45.303V53.7879H47.4242V51.6667Z" fill="#111111"/>
<path d="M49.5455 51.6667H47.4242V53.7879H49.5455V51.6667Z" fill="#111111"/>
<path d="M55.9091 51.6667H53.7879V53.7879H55.9091V51.6667Z" fill="#111111"/>
<path d="M58.0303 51.6667H55.9091V53.7879H58.0303V51.6667Z" fill="#111111"/>
<path d="M62.2727 51.6667H60.1515V53.7879H62.2727V51.6667Z" fill="#111111"/>
<path d="M68.6364 51.6667H66.5152V53.7879H68.6364V51.6667Z" fill="#111111"/>
<path d="M72.8788 51.6667H70.7576V53.7879H72.8788V51.6667Z" fill="#111111"/>
<path d="M75 51.6667H72.8788V53.7879H75V51.6667Z" fill="#111111"/>
<path d="M7.12121 53.7879H5V55.9091H7.12121V53.7879Z" fill="#111111"/>
<path d="M11.3636 53.7879H9.24242V55.9091H11.3636V53.7879Z" fill="#111111"/>
<path d="M13.4848 53.7879H11.3636V55.9091H13.4848V53.7879Z" fill="#111111"/>
<path d="M21.9697 53.7879H19.8485V55.9091H21.9697V53.7879Z" fill="#111111"/>
<path d="M26.2121 53.7879H24.0909V55.9091H26.2121V53.7879Z" fill="#111111"/>
<path d="M28.3333 53.7879H26.2121V55.9091H28.3333V53.7879Z" fill="#111111"/>
<path d="M30.4545 53.7879H28.3333V55.9091H30.4545V53.7879Z" fill="#111111"/>
<path d="M41.0606 53.7879H38.9394V55.9091H41.0606V53.7879Z" fill="#111111"/>
<path d="M43.1818 53.7879H41.0606V55.9091H43.1818V53.7879Z" fill="#111111"/>
<path d="M45.303 53.7879H43.1818V55.9091H45.303L45.303 53.7879Z" fill="#111111"/>
<path d="M53.7879 53.7879H51.6667V55.9091H53.7879V53.7879Z" fill="#111111"/>
<path d="M55.9091 53.7879H53.7879V55.9091H55.9091V53.7879Z" fill="#111111"/>
<path d="M60.1515 53.7879H58.0303V55.9091H60.1515V53.7879Z" fill="#111111"/>
<path d="M68.6364 53.7879H66.5152V55.9091H68.6364V53.7879Z" fill="#111111"/>
<path d="M72.8788 53.7879H70.7576V55.9091H72.8788V53.7879Z" fill="#111111"/>
<path d="M75 53.7879H72.8788V55.9091H75V53.7879Z" fill="#111111"/>
<path d="M9.24242 55.9091H7.12121V58.0303H9.24242V55.9091Z" fill="#111111"/>
<path d="M11.3636 55.9091H9.24242V58.0303H11.3636V55.9091Z" fill="#111111"/>
<path d="M13.4848 55.9091H11.3636V58.0303H13.4848V55.9091Z" fill="#111111"/>
<path d="M15.6061 55.9091H13.4848V58.0303H15.6061V55.9091Z" fill="#111111"/>
<path d="M19.8485 55.9091H17.7273V58.0303H19.8485V55.9091Z" fill="#111111"/>
<path d="M24.0909 55.9091H21.9697V58.0303H24.0909V55.9091Z" fill="#111111"/>
<path d="M32.5758 55.9091H30.4545V58.0303H32.5758V55.9091Z" fill="#111111"/>
<path d="M38.9394 55.9091H36.8182V58.0303H38.9394V55.9091Z" fill="#111111"/>
<path d="M41.0606 55.9091H38.9394V58.0303H41.0606V55.9091Z" fill="#111111"/>
<path d="M43.1818 55.9091H41.0606V58.0303H43.1818V55.9091Z" fill="#111111"/>
<path d="M51.6667 55.9091H49.5455V58.0303H51.6667V55.9091Z" fill="#111111"/>
<path d="M53.7879 55.9091H51.6667V58.0303H53.7879V55.9091Z" fill="#111111"/>
<path d="M58.0303 55.9091H55.9091V58.0303H58.0303V55.9091Z" fill="#111111"/>
<path d="M60.1515 55.9091H58.0303V58.0303H60.1515V55.9091Z" fill="#111111"/>
<path d="M62.2727 55.9091H60.1515V58.0303H62.2727V55.9091Z" fill="#111111"/>
<path d="M64.3939 55.9091H62.2727V58.0303H64.3939V55.9091Z" fill="#111111"/>
<path d="M66.5152 55.9091H64.3939V58.0303H66.5152V55.9091Z" fill="#111111"/>
<path d="M70.7576 55.9091H68.6364V58.0303H70.7576V55.9091Z" fill="#111111"/>
<path d="M24.0909 58.0303H21.9697V60.1515H24.0909V58.0303Z" fill="#111111"/>
<path d="M26.2121 58.0303H24.0909V60.1515H26.2121V58.0303Z" fill="#111111"/>
<path d="M43.1818 58.0303H41.0606V60.1515H43.1818V58.0303Z" fill="#111111"/>
<path d="M49.5455 58.0303H47.4242V60.1515H49.5455V58.0303Z" fill="#111111"/>
<path d="M51.6667 58.0303H49.5455V60.1515H51.6667V58.0303Z" fill="#111111"/>
<path d="M53.7879 58.0303H51.6667V60.1515H53.7879V58.0303Z" fill="#111111"/>
<path d="M58.0303 58.0303H55.9091V60.1515H58.0303V58.0303Z" fill="#111111"/>
<path d="M66.5152 58.0303H64.3939V60.1515H66.5152V58.0303Z" fill="#111111"/>
<path d="M72.8788 58.0303H70.7576V60.1515H72.8788V58.0303Z" fill="#111111"/>
<path d="M75 58.0303H72.8788V60.1515H75V58.0303Z" fill="#111111"/>
<path d="M7.12121 60.1515H5V62.2727H7.12121V60.1515Z" fill="#111111"/>
<path d="M9.24242 60.1515H7.12121V62.2727H9.24242V60.1515Z" fill="#111111"/>
<path d="M11.3636 60.1515H9.24242V62.2727H11.3636V60.1515Z" fill="#111111"/>
<path d="M13.4848 60.1515H11.3636V62.2727H13.4848V60.1515Z" fill="#111111"/>
<path d="M15.6061 60.1515H13.4848V62.2727H15.6061V60.1515Z" fill="#111111"/>
<path d="M17.7273 60.1515H15.6061V62.2727H17.7273V60.1515Z" fill="#111111"/>
<path d="M19.8485 60.1515H17.7273V62.2727H19.8485V60.1515Z" fill="#111111"/>
<path d="M24.0909 60.1515H21.9697V62.2727H24.0909V60.1515Z" fill="#111111"/>
<path d="M32.5758 60.1515H30.4545V62.2727H32.5758V60.1515Z" fill="#111111"/>
<path d="M41.0606 60.1515H38.9394V62.2727H41.0606V60.1515Z" fill="#111111"/>
<path d="M49.5455 60.1515H47.4242V62.2727H49.5455V60.1515Z" fill="#111111"/>
<path d="M51.6667 60.1515H49.5455V62.2727H51.6667V60.1515Z" fill="#111111"/>
<path d="M55.9091 60.1515H53.7879V62.2727H55.9091V60.1515Z" fill="#111111"/>
<path d="M58.0303 60.1515H55.9091V62.2727H58.0303V60.1515Z" fill="#111111"/>
<path d="M62.2727 60.1515H60.1515V62.2727H62.2727V60.1515Z" fill="#111111"/>
<path d="M66.5152 60.1515H64.3939V62.2727H66.5152V60.1515Z" fill="#111111"/>
<path d="M68.6364 60.1515H66.5152V62.2727H68.6364V60.1515Z" fill="#111111"/>
<path d="M70.7576 60.1515H68.6364V62.2727H70.7576V60.1515Z" fill="#111111"/>
<path d="M72.8788 60.1515H70.7576V62.2727H72.8788V60.1515Z" fill="#111111"/>
<path d="M7.12121 62.2727H5V64.3939H7.12121V62.2727Z" fill="#111111"/>
<path d="M19.8485 62.2727H17.7273V64.3939H19.8485V62.2727Z" fill="#111111"/>
<path d="M24.0909 62.2727H21.9697V64.3939H24.0909V62.2727Z" fill="#111111"/>
<path d="M32.5758 62.2727H30.4545V64.3939H32.5758V62.2727Z" fill="#111111"/>
<path d="M34.697 62.2727H32.5758V64.3939H34.697V62.2727Z" fill="#111111"/>
<path d="M38.9394 62.2727H36.8182V64.3939H38.9394V62.2727Z" fill="#111111"/>
<path d="M43.1818 62.2727H41.0606V64.3939H43.1818V62.2727Z" fill="#111111"/>
<path d="M45.303 62.2727H43.1818V64.3939H45.303V62.2727Z" fill="#111111"/>
<path d="M51.6667 62.2727H49.5455V64.3939H51.6667V62.2727Z" fill="#111111"/>
<path d="M53.7879 62.2727H51.6667V64.3939H53.7879V62.2727Z" fill="#111111"/>
<path d="M55.9091 62.2727H53.7879V64.3939H55.9091V62.2727Z" fill="#111111"/>
<path d="M58.0303 62.2727H55.9091V64.3939H58.0303V62.2727Z" fill="#111111"/>
<path d="M66.5152 62.2727H64.3939V64.3939H66.5152V62.2727Z" fill="#111111"/>
<path d="M75 62.2727H72.8788V64.3939H75V62.2727Z" fill="#111111"/>
<path d="M7.12121 64.3939H5V66.5152H7.12121V64.3939Z" fill="#111111"/>
<path d="M11.3636 64.3939H9.24242V66.5152H11.3636V64.3939Z" fill="#111111"/>
<path d="M13.4848 64.3939H11.3636V66.5152H13.4848V64.3939Z" fill="#111111"/>
<path d="M15.6061 64.3939H13.4848V66.5152H15.6061V64.3939Z" fill="#111111"/>
<path d="M19.8485 64.3939H17.7273V66.5152H19.8485V64.3939Z" fill="#111111"/>
<path d="M24.0909 64.3939H21.9697V66.5152H24.0909V64.3939Z" fill="#111111"/>
<path d="M28.3333 64.3939H26.2121V66.5152H28.3333V64.3939Z" fill="#111111"/>
<path d="M30.4545 64.3939H28.3333V66.5152H30.4545V64.3939Z" fill="#111111"/>
<path d="M32.5758 64.3939H30.4545V66.5152H32.5758V64.3939Z" fill="#111111"/>
<path d="M36.8182 64.3939H34.697V66.5152H36.8182V64.3939Z" fill="#111111"/>
<path d="M38.9394 64.3939H36.8182V66.5152H38.9394V64.3939Z" fill="#111111"/>
<path d="M41.0606 64.3939H38.9394V66.5152H41.0606V64.3939Z" fill="#111111"/>
<path d="M45.303 64.3939H43.1818V66.5152H45.303V64.3939Z" fill="#111111"/>
<path d="M47.4242 64.3939H45.303V66.5152H47.4242V64.3939Z" fill="#111111"/>
<path d="M49.5455 64.3939H47.4242V66.5152H49.5455V64.3939Z" fill="#111111"/>
<path d="M53.7879 64.3939H51.6667V66.5152H53.7879V64.3939Z" fill="#111111"/>
<path d="M55.9091 64.3939H53.7879V66.5152H55.9091V64.3939Z" fill="#111111"/>
<path d="M58.0303 64.3939H55.9091V66.5152H58.0303V64.3939Z" fill="#111111"/>
<path d="M60.1515 64.3939H58.0303V66.5152H60.1515V64.3939Z" fill="#111111"/>
<path d="M62.2727 64.3939H60.1515V66.5152H62.2727V64.3939Z" fill="#111111"/>
<path d="M64.3939 64.3939H62.2727V66.5152H64.3939V64.3939Z" fill="#111111"/>
<path d="M66.5152 64.3939H64.3939V66.5152H66.5152V64.3939Z" fill="#111111"/>
<path d="M68.6364 64.3939H66.5152V66.5152H68.6364V64.3939Z" fill="#111111"/>
<path d="M70.7576 64.3939H68.6364V66.5152H70.7576V64.3939Z" fill="#111111"/>
<path d="M75 64.3939H72.8788V66.5152H75V64.3939Z" fill="#111111"/>
<path d="M7.12121 66.5152H5V68.6364H7.12121V66.5152Z" fill="#111111"/>
<path d="M11.3636 66.5152H9.24242V68.6364H11.3636V66.5152Z" fill="#111111"/>
<path d="M13.4848 66.5152H11.3636V68.6364H13.4848V66.5152Z" fill="#111111"/>
<path d="M15.6061 66.5152H13.4848V68.6364H15.6061V66.5152Z" fill="#111111"/>
<path d="M19.8485 66.5152H17.7273V68.6364H19.8485V66.5152Z" fill="#111111"/>
<path d="M24.0909 66.5152H21.9697V68.6364H24.0909V66.5152Z" fill="#111111"/>
<path d="M28.3333 66.5152H26.2121V68.6364H28.3333V66.5152Z" fill="#111111"/>
<path d="M30.4545 66.5152H28.3333V68.6364H30.4545V66.5152Z" fill="#111111"/>
<path d="M45.303 66.5152H43.1818V68.6364H45.303V66.5152Z" fill="#111111"/>
<path d="M51.6667 66.5152H49.5455V68.6364H51.6667V66.5152Z" fill="#111111"/>
<path d="M58.0303 66.5152H55.9091V68.6364H58.0303V66.5152Z" fill="#111111"/>
<path d="M70.7576 66.5152H68.6364V68.6364H70.7576V66.5152Z" fill="#111111"/>
<path d="M72.8788 66.5152H70.7576V68.6364H72.8788V66.5152Z" fill="#111111"/>
<path d="M7.12121 68.6364H5V70.7576H7.12121V68.6364Z" fill="#111111"/>
<path d="M11.3636 68.6364H9.24242V70.7576H11.3636V68.6364Z" fill="#111111"/>
<path d="M13.4848 68.6364H11.3636V70.7576H13.4848V68.6364Z" fill="#111111"/>
<path d="M15.6061 68.6364H13.4848V70.7576H15.6061V68.6364Z" fill="#111111"/>
<path d="M19.8485 68.6364H17.7273V70.7576H19.8485V68.6364Z" fill="#111111"/>
<path d="M26.2121 68.6364H24.0909V70.7576H26.2121V68.6364Z" fill="#111111"/>
<path d="M28.3333 68.6364H26.2121V70.7576H28.3333V68.6364Z" fill="#111111"/>
<path d="M36.8182 68.6364H34.697V70.7576H36.8182V68.6364Z" fill="#111111"/>
<path d="M43.1818 68.6364H41.0606V70.7576H43.1818V68.6364Z" fill="#111111"/>
<path d="M51.6667 68.6364H49.5455V70.7576H51.6667V68.6364Z" fill="#111111"/>
<path d="M60.1515 68.6364H58.0303V70.7576H60.1515V68.6364Z" fill="#111111"/>
<path d="M62.2727 68.6364H60.1515V70.7576H62.2727V68.6364Z" fill="#111111"/>
<path d="M68.6364 68.6364H66.5152V70.7576H68.6364V68.6364Z" fill="#111111"/>
<path d="M70.7576 68.6364H68.6364V70.7576H70.7576V68.6364Z" fill="#111111"/>
<path d="M7.12121 70.7576H5V72.8788H7.12121V70.7576Z" fill="#111111"/>
<path d="M19.8485 70.7576H17.7273V72.8788H19.8485V70.7576Z" fill="#111111"/>
<path d="M26.2121 70.7576H24.0909V72.8788H26.2121V70.7576Z" fill="#111111"/>
<path d="M28.3333 70.7576H26.2121V72.8788H28.3333V70.7576Z" fill="#111111"/>
<path d="M30.4545 70.7576H28.3333V72.8788H30.4545V70.7576Z" fill="#111111"/>
<path d="M32.5758 70.7576H30.4545V72.8788H32.5758V70.7576Z" fill="#111111"/>
<path d="M36.8182 70.7576H34.697V72.8788H36.8182V70.7576Z" fill="#111111"/>
<path d="M38.9394 70.7576H36.8182V72.8788H38.9394V70.7576Z" fill="#111111"/>
<path d="M41.0606 70.7576H38.9394V72.8788H41.0606V70.7576Z" fill="#111111"/>
<path d="M43.1818 70.7576H41.0606V72.8788H43.1818V70.7576Z" fill="#111111"/>
<path d="M45.303 70.7576H43.1818V72.8788H45.303V70.7576Z" fill="#111111"/>
<path d="M47.4242 70.7576H45.303V72.8788H47.4242V70.7576Z" fill="#111111"/>
<path d="M49.5455 70.7576H47.4242V72.8788H49.5455V70.7576Z" fill="#111111"/>
<path d="M53.7879 70.7576H51.6667V72.8788H53.7879V70.7576Z" fill="#111111"/>
<path d="M58.0303 70.7576H55.9091V72.8788H58.0303V70.7576Z" fill="#111111"/>
<path d="M60.1515 70.7576H58.0303V72.8788H60.1515V70.7576Z" fill="#111111"/>
<path d="M62.2727 70.7576H60.1515V72.8788H62.2727V70.7576Z" fill="#111111"/>
<path d="M66.5152 70.7576H64.3939V72.8788H66.5152V70.7576Z" fill="#111111"/>
<path d="M68.6364 70.7576H66.5152V72.8788H68.6364V70.7576Z" fill="#111111"/>
<path d="M7.12121 72.8788H5V75H7.12121V72.8788Z" fill="#111111"/>
<path d="M9.24242 72.8788H7.12121V75H9.24242V72.8788Z" fill="#111111"/>
<path d="M11.3636 72.8788H9.24242V75H11.3636V72.8788Z" fill="#111111"/>
<path d="M13.4848 72.8788H11.3636V75H13.4848V72.8788Z" fill="#111111"/>
<path d="M15.6061 72.8788H13.4848V75H15.6061V72.8788Z" fill="#111111"/>
<path d="M17.7273 72.8788H15.6061V75H17.7273V72.8788Z" fill="#111111"/>
<path d="M19.8485 72.8788H17.7273V75H19.8485V72.8788Z" fill="#111111"/>
<path d="M24.0909 72.8788H21.9697V75H24.0909V72.8788Z" fill="#111111"/>
<path d="M30.4545 72.8788H28.3333V75H30.4545V72.8788Z" fill="#111111"/>
<path d="M32.5758 72.8788H30.4545V75H32.5758V72.8788Z" fill="#111111"/>
<path d="M34.697 72.8788H32.5758V75H34.697V72.8788Z" fill="#111111"/>
<path d="M41.0606 72.8788H38.9394V75H41.0606V72.8788Z" fill="#111111"/>
<path d="M49.5455 72.8788H47.4242V75H49.5455V72.8788Z" fill="#111111"/>
<path d="M51.6667 72.8788H49.5455V75H51.6667V72.8788Z" fill="#111111"/>
<path d="M64.3939 72.8788H62.2727V75H64.3939V72.8788Z" fill="#111111"/>
<path d="M66.5152 72.8788H64.3939V75H66.5152V72.8788Z" fill="#111111"/>
<path d="M75 72.8788H72.8788V75H75V72.8788Z" fill="#111111"/>
</g>
<defs>
<clipPath id="clip0_0_5121">
<rect width="80" height="80" rx="4" fill="white"/>
</clipPath>
</defs>
</svg>
