<svg width="503" height="526" viewBox="0 0 503 526" fill="none" xmlns="http://www.w3.org/2000/svg">
<path opacity="0.45" d="M19.9056 180.875C17.3959 164.648 15.5216 152.523 15.2507 142.916C14.9803 133.322 16.312 126.301 20.168 120.258C24.024 114.216 29.8133 110.078 38.5922 106.339C47.3839 102.594 59.1159 99.271 74.8185 94.825L308.35 28.7028C327.705 23.2226 342.172 19.1275 353.703 17.529C365.219 15.9324 373.724 16.8393 381.19 21.2897C388.656 25.74 393.551 32.8208 397.73 43.7725C401.913 54.7377 405.35 69.5049 409.947 89.2625L481.088 395.031C485.909 415.751 489.511 431.239 490.596 443.343C491.679 455.432 490.242 464.057 485.061 471.1C479.88 478.142 472.085 482.068 460.244 484.601C448.389 487.138 432.564 488.263 411.395 489.767L146.695 508.571C128.747 509.846 115.335 510.798 104.826 510.175C94.3321 509.554 86.8043 507.364 80.592 502.409C74.3797 497.455 70.5707 490.601 67.6298 480.507C64.6848 470.399 62.6284 457.11 59.8779 439.326L19.9056 180.875Z" stroke="url(#paint0_linear_270_356)"/>
<path d="M68.9913 220.539C67.2814 204.407 66.0047 192.353 66.184 182.837C66.3629 173.334 67.994 166.423 72.0554 160.552C76.1167 154.681 81.9968 150.735 90.8013 147.252C99.6188 143.764 111.311 140.761 126.961 136.743L303.018 91.5417C322.839 86.453 337.654 82.6505 349.385 81.3234C361.102 79.9979 369.659 81.1531 377.002 85.905C384.345 90.6569 388.937 98.0113 392.596 109.287C396.258 120.576 398.96 135.714 402.574 155.968L448.577 413.824C452.294 434.654 455.071 450.225 455.523 462.327C455.975 474.415 454.102 482.955 448.596 489.775C443.089 496.595 435.142 500.217 423.244 502.306C411.332 504.397 395.546 504.938 374.428 505.661L175.628 512.464C157.647 513.079 144.21 513.538 133.747 512.528C123.298 511.52 115.886 509.053 109.92 503.868C103.954 498.682 100.478 491.686 98.0238 481.48C95.5663 471.259 94.1481 457.889 92.2517 439.997L68.9913 220.539Z" stroke="url(#paint1_linear_270_356)"/>
<defs>
<linearGradient id="paint0_linear_270_356" x1="220.781" y1="21.0202" x2="266.976" y2="506.214" gradientUnits="userSpaceOnUse">
<stop offset="0.0885417" stop-color="#25BEA9"/>
<stop offset="0.916667" stop-color="#00A992"/>
</linearGradient>
<linearGradient id="paint1_linear_270_356" x1="243.471" y1="77.9193" x2="269.581" y2="514.742" gradientUnits="userSpaceOnUse">
<stop offset="0.0885417" stop-color="#25BEA9"/>
<stop offset="0.916667" stop-color="#00A992"/>
</linearGradient>
</defs>
</svg>
