<svg width="507" height="602" viewBox="0 0 507 602" fill="none" xmlns="http://www.w3.org/2000/svg">
<path d="M87.9 134.389C91.5136 118.631 94.2143 106.858 97.4605 97.956C100.702 89.067 104.467 83.099 110.177 78.9156C115.886 74.7322 122.684 72.9601 132.081 72.5886C141.492 72.2166 153.448 73.2502 169.451 74.6348L374.556 92.3815C394.997 94.1501 410.276 95.4732 421.825 98.1234C433.359 100.77 441.091 104.724 446.498 111.695C451.906 118.667 453.851 127.188 453.624 139.12C453.398 151.067 450.998 166.347 447.785 186.79L400.798 485.8C397.513 506.699 395.057 522.321 391.543 533.891C388.033 545.447 383.49 552.876 376.088 557.463C368.685 562.051 360.025 562.804 348.143 560.787C336.246 558.768 321.207 553.989 301.087 547.594L86.0069 479.232C68.8549 473.78 56.0381 469.705 46.5019 465.241C36.9789 460.783 30.7925 455.965 26.8517 449.063C22.9111 442.162 21.9062 434.385 22.9072 423.918C23.9095 413.436 26.9147 400.327 30.9376 382.784L87.9 134.389Z" stroke="#2547BE"/>
<path opacity="0.45" d="M93.87 202.102C98.2146 186.472 101.461 174.794 105.129 166.011C108.791 157.24 112.85 151.414 118.786 147.449C124.723 143.484 131.642 141.977 141.111 141.977C150.593 141.977 162.57 143.486 178.601 145.507L352.553 167.435C372.856 169.995 388.031 171.909 399.428 174.99C410.811 178.068 418.343 182.29 423.423 189.41C428.503 196.53 430.068 205.058 429.322 216.888C428.575 228.733 425.518 243.804 421.428 263.967L371.024 512.413C366.817 533.15 363.671 548.65 359.639 560.07C355.613 571.477 350.73 578.729 343.101 583.045C335.472 587.361 326.75 587.806 314.917 585.371C303.071 582.934 288.193 577.63 268.29 570.533L87.5059 506.073C70.559 500.03 57.8955 495.514 48.5376 490.726C39.1926 485.945 33.208 480.925 29.5677 473.908C25.9274 466.891 25.2689 459.107 26.7414 448.714C28.2159 438.306 31.8157 425.351 36.6341 408.016L93.87 202.102Z" stroke="#2547BE"/>
</svg>
